<svg id="圖層_2" data-name="圖層 2" xmlns="http://www.w3.org/2000/svg" viewBox="0 0 1041 973"><defs><style>.cls-1{fill:#faf3f2;}.cls-2{fill:#e3bdb3;}.cls-3{fill:#fefdfd;}</style></defs><path class="cls-1" d="M656.88,901.9c2.66-.31,4.52,2,7,2.16,0,.64,0,1.28-.07,1.92C661.07,905.39,658.11,905.12,656.88,901.9Z"/><circle class="cls-1" cx="521.84" cy="481.11" r="442.14"/><path class="cls-2" d="M563.91,928.59a676,676,0,0,1-88.2-.06c-44.33-4.77-87.18-15.29-128.39-32.51a440.8,440.8,0,0,1-110.26-66.35A448.34,448.34,0,0,1,134.7,710.07a441.69,441.69,0,0,1-52.9-138.9c-4.14-20.71-6.26-41.7-7.78-62.84s-.63-42,.82-62.78c2-28.49,7.46-56.54,15.28-84.1,16.72-58.94,44.64-112,82.92-159.72a406.15,406.15,0,0,1,52.18-53.86,20.41,20.41,0,0,1,3.46-1.94l.54.38c2.19,2.14,3.73-.24,5.28-1a151.65,151.65,0,0,0,30.18-18.88c9.06-7.27,18.14-14.47,25.36-23.69l-.09.08,1.42-1.42,0,0,1.64-.61-1.53-.68-.16-.16c14-9.56,28.73-17.59,44.84-23-.34,1-1.09,2.13-.9,3s1.53.82,2.11.14c2.85-3.28,8-3.95,9.65-8.57,20.44-9.55,42-15.7,64.94-22.16a41.59,41.59,0,0,1-17.15,15.17q-19,9.64-38.14,19.12c-15.66,7.77-28.38,19-39.16,32.64-16.61,21.08-37.43,37.66-58.39,54.11-12.2,9.57-25,18.5-34.71,30.94-9.45,12.11-13.94,25.53-12,40.85,3.51,27.24,11.44,53.29,22.72,78.19,11.6,25.6,28.15,47.48,54,60.33,24.5,12.19,47.69,7.92,69.15-8,11.14-8.29,19.83-19.06,28.32-29.85,12.1-15.41,28.11-25.14,45.62-32.8,11.2-4.91,22.19-10.09,31.36-18.35,13.95-12.56,19.61-28.82,20.22-47.07.68-20.51.51-41.07,1.69-61.54s4.67-40.35,20-55.9c7.82-7.91,17.15-13.84,25.91-20.52,22.46-17.12,42.29-36.61,55.17-62.17,1.6-3.18,3.57-2.91,6-2.46A538.65,538.65,0,0,1,665.2,60.4c4.81,1.61,6.59,3.47,5.18,8.71-1.27,4.71-1.27,9.76-1.83,14.66-3.09,21.64,3.89,37.33,25.39,45.66,7.21,2.8,13.58,7.91,19.29,13.49,17.46,17.09,27.24,38.36,33.65,61.45a42,42,0,0,1-1.06,27.18c-2.94,7.55-5.83,15.12-8.78,22.68-7.57,19.39-10.3,38.52,4.58,55.93,5.4,6.32,9.85,14,18.86,16.34l0,0c-.24,2.2,1.32,3.09,2.84,4.13,15.75,10.78,33.39,12.67,51.6,10.17,6-.83,12.15-3.36,16.09-8.88l0,0,1.4-1.4,0,0,1.39-1.39,0,0,1.4-1.4,0,.05a2.28,2.28,0,0,0,1.39-2.76l0,0c4.65-.84,5.21-4.4,5.46-8.18l0,0c3.25-.26,3.63-3.2,4.46-5.3,10.07-25.36,23-49.39,35-73.8,1.19-2.42,2.67-4.72,2.87-7.52,1.09-.58,2.34-2.2,3.4-.5,3.38,5.42,8.63,9.75,9.8,16.49-2,1.18-3.15,3.12-4.44,5-15.28,22.13-28.75,45.17-36.39,71.22-2.44,8.35-8,15-12.49,22.33a38.46,38.46,0,0,0,14.07-19.58A258.54,258.54,0,0,1,885,268.09c4.19-6.62,9.68-12.44,12.57-19.87,7,3.3,8.42,8.76,3.9,14A159.15,159.15,0,0,0,873,311.07c-2.21,5.91-4.47,11.81-6.41,17.81-9.48,29.3-26.66,38.76-54.85,38-17.77-.5-35.39-3.61-52-10.57-25.36-10.63-44.8-28.43-59.83-51-8-12.11-7.92-25.66-5.4-39.76s6.28-28.15,6.41-42.65q.32-36.11-35.48-42.74a195.76,195.76,0,0,0-27.49-2.91c-15.86-.68-30.62-4.87-42.51-16.36-26.11-25.23-56.44-6.31-65.81,15.44-3.93,9.14-5.08,18.29-1.85,27.62,9.9,28.55,5.48,55-11,79.87-9.81,14.83-17.89,30.87-30.52,43.73a88.29,88.29,0,0,1-29.39,20.09c-20.26,8.4-37.41,21.54-54.37,35.11-26.16,20.91-56.34,29.77-89.61,27.69-19.33-1.21-36.48-9.31-53.15-18.6-19.5-10.87-38.31-23-58.88-31.88-10.78-4.65-21.83-8.47-33.73-9.13-22.19-1.25-38.21,10.08-51.85,25.77-6.52,7.51-11.27,16.25-15.08,25.52a124.56,124.56,0,0,1-16.78,28.52,8.8,8.8,0,0,0-1.76,8.48c7.68-7.38,12.54-15.88,17.17-24.45,4.51-8.33,8-17.22,12.81-25.34,12.9-21.72,31.11-34.89,57.57-32.94,11.38.83,21.83,5.29,32.16,9.85,25.44,11.25,48.08,27.68,73.26,39.44,14.57,6.81,29.65,10.57,45.71,10.24,36.16-.73,67.74-13.06,94.66-37.32a129.44,129.44,0,0,1,35.78-22.78c21.62-9.33,39.67-23,52.47-43.2,8.2-13,16.66-25.71,23.79-39.36,10.48-20.05,12.22-40.68,6.27-62.23-2.84-10.27-5.64-20.51-.81-31,6.78-14.71,17.53-24.7,34-26.68,10.43-1.25,18.58,4.88,25.83,11.43,12.15,11,26.46,15.83,42.47,16.79,11.69.7,23.37,1.71,34.79,4.31,18.82,4.27,30.3,22.95,26.74,42.49-2.74,15-5.49,30.08-7.51,45.22-2.35,17.69,4.1,32.93,15.54,46,17.46,19.93,37.06,37.12,63.39,44.42,20.73,5.75,41.74,9.86,63.32,5.8C850.76,366,862.52,353,869,334.83c6.35-17.87,12.3-35.86,22.48-52.05,3.73-5.94,7.66-11.73,12.7-16.63,1.32-1.28,2.65-4.75,5.15-1.51,1.5,1.93,4.29,4.19,1.48,7-21.63,21.83-27.82,51.08-37.71,78.51-6.7,18.61-18.73,27.51-38.51,27.87-24.64.45-49.22.56-72.81-8.1-32.57-12-60.37-30.25-79.6-60-9.1-14.08-12.36-29.22-9.56-45.72a167.63,167.63,0,0,0,2.53-26.85c.2-24.56-15.91-30.56-34-28.53-25.36,2.86-45.31,15.21-60.88,35.18a81.31,81.31,0,0,1-8.91,9.28c-25.05,23.32-46.73,49.53-66.32,77.49-11.68,16.68-27.51,28.45-44.71,38.59-18.66,11-37.63,21.46-56.26,32.5-16.42,9.73-34.17,14.61-53,17-10.54,1.33-21.13,1.7-31.64,2.14-25.48,1-48.68-7.74-71-19.1-14.89-7.58-29.86-14.7-46.51-17.93-30.21-5.86-56.37,4.61-69.35,33.23-7,15.54-13.37,31.79-27.29,43.07q-11.3,9.14-22.8,18c-2.43,1.87-4.81,3.51-3.5,7,24-14.36,44.65-31.69,55.34-58.77,4.45-11.27,9.93-22.36,20.41-29.74,16.75-11.82,35.15-11.29,53.85-6.71,17.23,4.22,32.69,12.88,48.58,20.4,20.66,9.76,42.12,16,65.2,14.85,25-1.22,50.11-2.55,73.13-13.73,12.14-5.9,23.69-13.06,35.3-20,16.45-9.83,33.77-18.16,49.49-29.23,14-9.9,25.14-22.51,34.74-36.6,16.07-23.58,34.88-44.81,55.31-64.7,8.88-8.66,17.12-18,25.69-26.95,13.72-14.4,31.32-20.08,50.43-21.28,15.74-1,24.24,8,24.59,23.8.24,10.9-1.58,21.57-3.1,32.23a56.88,56.88,0,0,0,7.54,37.64c16.74,28.61,41.26,48.51,71.44,61.85,29.72,13.14,61,15.37,92.78,13.47,18.38-1.1,30.84-10.88,37-28.78,6.5-19,11.94-38.35,21.22-56.27a87.47,87.47,0,0,1,13.69-19.23c2.49-2.7,3.88-2.2,5.3.92,2,4.46,4.21,8.86,6.5,13.2a5.17,5.17,0,0,1-.48,6.17c-2.45,3.46-5.44,6.66-6.63,10.91-2.77,3.37-4.14,7.41-5.66,11.42-5.71,15.12-6.14,31.27-9.09,46.92-4.37,23.1-15.39,35-37.83,39.06A106.52,106.52,0,0,1,825.4,406c-21.56-4-43.33-5.33-65.11-6-25.31-.79-48.19-8.26-69.38-21.71-2.8-1.78-5.16-4.5-8.86-4.59a4.58,4.58,0,0,0-4.18-4l-2.59-1.49a12,12,0,0,0-1.58-2.89q-21-21.14-42.14-42.15c-.86-.86-1.7-2.27-3.48-1.31-.49,1.25.38,2.05,1.14,2.8q21.09,21.06,42.23,42a14.27,14.27,0,0,0,3.48,1.92l2.62,1.45c.39,2.36,1.91,3.53,4.14,4,1.22,2,3.18,3.1,5,4.38,24.27,16.77,51.43,24.44,80.62,25.09,12.39.28,24.83.16,37,2.11,19.11,3.05,38,6,57.56,3.68,20.14-2.34,36.87-16.85,41-36.43,4.42-21,5-43,14.69-62.75a21.16,21.16,0,0,1,2.46-4c2.11-2.21,2.43-7,6.86-5.93,2.51.6,4.5,10.73,3,13.41-6.36,11.24-8.93,23.4-9.6,36.2-.59,11.23-1.27,22.51-3,33.61-3.49,22.73-19.82,32.59-40,37.91-13.51,3.57-27.17,2.61-40.86.79-30.44-4-61.14-7.59-91.66-4.29-30,3.25-55.51-4.32-76.73-25-12.55-12.23-23.72-25.94-35-39.37-12.37-14.69-26.43-24.8-47-23.16-11.77.93-21.07,6.08-29.42,13.61a106,106,0,0,0-20.25,25.23c-14.53,24.69-37.12,39.51-62.71,50.41-17,7.24-34.15,14.14-51.33,21-12.22,4.87-25.05,7.1-38.15,8-24.57,1.69-49.21.49-73.76,1.69-18.28.9-36.53.93-54.8.88-7.37,0-14.55-1.85-22.14-.16-12.84,2.85-21.41,10-26,22.1-2,5.27-4.06,10.53-5.7,15.91-6.82,22.48-23.3,31.72-45.35,34.22-17.11,1.93-34.68,1.86-50.5,10.54-6.84,3.75-12.46,8.87-18.34,13.76-2.25,1.87-3.24,4.26-1.64,7.67,4.25-3.9,8.14-7.94,12.5-11.36,13.48-10.6,29.35-14.35,46.07-15.22a125,125,0,0,0,29.9-4.81c16.83-5.11,26.13-17.57,31.51-33.62,1.79-5.34,4-10.55,6-15.79,5.33-13.48,15.81-19.06,29.75-19s27.89,1.94,41.91,1.29c33.34-1.53,66.72-2,100.08-3a122.61,122.61,0,0,0,49.52-12.12c18.71-8.95,38.6-15.19,57.17-24.53,21.95-11.05,39.34-26.82,51.73-48.12a81.3,81.3,0,0,1,25.12-27.05c16.58-11.12,37.64-9.32,52.31,4.37,10.92,10.18,20,22,29.79,33.23,15.12,17.31,31.29,33,54.16,40.1,14.65,4.53,29.43,3.69,44.26,2.65a258.69,258.69,0,0,1,43.21.12c16.56,1.61,33.14,3.07,49.68,4.91,13.07,1.45,26.06,2.17,38.89-1.46,31.94-9.05,42-25.1,43.7-54.59.91-15.69.52-31.59,6.31-46.63.56-1.47,1.07-3,1.74-4.39.55-1.17,1-2.71,2.69-2.56,1.42.12,1.31,1.62,1.75,2.59,3.19,7,5.85,14,5.2,22.06a112.73,112.73,0,0,0,1.39,29c.13,3.38,0,6.79.44,10.12,1.62,12.33-1.29,23.43-9.86,32.41-18.57,19.47-42.16,28.07-68.49,29.19-22.07.93-44-.59-66-3.44-24.44-3.16-48.35,2.39-72,8.86-20.31,5.56-40.82,9.75-61.61,1.79-.63-.24-1.28.15-1.31,1.52,4.41,2.13,8.93,4.41,14.15,5a115,115,0,0,0,44.6-4.34c23.71-6.92,47.63-12.82,72.43-10.21,20.42,2.15,40.74,3.91,61.29,3.85a121.54,121.54,0,0,0,61.28-16.16c24-13.75,33.27-33.75,26.57-58.55.37-9.51-2.53-18.93.15-28.79,2.11,6.92,4.26,13.83,6.3,20.78,5.31,18.09,8.62,36.61,11.91,55.15a9.92,9.92,0,0,1-1.07,7.13l0,0c-2.66.09-4.53,1.8-6.59,3.16-23.38,15.31-48.38,27.15-75.77,33-18.75,4-37.37,8.19-55.14,15.44-16.46,6.7-32.79,12.4-50.84,5.64-4.52-1.7-9.37.34-13.4,3.18-5.68,4-5.49,7.81.56,11.21,4.14,2.32,8.42,4.79,13.17,5,14.73.74,24.5,9.61,33,20.07,15.62,19.19,35.69,31.38,58.84,39.06,17.75,5.88,36.46,7.8,54.35,13.24,8.58,2.61,16.42,7.46,25.55,8.27l0,0c1.67,4.38,5.69,4.74,9.45,5.55-1.75,6.49-3.73,12.94-5.16,19.51-.83,3.78-2.16,2.94-4.49,1.44-3.76-2.42-7.37-5.21-11.89-6.22-16.09-10.13-34.1-13.42-52.66-14.78-14.58-1.08-28.55,3-42.78,4.86-13.78,1.86-27.09,1.12-38.48-8.19a141.77,141.77,0,0,1-12.67-11.16c-15-15.58-33.36-25.71-52.76-34.65-23.91-11-48.23-21.53-67.55-40.37-1.61-1.56-3.47-4.08-6.61-3.58.07,2.52,1.7,3.58,3,4.71,18.79,16.09,39.42,29.44,62.27,38.85,24.26,10,46.54,22.49,64.68,41.89,7.12,7.62,15.93,13.78,26.57,15.17,11.39,1.5,22.94,1.51,34.22-1.61,8.53-2.35,17.35-3,26-3.07,19.45-.19,37.78,5.09,55.33,13.23,2.55,1.46,4.95,3.32,7.67,4.29,7.57,2.69,8.39,7.65,5.7,14.36-2.09,5.23-3.88,10.58-5.69,15.92-1.3,3.85-3.45,4.24-6.6,2-4.8-3.36-9.49-6.93-14.52-9.91-17.53-10.39-36.74-12.8-56.14-8.38-36.84,8.38-68.62-.75-96.6-25.14-29.95-26.1-64.78-44.06-100.55-60.44-15.58-7.14-31.31-14-46.9-21.07-15-6.86-31.94-.1-37.41,16.78-2.7,8.34-4.65,16.92-6.93,25.4-2.06,7.63-4.22,15.24-8.27,22.11-9.88,16.7-24.59,21.11-42,12.67-13.8-6.68-27.48-13.62-41.39-20.06-24.17-11.2-49.51-14-75.89-10.8-25.72,3.13-50.5,9.28-73.75,20.73a159.39,159.39,0,0,0-40.22,28.31c-18.39,17.64-35.72,36.43-55.89,52.15-18,14-38.1,23.95-59.87,30.61-10.55,3.22-21.15,6.27-31.69,9.56-1.57.49-4.73.22-3.63,3.45.94,2.73,3,1.11,4.56.58,18.71-6.49,38.31-10.12,56.44-18.58,16.92-7.89,32.57-17.59,46.36-30,13.4-12.09,26.62-24.46,39.09-37.49,27.22-28.46,60.56-44.73,98.82-52.16,22.32-4.33,44.58-6.14,67-1.4,16.5,3.48,31.58,10.56,46.46,18.17,7.62,3.9,15.19,7.9,22.89,11.63,21.54,10.42,40,.18,49.47-20.62,5.43-12,7.31-25,11-37.54,2.39-8,5.43-15.72,14.18-19.55,5.31-2.32,10.3-2.83,15.7-1,11,3.67,21.23,8.87,31.63,13.76,32,15,64.86,28.72,93.66,49.84,11.09,8.13,21.91,16.62,32.8,25,25.11,19.34,52.82,27.08,84.41,20.47,18.45-3.86,37-4.26,54.94,3.57,8.17,3.57,14.65,9.67,22.06,14.36,2.37,1.5,2.32,4,1.4,6.07-7.36,16.69-13.84,33.82-24.13,49.07-1.52-2.67-3.28-5.07-6.4-6.05a9.15,9.15,0,0,0-.64-2.62c-12.92-21.51-30.75-36.14-56.14-40.51a256.13,256.13,0,0,1-32.82-7.68c-36.27-11.31-69-29.81-101.33-49.21-18.55-11.14-36.82-22.78-58-28.8-18.23-5.19-36,.17-47.72,15-10.63,13.45-21.56,26.6-34,38.46-16.43,15.63-34,17.81-53.65,6.68-2.83-1.61-5-4.93-9.39-4.94,15.86,16.78,38,20.88,56.83,6.84,14.38-10.71,25.86-24.4,36.73-38.56s23.83-24,43-21.81c10,1.15,19.17,4.9,28.14,9.15,23.29,11,44.21,26.16,66.77,38.47,31,16.91,62.62,32,97.8,38,20.36,3.46,38.61,10.67,51.81,27.55,3.87,5,8,9.68,12,14.51.81,3.53,4.12,5.16,6,7.9-3.54,6-7.27,11.94-10.56,18.09-2.28,4.26-3.71,3-6,0-6.88-9.18-13.53-18.61-21.13-27.19-13.3-15-30.44-24.41-49-31.53q-55-21.07-111.55-37.18a158.52,158.52,0,0,1-33.62-14.11c-27.63-15.31-50-9.2-72,9.78q-15.09,13-30.55,25.63c-27.74,22.53-55.59,16.58-79.65-5.49-8-7.3-14.68-15.93-22.46-23.44C455.71,602,436,594,413.07,593.45c-22.31-.48-44.14,1.55-64.88,10.39-23.27,9.92-40.61,26.55-52.78,48.48-7.54,13.59-14.71,27.43-21.33,41.49-5.41,11.5-14.5,18.74-25.11,24.59-12.44,6.86-25,13.52-37.56,20.18-10.3,5.46-18.3,13.06-22.88,24a13.13,13.13,0,0,0-1.27,3.12c-.26,2.11-1.63,5.17,1.07,6s2.5-2.5,3.09-4.22c3.85-11.34,11.8-19,22-24.56,12.66-6.91,25.12-14.23,38.05-20.59,15.52-7.63,24.39-20.59,31.82-35.43,8.06-16.11,14.76-33,26.12-47.32,17.52-22.12,40.4-34.77,68-39.19,19.45-3.11,38.87-4.3,58.23,1.14,15.73,4.42,28.1,13.79,39.21,25.27,8.6,8.89,15.81,19.08,26.22,26.26,26.45,18.26,54,16.63,79.36-5,11.33-9.64,22.49-19.49,34.23-28.6,17.63-13.68,36.86-16.68,56.76-5.27,25.81,14.8,54.89,20.12,82.55,29.57,31.54,10.78,63.67,20.15,92.77,37,15.57,9,26.24,23.11,36.89,37.13.54.72,1,1.51,1.54,2.22,2.41,3.11,7.39,7,6.74,9.16a24.62,24.62,0,0,1-9.5,13.47c-2.59-5.42-6.12-10-11.59-12.73,3.94,4.17,5.1,10.93,11.64,12.68-4.35,10-12.24,17.42-18.64,25.91-2.51,3.33-4.58,7.24-8.51,9.35h0c-.29-9.27-3.39-17.62-8.41-25.32a118.66,118.66,0,0,0-30.23-31.52c-25.72-18.65-52.81-28.66-84.79-16.75-12.14,4.52-24.88,7.28-38.38,4.72a342.88,342.88,0,0,1-35.35-8.75c-18-5.41-35.54-5-52.63,3.23S573,722.69,557,732.87c-14.72,9.4-29.78,17.59-47.08,21.44-10.24,2.28-20.61,1.7-30.86,3.11a131.66,131.66,0,0,1-22.89,1.05c-20.14-.79-39.55-5.78-58.79-11.41-17.32-5.07-34.82-6.43-51.5,1.35-35.48,16.55-65.38,39.79-85,74.55a83.5,83.5,0,0,0-4.43,9.13c-.73,1.73-.7,3.84,1.39,4.65,2.47,1,2.14-1.63,2.78-2.81,2.28-4.15,4.31-8.44,6.69-12.53,14.82-25.43,36.61-43.42,61.13-59,21.87-13.91,44.38-18.52,69.42-10.86,19.58,6,39.32,11.7,60.11,11.35,9.23-.15,18.44-.87,27.66-1.34,18.39-.93,36.14-4.31,52.74-12.82,18.54-9.49,35.2-21.92,52.79-32.9,17-10.63,34.89-18,55.53-13.82,6.15,1.25,12.18,3.16,18.21,5,19.37,5.84,38.79,10.21,59,4.18,11-3.27,21.88-7.14,33.45-7.76,19.24-1,35.73,7.14,51,17.3,20.19,13.44,37.88,29.36,42.18,55.21a4.09,4.09,0,0,0,2.08,3.32l.1.14c-.67,3.77-3.39,6.25-5.82,8.82-36.88,39-79,71.17-127,95.24a438.74,438.74,0,0,1-125.34,40.84C584.4,926,574.13,927.16,563.91,928.59ZM242.41,482.23l-1.36,1.35L239.7,485l-1.54,2.59a3.41,3.41,0,0,0-3.26,2.76c-.16.77.31,1.32,1.12,1.1,1.73-.46,2.25-1.93,2.61-3.47.48-.88,1-1.75,1.42-2.64.45-.44.91-.89,1.36-1.35s.91-.9,1.36-1.36l.53-.86ZM267,618l.65-.7-.79.55-1.38,1.31c-3.16,1-5.51,2.73-6.62,7.12,3.79-1.89,6.16-3.57,6.83-6.91C266.15,619,266.59,618.5,267,618Zm4.05-2.73,1.39-1.31,1.37-1.35c3.76-1.21,6.06-3.86,8.49-8.62-4.75,2.4-7.63,4.46-8.76,8.35l-1.36,1.35-1.3,1.41c-.2.24-.41.47-.61.7ZM83.82,531.08l-1,1.37.71.54c.21-.55.41-1.09.61-1.64l.56-.79ZM915.17,290c.35-.48.73-.95,1-1.46,0-.05-.44-.38-.68-.59-.24.55-.49,1.09-.72,1.64a3.08,3.08,0,0,0-1.16.23c-10.38,10.73-15.11,24.31-18.87,38.26-3.33,12.35-4.83,25.13-9.09,37.3-1.67,4.78-5.5,8.44-6.94,13.73,3.6-.51,4.41-3,5.62-5.08A70.45,70.45,0,0,0,892,353.25c4.75-21.74,8.44-43.88,22.84-62.08A3.69,3.69,0,0,0,915.17,290ZM213,524.68c.69-.2,2.05-.18,1.43-1.19-.5-.84-1.37.09-1.85.77l-1.35,1.33a4.71,4.71,0,0,0-4.09,4.07c-7.23,2.35-13.57,6.83-21.17,8.39-12.6,2.59-25.34,3.39-38.13,4.08-16.39.9-32.14,4-45.2,15-5.92,5-11.34,10.37-14.43,18,2.93.36,3.3-1.45,4.14-2.67,10.57-15.27,24.84-24.57,43.45-26.58,13.82-1.49,27.76-2.14,41.52-4.1,10.82-1.54,21.83-3.53,30.12-11.89a4.55,4.55,0,0,0,4.21-4Zm231.73,390-1.33-1.35c-1.78-1.69-3.32-3.76-5.37-5-14.85-8.92-31.21-10.67-48.05-9.49-2.31.16-5.41.28-7.2,3.67a27.13,27.13,0,0,0,5.08,0c13.59-2.88,26.61-.65,39.65,3.51,5.69,1.81,9.5,6.86,15.48,7.76l1.35,1.33c.44.7.88,1.4,1.33,2.1l.84-.62Zm202-610c-.41-2.51-2.14-4-4-5.43a23.59,23.59,0,0,0-1.91-3.5c-11.6-14.82-27.59-16.26-44.18-13.15-30.22,5.68-52.72,23.49-70.45,47.77-10.12,13.85-19.94,27.94-33.28,39-25.86,21.37-57.13,33.41-86.29,49-24.76,13.23-52.85,11.54-79.88,13.82-19.55,1.66-38.63-2.16-57.31-7.45-17.11-4.84-33.87-11-51-15.89-13.78-4-27.82-3.72-40.9,2.6-14.61,7.06-20,20.9-23,35.55-4.28,20.48-14.51,34.72-35.87,40.25-13.83,3.59-26.13,11-37,20.38-1.17,1-2.46,2.11-.68,4.23a91.88,91.88,0,0,1,39-22.17c22.27-6.12,33.23-21,37.43-43,5.87-30.72,23.93-38.7,50.44-36.85,12.89.9,24.81,6.26,36.91,10.56,24.51,8.71,49.45,15.14,75.79,14.78,13.1-.18,26.06-2.2,39-2.52,19.92-.5,38.17-6.08,55.62-14.9,14.5-7.32,28.49-15.66,43.14-22.64,27.39-13.07,49-32.42,66.12-57.32,16.62-24.23,37.27-43.43,66.78-50.85,17.67-4.43,34.49-5.12,47.66,10.67.81,1,2.21,1.44,3.34,2.14.28,2.65,1.23,4.79,4.15,5.4.12,2.73,1.2,4.75,4,5.45a21.62,21.62,0,0,0,10.24,12.69c-2.77-4.78-5.34-9.68-9.82-13.13C650.34,307.58,648.67,306,646.73,304.65ZM367.41,515.05c3.36-2.84,5.06-5.9,1.3-9.7-.44-.46-.87-.93-1.31-1.4-.61-.64-1.11-1.67-1.84-1.87-12.85-3.5-25.39-8.33-39.28-4.08-12.27,3.75-24.71,6.65-33.71,16.76-8.58,6.81-13.71,16.08-17.85,25.86-3.4,8-.74,11.36,8,10.81a30.38,30.38,0,0,0,7.21-1.52c19.76-6.29,38.82-14.38,57.82-22.59,6.55-2.83,13.8-4.56,18.27-10.9Zm-41-428.7c-3.08,1-5.24,2.9-6.84,7,4.1-1.39,6.2-3.32,7.29-6.43,3.14-.41,5.37-1.76,6.45-5.62C329.58,82.13,328.1,84.35,326.44,86.35ZM504.08,383.27c-4.17,1.07-7.29,3.32-9.66,8.56,5-2.26,7.49-5.22,9.9-8.32l1.35-1.33c6.62-2.74,10.08-8.82,14.2-14,7.29-9.19,14-18.85,21.36-28.89-4-.29-4.72,2.12-6,3.79-6.74,9-13.62,17.86-20.14,27-3,4.19-8.06,6.61-9.69,11.86Zm153.24,64c.74,1.1,1.49,2.26,3.07,2.08a1.13,1.13,0,0,0,.57-.91c-.54-1.64-2.08-1.3-3.32-1.56a14.39,14.39,0,0,0-8.11-8.15c-6.66-12.47-13.07-25.1-20.08-37.37-5.14-9-9.15-18.57-15.22-27.09-14.3-20.11-31.26-21.74-48.35-4.27a70.52,70.52,0,0,0-12.44,16.77c-10.47,20.2-25.67,35-47.35,42.87-23.72,8.6-47.58,16.74-71.49,24.76-15.33,5.14-31,7.29-47.05,7.7-14.4.36-28.78-.13-43.22,1-26.21,2.11-52.41,4.19-78.5,7.3-5.87.7-12.18,1.47-16.65,6.38-1.28.3-2.63.53-3,2.06,0,.16.5.68.79.69,1.63.1,2.26-1,2.62-2.37,15.73-6.3,32.6-6.55,49-8,30.47-2.73,61-5.6,91.7-4.56a104.42,104.42,0,0,0,29.36-3.6c30.82-7.91,60.38-19.57,90.22-30.36,20-7.22,34.29-21.13,44.1-39.8A83.64,83.64,0,0,1,571.75,368c10.38-9.5,21.3-10.26,31-2,5.33,4.54,10.1,9.64,13.43,15.95q11,21,22.23,41.8c3,5.53,5.86,11.18,10.76,15.4A13.33,13.33,0,0,0,657.32,447.27ZM297.78,116.07A20,20,0,0,0,288,126.53c4.43-2.36,8.2-5.36,10.3-10,3.36-3,6.88-6,8.45-10.39C302.78,108.63,298.61,110.94,297.78,116.07ZM247.63,793.89C239.8,799.57,236.15,808,231.76,816l1.5,1,14.87-22.68c3.05-2.87,6.73-5.16,8.3-9.35,1.07-.28,2.36-.27,3.18-.89q17.73-13.37,35.3-26.91c.93-.71,2.36-1.67.51-3.61-13.17,10.29-27.22,19.46-39.47,31C251.75,786.39,248.57,789.15,247.63,793.89Zm615.54-74c.5,3.83,2.69,6.16,7.12,8.15-1.42-4.52-4.2-6.4-6.63-8.56-4.91-7.66-10.65-14.55-18.57-19.38C851.2,706.64,855.24,715,863.17,719.9ZM447,677.8c.25,3.26,1.58,5.5,6.16,4.71l-5.79-5c-5.8-12.85-3.12-28.39-13-40,4.93,9.69,5.52,20.36,7.63,30.69C442.74,671.67,442.81,675.94,447,677.8ZM363.19,803.69c4.3-5.44,2.86-10.49-3.39-13.14-8.32-3.53-14.24,1.48-20.31,5.52C335,799,335,804.65,339,808.19c5.69,5.11,20.29,2.38,24.26-4.54ZM338.74,440.8,309,441.87a252.3,252.3,0,0,1-45.49-5.34c-16.69-3.69-33.33-7.84-50.66-7.06a21.34,21.34,0,0,0-13,4.61c4.38.42,8-2.07,12.41-2.11a154.72,154.72,0,0,1,35.47,4c20.21,4.57,40.46,8.61,61.33,8.06,9.88-1.33,19.83-.69,29.74-1.1,37.2,1.16,76.76-6.77,86.08-17.82-11.25,4-21.31,9.08-32.39,11.24C374.71,439.82,356.72,440.23,338.74,440.8ZM542.36,336.18c6.54-2.92,10-9.51,16-13.18,13.47-8.23,27.09-14.69,43.77-11.74,8.57,1.51,15.89,5.26,24,10.16-.7-4-2.9-5.11-5-6.17-11.46-5.79-23.25-9.52-36.35-6.42-17.38,4.12-32.4,11.83-42.73,27l-.52.87ZM686.2,349.26c-6.57-9.27-15.52-16.11-23.87-23.57,6.85,8.94,13.8,17.78,23.39,24,2.64,3.79,6.46,6.28,10.1,8.92,25.29,18.38,52.75,30.67,84.7,31.83,14.55.52,29,3.43,43.54,4.74,14,1.26,28,1.11,41.37-4.08,5.59-2.17,6.76-3.18,9.83-9.14-16.62,12.59-34.67,12.1-52.31,10.37-14.73-1.45-29.49-3.78-44.23-4.5-28.83-1.4-53.66-12.28-76.94-28.25C696.66,356.07,692.49,351,686.2,349.26ZM834.91,692.65c2.1,2.19,3.57,5.39,7.88,5-2-3.16-4.14-5.19-7.56-5.36-.91-2.93-3.63-3.95-5.91-5.19C795,668.48,759.14,655.5,719.26,657.42c-20,1-39.37-2.14-58.5-8.36-11.62-3.78-23.68-7.65-36.36-3.94-7.9,2.3-14.85,6.36-21.78,10.66-14.73,9.15-28.56,19.83-44.39,27.11-26.38,12.12-54.31,8.19-81.91,7.43-7.52-.21-14.19-4.18-21.59-4.92,5.84,4.15,12.48,5.93,19.32,7.06,16.82,2.8,33.78,1.26,50.66,1.23a83.27,83.27,0,0,0,35.88-8.37c16.77-8,31.39-19.45,47-29.29,12.54-7.9,25.25-11.77,40.32-7.5,10.16,2.87,20.25,6.12,30.54,8.53,18.56,4.36,37.51,4.52,56.44,4.13a132,132,0,0,1,46.37,7.66A351.5,351.5,0,0,1,834.91,692.65ZM483.74,863.48c.78,1.07,1.54,2.23,3.1,2,.24,0,.66-.66.58-.89-.51-1.65-2.08-1.29-3.29-1.62-.42-2.64-2.7-3.38-4.6-4.56-11.69-7.32-22.91-15.24-32.23-25.54-10-11-11.83-22.75-4.35-30.77,5-5.39,11.81-8.22,18.77-10.33,12.29-3.73,24.92-6,37.5-8.49,22.1-4.32,44.44-7.86,63.95-20.37,13.66-8.76,27.29-17.59,41.15-26,12.3-7.5,25.59-10.69,40.07-7.9,12.07,2.32,23.36,6.8,34.31,12.13,23.21,11.27,46.24,13.15,70.12,1.41,17.12-8.41,35.36-4.14,47.44,9.45,5.72,6.44,6.94,14.7,2.43,19.56a143,143,0,0,1-14.2,13.52c-5.53,4.53-12.15,8.13-15,15.39,9.35-7.23,18.47-14.73,27.07-22.77,10.12-9.45,10.11-18.55.64-28.67-13.63-14.56-33.61-17.34-54.85-7.38-13.36,6.27-27,7.25-41.38,4.12-12-2.62-22.91-8.08-34.15-12.67-18-7.33-36.07-12-55-3.84-13.74,5.94-25.83,14.83-38,23.32-19.48,13.62-40.85,21.52-64.07,25.52-18.84,3.24-37.69,6.68-55.76,13.22-19.13,6.93-24.34,21.89-12.62,38.3C452.22,844.8,467.46,854.9,483.74,863.48ZM95.66,602.31c1.38-2.76,2.51-4.94,3.58-7.16,12.69-26.38,34-34.87,62.79-33.09,21.2,1.31,41.91.63,60.05-13.07,10.25-7.75,18.32-17.33,25.79-27.48,9.71-13.2,19.66-25.82,35.94-31.56a190.88,190.88,0,0,1,70.84-10.52c15.3.52,30.62.9,45.79,3,5.84.82,11.64,1.67,17.48,1a182.29,182.29,0,0,0,44.34-11.19c12.63-4.79,25.71-8.29,39.52-6.18,6.56,1,12.33,3.34,14.36,10.45,5.71,20-8.91,43.95-29.22,47.5a56.41,56.41,0,0,1-18.19-.26c-17.06-2.6-34-3.2-50.75,2.44-11.51,3.87-23.31,6.93-34.91,10.56-21.49,6.72-43.36,12.38-63.65,22.53-18.07,9-33.68,21.69-49.75,33.68-24.56,18.31-47.92,38.28-73.86,54.68-22,13.91-46.23,18.09-71.91,14.23-2-.3-5-2-5.65,1.24-.56,2.85,2.3,3.2,4.64,3.58,26.51,4.21,51.46-.83,73.89-15,29.17-18.4,55.82-40.4,83.22-61.3,18.16-13.86,36.38-27.41,58.27-35,22.8-7.87,46.13-14,69-21.48,22.14-7.23,44.1-8.66,67-5.23,16.63,2.48,32.1-4.3,39.62-18.46a65.81,65.81,0,0,0,6.37-19.85c4-23.44-9.93-29.9-26-29.71-11.91.14-23.1,3.53-34.19,7.32-17.54,6-35.14,11.94-54,10.21-12.78-1.16-25.62-1.72-38.35-3-26.2-2.58-51.7.61-76.85,7.32-13.73,3.67-25.87,10.74-35.19,21.69-7.44,8.74-14,18.24-21.4,27-18,21.3-40.83,29.42-68.66,26.36-29.09-3.21-54.78,4.92-70.18,34.53C93.78,595.5,93.2,598.45,95.66,602.31Zm72-388.33c-1.93,4.75.48,8.05,2,11.19,11.52,23.54,20.8,48,29.39,72.67,5,14.48,9.71,29.31,19.4,41.49A234.8,234.8,0,0,0,262,381.71c35.95,26.75,76.92,27.39,113.22,2.62,9-6.15,16.09-14.43,22.91-22.86,13.26-16.39,31.55-25,50.38-32.91,38.16-16.06,58.43-46.93,58.46-88.23,0-18.93-4.22-37.66-2.77-56.66,1.42-18.66,8.56-34.59,23.77-45.89,17.91-13.29,36.29-25.95,54.5-38.84,5.49-3.9,10.64-8.32,17.41-10.17,9.14-2.49,14.89-.12,18.42,8.6q5.07,12.52,9.41,25.34c4.19,12.35,9.85,23.46,23.17,28.11,8.08,2.81,16.26,5.4,24.53,7.55,29.34,7.64,47.34,30.94,47.18,61.28,0,9.69-3.75,18.47-6.42,27.5-4.7,15.92-8.33,31.81-2.4,48.28,8.4,23.3,26.33,37.76,46.58,49.83,14.68,8.76,31.35,11.18,48,12.08,10.9.59,21.29-3.14,31-8.11,1.06-.54,2.58-1.22,1.64-3.22a5,5,0,0,0-1.8.23c-21.53,11.64-43.67,9.25-65.56,1.92-20.08-6.72-35.51-20.43-48.38-36.76-7.69-9.75-11-21.29-11.23-34-.19-14.13,4.26-27.05,8.23-40.16,10.08-33.25-5-65.61-37.13-78.4-10.24-4.07-20.93-7-31.46-10.31-10.18-3.22-17-9.75-20.59-19.84s-7.07-20-11-29.81c-6.64-16.7-17.6-17.74-32.1-8.6-20.37,12.83-39.53,27.58-59.28,41.4-12.85,9-21.78,20.67-26.26,35.8-5.54,18.71-3.08,37.61-1.07,56.36,2.16,20.18.34,39.63-8.11,58.11C484.74,305,466,319.1,442.72,327.79c-16.93,6.31-32.09,15-44.29,28.83-6.81,7.73-13.19,16-21.63,22.28-24.93,18.6-52.57,24.79-82.34,16-30-8.89-50.64-31.16-70.93-53.46a78.7,78.7,0,0,1-14.34-23.59c-3.65-9-7.08-18.06-10-27.29C190.88,264.38,179,239.72,167.64,214Zm403.1,696.65a58.88,58.88,0,0,0,0,6.09c.21,2-1.5,5.28,1.74,5.62,3,.3,3.05-3.25,3.15-5.14.76-15.31-1-30.27-9.17-43.62-8.29-13.56-21.69-19.71-36.42-23.8C517.71,846.34,505.14,843.2,496,833c-6.52-7.28-5.63-13.36,2.83-18a56.45,56.45,0,0,1,17.21-5.89c18.16-3.28,36.35-6.38,53.54-13.52,13.55-5.63,25.7-14,39.42-19.42,13.18-5.17,25.13-4.83,37.24,3.11,24.07,15.79,42.36,36.92,57.81,60.75a313.62,313.62,0,0,1,17.72,31.16c.93,1.87,1.7,5.24,4.47,3.93,3.59-1.71.45-4.35-.5-6.16q-6-11.38-12.45-22.48c-16.24-27.77-36.18-52.23-63.53-69.88-7.61-4.91-15.57-8.89-25.23-8.32-14.49.86-27,7.13-39.06,14.12-16.23,9.43-33.5,15.31-51.81,18.77-12.12,2.29-24.55,3.41-35.85,9.09-13.29,6.68-14.95,16.27-4.39,26.73,9.5,9.41,21.77,13.31,34.2,16.82,9.6,2.72,19,6,26.62,12.71C567.63,878.2,570.38,894,570.74,910.63ZM870.53,755.92c1.16-1.59.11-2.41-.43-3.31-14.58-24.29-34-43.76-58.74-57.57-26.41-14.75-54.15-23.64-84.83-15.95a116.56,116.56,0,0,1-25.3,3.8c-14.14.36-27.63-3.16-40.94-7.66-21.93-7.42-42.5-5.49-62.79,6.82s-41.07,24.5-63.08,34c-32.9,14.19-66.34,18.61-101.12,6.54-17.79-6.17-34.23-15.12-51.27-22.83-9.92-4.49-18.25-2.93-26.25,3.7q-27.33,22.62-54.66,45.25c-1.18,1-3.25,1.87-2.32,4.17,2.05.49,2.88-1.13,4-2.08,18.23-15.07,36.4-30.22,54.68-45.23,9.42-7.73,15.94-8.08,26.59-1.87a226.36,226.36,0,0,0,29.69,14.71c18,7.27,36.35,13.71,55.93,14.58,22.21,1,43.28-4.67,63.67-13.08C555,711,574.5,698.34,594.91,687.28c8.89-4.82,17.63-10.06,27.69-12.46,14.29-3.41,27.69.09,41,4.56,19.6,6.57,39.42,8.81,59.8,3.77,14.72-3.65,29.58-5.68,44.66-1.88,40.9,10.3,73.39,32.55,96.72,67.89C866.42,751.58,867.28,754.84,870.53,755.92ZM302.75,587.35c4.11.48,5.65-1.33,7.48-2.48a262.63,262.63,0,0,1,23.66-13c21.22-10.44,43.8-16.22,67-20.07,12.86-2.13,25.7-5.65,38.79-4,19.81,2.49,39.49,6.08,59.28,8.8,6.63.91,13.36,3,20.11,1.36,11.78-2.8,17.88-11.48,21.73-22.14,5.19-14.39,8.52-29.52,16.42-42.84,11.44-19.31,27.34-31.4,50.92-30.91,18.57.39,31.61,10.31,42.42,24.2,1.68,2.16,3,4.76,6.57,5.55-.76-4.34-3.88-6.25-5.82-8.82-16.08-21.27-39.78-29.21-63.34-20.86-18.69,6.62-30.2,20.86-37.5,38.58-5.05,12.26-8.76,25.07-13.61,37.42-3.58,9.11-10,15.42-20.42,16.43-12,1.16-23.54-2.29-35.29-3.68-14.71-1.73-29.22-6.35-44-5.83A270.55,270.55,0,0,0,334,569,150.36,150.36,0,0,0,302.75,587.35Zm194.88,25.06,1-1.24a12.33,12.33,0,0,0-1.46-2.13c-20.92-19.43-45.42-30.57-74.14-31.61-10.6-.38-21.09,1.36-31.6,2.53-23.81,2.64-46.4,8.79-66.52,22.43-21,14.27-37.15,33.32-52.44,53.24s-33,36.69-56.84,46.59c-15.4,6.4-31,12.24-46.27,19-4.74,2.11-10,3.68-12.86,8.73,6-2.22,11.68-5.14,17.53-7.62,17.22-7.3,34.78-13.88,51.73-21.76,22.75-10.58,38.31-29.41,53.36-48.72,12.63-16.21,26.22-31.56,42.82-44,28.28-21.14,61.49-26.08,95.2-27.57,25.75-1.15,49.19,7.5,69.65,23.52C490.44,606.69,494,609.56,497.63,612.41ZM433,635.06a22.6,22.6,0,0,0-9.6-10.11c-14.1-8.21-29.49-9.28-45.18-8.34-30.46,1.81-58.88,22.41-63.94,56.48-1.72,11.54-3.43,23.18-7.89,34.1-6.84,16.79-20.27,27.2-35.22,36.16-22.53,13.5-42.35,29.88-55.79,53-.73,1.25-2.17,2.55-.16,4,.44-.19,1-.24,1.19-.53,14-23.73,34-41.06,57.67-54.8,18-10.44,32.72-24.18,38-45.43a195.17,195.17,0,0,0,4.76-23.1c5-40.88,40.89-63,82.85-56.48C412.11,621.85,423.65,625.92,433,635.06Zm-277.83-55c-1.81,0-3.61,0-5.42,0-17.78.47-33.92,18.09-31.7,35.33,2.72,21,18.09,28.36,38.45,26.16,19.13-2.06,32.27-13.82,42.13-29.63,5.57-8.94,4-15.54-5-21.07A72.66,72.66,0,0,0,155.19,580.09ZM474.62,886.34c.37-1.1.73-2.21,1.1-3.31-26-19.39-54.05-34.35-87.4-35.58-25.55-.94-70.88,12.88-77.4,22.49C368.7,842.32,423.68,842.24,474.62,886.34Zm217,6.07c2-4.06-.15-5-1.45-6.3-8.23-8.36-16.48-16.72-24.9-24.88A62,62,0,0,0,650,850.13c-17.89-9-33.27-2.74-39.41,16.28-4.88,15.11-3.19,30.78-3.17,46.28,0,1.32.06,3.21,1.76,3.08,2.74-.2,1.09-2.27,1-3.62-.52-14.63-1.19-29.29,2.52-43.65,1.49-5.77,4.31-10.94,9.19-14.57,10.38-7.71,21.22-6.81,33.36,2.49,9.89,7.59,18.12,16.91,26.91,25.65C685.47,885.35,688.46,889,691.58,892.41Zm-342.8-5.82.66,2.49c4-1.85,7.82-4.11,12-5.48,19.58-6.49,39.85-6.36,59.41-1.85,21.56,5,40.49,15.46,50.29,37.27.44,1,.81,2.18,3.27,1.93-7.18-21.24-23.72-32-43-38.45C403.4,873.13,375.38,871.66,348.78,886.59ZM199.25,435.46c-4-.11-4.87,1-5.85,1.91-8.62,8-11.44,18.71-13.12,29.67-3,19.8-12.84,33.33-33.09,37.85-5.69,1.28-11.44,2.33-17.2,3.25-12,1.91-23.59,4.74-33.27,12.75,7-2.15,13.4-5.8,20.57-7.3,11-2.31,22.06-4.21,32.94-6.91,15.33-3.81,26.07-12.87,30.17-28.67,1-3.9,1.93-7.85,2.66-11.82C185.14,454.81,188.42,444,199.25,435.46Zm42,203.32c-17.43,12.8-33.81,24.49-52.35,32.57s-39.23,7.81-59.24,14.24C154.23,691.13,231.32,659.19,241.25,638.78ZM268,143.39c-14.3,6-82.82,49.34-84.71,53.39C212.51,179.33,242.43,164.83,268,143.39ZM427.41,423.93l1.08,1.85c20.1-10,41.49-17.51,59.87-31Zm341,379.1c-10.57,6.12-17,42.27-9.63,55.13C760,838.77,755.72,819.39,768.38,803ZM520.56,885.78c12.51,10.82,14,23.62,6.71,38.12C538.84,912,535.59,893.88,520.56,885.78ZM490,867a116.68,116.68,0,0,0,28.76,17C510.44,876.17,500.09,871.75,490,867ZM233.52,493.79c-7,8.29-10.55,18.8-17.21,27.42C225.34,514.21,229.5,504.11,233.52,493.79Zm263.53,429.9c3.46-10.51-2.08-25.37-11.55-29.06C493.75,903.6,496.42,913.24,497.05,923.69ZM243.34,639c4.35-3.28,9.87-5.25,12-11C251.14,631.52,245.44,633.18,243.34,639Zm33.11-502.33c5.16-2.88,5.16-2.88,5.63-6.48A9.09,9.09,0,0,0,276.45,136.68Zm224.7,477c1.54,4,3.32,5.78,7.4,6.94C507,616.84,505.16,615.11,501.15,613.7ZM310.05,102.42c2.27-1.35,5-2.38,5.59-6.84C312.31,97.58,310.11,98.94,310.05,102.42Zm174.12,788c-2.48-2.52-3.46-5.13-7-4.75C478.28,888.6,479.81,890.2,484.17,890.43Zm-214.3-748c2.61-1.57,5.05-1.85,4.44-5.53C272.09,137.84,270.24,138.68,269.87,142.41Zm21.38,453.47c-2.91,1.55-4.82,2.38-5,5.24C289.23,601,290.51,599.56,291.25,595.88ZM94.44,522.72c-.46-.17-1.15-.67-1.43-.49A4.9,4.9,0,0,0,91.23,524c-.39.77.24,1.28,1,1.14A2.54,2.54,0,0,0,94.44,522.72Zm201.91,71.14c.19-.91-.4-1.4-1.08-1.16a5,5,0,0,0-2,1.57c-.16.21.34,1.39.62,1.42C295.18,595.86,295.87,594.93,296.35,593.86Zm2.68-2.09a2.65,2.65,0,0,0,2.64-1.78,1.55,1.55,0,0,0-.73-1.31,2.3,2.3,0,0,0-2.38,1.69C298.41,590.73,298.87,591.34,299,591.77ZM492.94,393c-.19-.35-.34-.93-.56-1a1.3,1.3,0,0,0-1.09.46c-.38.68-.07,1.24.73,1.2C492.34,393.68,492.64,393.23,492.94,393ZM284.39,602.77l-.44-.38a6.5,6.5,0,0,0-.52.93c0,.06.27.24.42.37ZM317.5,95.24l.3.22.05-.33Z"/><path class="cls-2" d="M554.28,40.43c.81-1.44,1.83-2.76,3.65-2.57,7.37.78,14.77,1.41,22.08,2.59,5.14.83,2.07,4.14,1,6a160.26,160.26,0,0,1-19.08,26.21c-12.18,13.35-25.1,26-40.52,35.69-28,17.55-39.2,43.42-40.54,75.66-1,23,.41,46-2.43,68.9C476,271.9,465.77,285.71,450,296c-10.49,6.86-22.54,10.28-33.54,16-18.77,9.79-31.75,25.57-45,41.24-15.87,18.71-34.79,31.2-60.86,28.95-13.94-1.2-25.18-7.85-35.8-16.07-21.73-16.84-33.39-40.42-43.11-65.18-6.51-16.61-10.94-33.94-14.22-51.38-4.28-22.76,2.8-41.81,20.76-57.37,24.16-21,51.46-38.21,73-62.28,6.62-7.39,12.29-15.55,19.43-22.53a101.72,101.72,0,0,1,24.63-17.67c14.43-7.47,28.91-14.85,43.34-22.32,6.08-3.14,13.22-6.77,15.17-12.86,2.68-8.37,8.91-7.45,14.43-8.63a399.2,399.2,0,0,1,59.34-8.22c2.92-.17,5.9-.39,8.52,1.39,1.91,1.3,3.79.79,5.78.09,16.3-5.74,32.88-2.2,49.37-1.35,1.41.07,1.54,1.4,1.6,2.56-5.56,7.63-9.49,16.31-15.72,23.51C542.79,61.69,549.5,52.13,554.28,40.43ZM429.65,119.06a1.79,1.79,0,0,0-.22-.53c-.08-.09-.28-.06-.43-.09l.64.64a1.62,1.62,0,0,0,.25.51c.08.08.27,0,.41.08C430.09,119.46,429.87,119.26,429.65,119.06Zm4.05,2.74a2,2,0,0,0-.25-.48c-.08-.07-.25,0-.38-.07l.66.52.51.66c0-.13,0-.3-.06-.37A2,2,0,0,0,433.7,121.8Zm-73.47,7.84c-.24.25-.72.68-.68.73.58.81.82.11,1.12-.3l1.33-1.34c2-.45,3.56-1.18,3.47-3.72-2.67,0-3.44,1.51-3.85,3.34ZM326.8,208.76c.44-.48.87-1,1.29-1.45l1.37-1.32A33.24,33.24,0,0,0,343,192.38c2.95-2.63,6.61-4.74,6.86-9.36,3-.63,4.59-2.68,5.37-5.5,3.64-2.51,5.62-6.37,8-9.89,4.3-6.33,8.47-12.85,14.51-17.65,20.44-16.26,38.74-8.72,46.19,13.53,1.42,4.27,1.5,8.82,2,13.29,2.73,24.12-.25,47-13.86,67.76a22.38,22.38,0,0,0-1.71,4.31c-5.07,1.95-7.6,6.89-11.81,9.93-19.72,14.24-39.19,28.82-58.91,43.06-9.32,6.73-19.3,10.87-30.61,4.23l-1.36-1.34a9.76,9.76,0,0,0-1-2.47c-10.45-13.74-11.68-29.16-8.61-45.49,2.13-11.31,8-20.87,13.75-30.49,3-2.87,6.69-5.26,8.07-9.54.61-.61,1.21-1.23,1.81-1.84l-.85-.59-1.23,2.19c-4.37,1.7-7.34,4.65-8.28,9.38-.79.39-1.89.56-2.34,1.2-13.78,19.36-19.46,40.39-11.48,63.51,1.83,5.32,3.11,12,10,14.25l1.33,1.36c.46,3.68,3.5,4.41,6.26,5.24,8.27,2.48,15.49-.78,22.22-4.9,21.09-12.92,39.81-29.14,59.87-43.5,5.2-3.73,10.84-7.35,13.61-13.66a24.63,24.63,0,0,0,5.7-6.57c7.79-11.51,11.26-24.61,12.45-38.06,1.44-16.31,2.48-32.88-4.85-48.41-6.64-14.07-22.76-23.52-40-14.28-14.25,7.66-21.89,21.39-29.36,35a7.13,7.13,0,0,0-5.29,5.58c-3,2.65-6.54,4.84-6.93,9.38a34.79,34.79,0,0,0-13.4,13.69l-1.34,1.35-1.4,1.34-1.33,1.34c-.36.47-.72.93-1,1.42a6.44,6.44,0,0,0,.68.54c.22-.55.45-1.09.66-1.64ZM519,81c-1.94,0-3.74.25-4.06,2.71-1.25.17-2.75-.15-3.35,1.44-.08.21.32.88.54.9,1.56.14,2.3-1,3-2.12a4.77,4.77,0,0,0,4.08-2.72c1-.2,2.12-.38,2.11-1.79a.61.61,0,0,0-.44-.41C519.5,78.94,519.18,79.9,519,81Zm5.65-3.83c2.9-.62,4.62-2.5,6.75-6.06-4.26,1.2-6.36,2.66-7,5.8l-.56.78Zm-237.25,99a10,10,0,0,0,6.87-6.74l.54-.83-.86.51a10.06,10.06,0,0,0-6.89,6.66l-2.61,1.45c-3.1,1-5.21,2.91-6.89,7,4.11-1.49,6.26-3.37,7.26-6.54Zm49.88-19.29c-2.64,2.39-5.66,4.48-6.73,8.17-8.31,8.89-17.13,17.31-24.6,27-5.77.65-8.38,5.84-12.33,9-13.43,10.63-23,23.78-25.67,41.39-1.78,11.55-.81,22.89.47,34.27,2.1,18.65,7.84,36.08,19.69,50.93,7.53,9.44,17.22,15.08,29.91,13.89,8.45-.8,15.32-5.06,21.8-10,24.85-19,47.59-40.59,73.9-57.74,6.65-4.33,13.36-9.23,16.18-17.43,4.3-1.56,5.59-5.69,7.43-9.16,10-18.89,11.41-39.45,11.17-60.28q0-12.18,0-24.35c.51-10.33-2.68-19.67-7.41-28.63,3.15,9.31,3.7,19.18,6.16,28.61q-.06,12.18-.1,24.36c-1.95,2.35-.95,5.16-1.18,7.77-.7,8.24-.93,16.53-2.07,24.7-1.86,13.27-7.6,25.15-14.4,36.54-5.41,4.42-9.59,10.13-15.36,14.21-14.7,10.39-29.41,20.71-43.08,32.53-12.4,10.73-24.81,21.58-38.46,30.76-11.22,7.56-22.93,7.35-34.09-.32-9.71-6.67-14.83-16.74-19.25-27.15-6.45-15.16-7.73-31.18-8.71-47.48-1.12-18.66,3.75-34.44,16.69-47.94,6.09-6.36,13.72-11,19.2-18,6.79-3.51,11.49-9.46,16.17-15.09,3-3.63,7.93-6.33,8.31-11.92,3.83-1.39,6.24-4,6.8-8.11,2-.55,3.48-1.45,3.25-3.95C338.28,153.47,337.76,155.15,337.28,156.87Zm10.9-44.72c-5.3,2.49-8.68,6.76-11.33,11.73,4.77-2.91,9.18-6.16,11.67-11.33l2.59-1.48a59.63,59.63,0,0,0,6.38-3.66,79.89,79.89,0,0,1,27.77-13.48c13.9-3.63,27.77-7.35,41.56-11.41,13.3-3.91,22.21-17.76,19-30.48-.19.08-.51.11-.55.24a20.53,20.53,0,0,0-1,3.85c-1.32,15-10.48,22.34-24.3,25.92-14.55,3.76-29.12,7.72-43.26,12.75-9.53,3.39-19.55,6.87-25.83,15.92Zm-24.44,27.11c-3.68,3.6-7.58,7-11,10.85-4.88,5.46-11.42,9.42-14.75,16.28l-.58.77.82-.53c9.07-5.53,15.17-14.24,22.86-21.26,1.68-1.53,3.1-3.23,3.05-5.71,2.58-.8,4.48-2.14,4.69-5.45C325.6,134.91,324.42,136.85,323.74,139.26ZM392.22,308a71.8,71.8,0,0,0-12.73,9.66c-13.24,12.55-25,26.6-40,37.41-12.71,9.18-25.89,12.5-40.51,5.69a62.7,62.7,0,0,1-24.31-20c-16.74-22.74-23.91-49.12-29.58-76.18-2.93-14-5.7-27.61.72-41.45,5.54-12,14.41-21.11,23.53-30.19,2.43-2.42,5.53-4.36,6.23-8.37a122.48,122.48,0,0,0-16.54,15c-8.12,9.07-15.92,18.39-18.26,31-2.31,12.45-.8,24.64,1.8,36.79,5.73,26.79,12.66,53.29,30,75.29,18.6,23.66,45.63,35.87,75,9.87,12.37-10.95,23.32-23.25,35.31-34.53C385.73,315.44,389.94,314.05,392.22,308Zm1.55.12c16.41-10.8,33.8-20,49-32.32,10.75-8.72,16.88-20.14,19.57-33.77s2.33-27.31,3.61-40.95c2-21,2.48-42.21,4.5-63.24,1.22-12.81,4-25.52,14.71-34.54.82-.7,1.62-1.66.19-3-3.63,1.91-6.2,5-8.45,8.33-7.84,11.7-9.35,25.28-10.42,38.67-2.31,28.92-3.59,57.91-5.76,86.84-1.16,15.57-6.69,29.41-19.51,39.36A351.15,351.15,0,0,1,410.14,295C404.16,298.72,397.93,302.17,393.77,308.15Zm32.35-191.08c-14.36-9.14-41.09-7.92-50.27,2.4C392.86,112.59,409.26,109.79,426.12,117.07Zm-84.59,33.27,1.71,1.52q7.18-9.06,14.39-18.11l-1.37-1.13C349.91,137.32,346.43,144.43,341.53,150.34ZM488.6,99.27c7.51-2.74,14.46-6.45,20.33-12C502,91,494.23,93.3,488.6,99.27ZM329.45,132.71c4.88-3,4.88-3,5.42-6.7A9.47,9.47,0,0,0,329.45,132.71Zm37.73-8c3.36-1.35,5.28-2.45,7-5.6C370.81,120.08,368.43,120.53,367.18,124.67Z"/><path class="cls-2" d="M670.85,83.8a86.12,86.12,0,0,1,1.21-11.4c1.79-9.22,1.62-9.35,10-5.9,47.51,19.47,91.29,45,130.11,78.9,25.76,22.53,48.44,47.72,69.07,74.9,2.42,3.19,3.4,6.3,1.28,9.94-10,17.29-18.54,35.29-26.95,53.36-5.09,10.91-10.29,21.83-13.79,33.42l0,0a15.75,15.75,0,0,0-5.46,8.18l0,0a2.46,2.46,0,0,0-1.39,2.76l0-.05-1.4,1.4,0,0-1.39,1.39,0,0-1.4,1.4,0,0c-1.09.17-2.36,0-3.25.54-18,10.34-36.12,8.14-54.27.81-4.52-1.82-8.69-4.49-13-6.77l0,0c-4.2-4.4-8.47-8.72-12.58-13.2-11.89-12.93-17.26-27.54-12.19-45.21A244.75,244.75,0,0,1,745,242c3.95-9.57,9-19.39,6.73-29.89-8.64-39.85-26.57-73.19-66.27-90.57-7.15-3.13-11.39-9.08-13.39-16.87C670.25,97.71,671.55,90.73,670.85,83.8Zm143.95,232c3.71,0,5.88-1.92,6.79-5.42,2.93-1.7,4.31-4.59,5.47-7.53,9.88-24.93,19.8-49.86,27.59-75.53,4.75-15.66,2.63-30.44-8.11-43.25-11.2-13.36-25.5-22.69-41.29-29.68a37.34,37.34,0,0,0-15.87-2.8c-6.63.15-9.85,4.47-9.22,11.13.66,7,2.73,13.66,5,20.24,8,23,2.67,43.91-10.36,63.46-4.62,6.93-9.65,13.58-13.3,21.15-7.09,14.66-3.37,30.44,5.59,38.74,8.67,16.71,37.1,18.45,47.26,10.73C814.66,316.78,814.66,316.18,814.8,315.76Z"/><path class="cls-2" d="M961.08,425.47c1.06.37,2.35.75,2.39,2,.26,8.84,2.29,17.56,1.81,26.46a4.57,4.57,0,0,1-2.79,4.14,32.89,32.89,0,0,0-4.56.93c-22.06,7.75-43.06,18-64.52,27.17a46.28,46.28,0,0,0-17.21,12.76c-6.61,7.85-6.24,17.75.88,22.79l0,0q.5,7.68,8.17,8.17l0,0c1,5,5.64,6,9.19,7.82,12,6.06,25.06,9,38.3,11,8.16,2.23,16.31,4.5,24.5,6.66,2,.53,3.73.54,3.07,3.71-1.86,8.88-2.79,18-5.86,26.57-3.41-.25-5.94-3.35-9.55-2.94l0,0c-15.69-10-33.58-13.66-51.33-17.59-17.6-3.9-34.95-8.18-51-17-16.29-9-29.59-21-41-35.58-5.86-7.51-13.92-12.2-23.79-12.49-6.4-.18-11.61-3.29-17.09-5.88-3.31-1.56-3.12-3.4-.55-5.5A15.59,15.59,0,0,1,776.05,486c11.59,4.13,22.82,3.23,34.25-1,14.77-5.42,29.24-11.84,44.75-15.07,28.73-6,57-13.44,82.67-28.25,8.22-4.74,17.4-8.28,23.41-16.26Z"/><path class="cls-2" d="M962.48,459.44c2.92-.36,4,1,4,3.85.06,21.35.6,42.71-2.3,64-.94,6.89-1.44,13.83-2.1,20.75-.45,4.68-1.94,6.48-7.25,4.63-7.16-2.49-14.4-5.16-22.16-5.45-16.06-5.16-33-7.84-47.49-17.37l0,0a32,32,0,0,0-8.17-8.17l0,0c-6.77-16.36-.79-20.44,9.57-28.13S909.44,482.13,921.1,477C934.79,470.91,948.68,465.27,962.48,459.44Z"/><path class="cls-1" d="M931.36,604.26C913.81,596.12,895.48,590.84,876,591c-8.7.08-17.52.72-26,3.07-11.28,3.12-22.83,3.11-34.22,1.61-10.64-1.39-19.45-7.55-26.57-15.17-18.14-19.4-40.42-31.9-64.68-41.89-22.85-9.41-43.48-22.76-62.27-38.85-1.31-1.13-2.94-2.19-3-4.71,3.14-.5,5,2,6.61,3.58C685.16,517.51,709.48,528,733.39,539c19.4,8.94,37.79,19.07,52.76,34.65a141.77,141.77,0,0,0,12.67,11.16c11.39,9.31,24.7,10,38.48,8.19,14.23-1.91,28.2-5.94,42.78-4.86,18.56,1.36,36.57,4.65,52.66,14.78Z"/><path class="cls-1" d="M943.79,371.2c6.7,24.8-2.52,44.8-26.57,58.55a121.54,121.54,0,0,1-61.28,16.16c-20.55.06-40.87-1.7-61.29-3.85-24.8-2.61-48.72,3.29-72.43,10.21a115,115,0,0,1-44.6,4.34c-5.22-.56-9.74-2.84-14.15-5,0-1.37.68-1.76,1.31-1.52,20.79,8,41.3,3.77,61.61-1.79,23.6-6.47,47.51-12,72-8.86,22,2.85,44,4.37,66,3.44,26.33-1.12,49.92-9.72,68.49-29.19,8.57-9,11.48-20.08,9.86-32.41-.44-3.33-.31-6.74-.44-10.12Z"/><path class="cls-1" d="M670.85,83.8c.7,6.93-.6,13.91,1.19,20.88,2,7.79,6.24,13.74,13.39,16.87,39.7,17.38,57.63,50.72,66.27,90.57,2.27,10.5-2.78,20.32-6.73,29.89a244.75,244.75,0,0,0-9.26,26.08c-5.07,17.67.3,32.28,12.19,45.21,4.11,4.48,8.38,8.8,12.58,13.2-9-2.29-13.46-10-18.86-16.34-14.88-17.41-12.15-36.54-4.58-55.93,3-7.56,5.84-15.13,8.78-22.68a42,42,0,0,0,1.06-27.18c-6.41-23.09-16.19-44.36-33.65-61.45-5.71-5.58-12.08-10.69-19.29-13.49-21.5-8.33-28.48-24-25.39-45.66Z"/><path class="cls-1" d="M682.05,373.72c3.7.09,6.06,2.81,8.86,4.59C712.1,391.76,735,399.23,760.29,400c21.78.68,43.55,2,65.11,6a106.52,106.52,0,0,0,38.31.13c22.44-4.07,33.46-16,37.83-39.06,3-15.65,3.38-31.8,9.09-46.92,1.52-4,2.89-8.05,5.66-11.42l1.32,1.39c-9.67,19.79-10.27,41.73-14.69,62.75-4.11,19.58-20.84,34.09-41,36.43-19.55,2.28-38.45-.63-57.56-3.68-12.2-1.95-24.64-1.83-37-2.11-29.19-.65-56.35-8.32-80.62-25.09-1.86-1.28-3.82-2.39-5-4.39Z"/><path class="cls-1" d="M962.48,459.44c-13.8,5.83-27.69,11.47-41.38,17.53-11.66,5.16-24.06,8.9-34.45,16.62s-16.34,11.77-9.57,28.13c-7.12-5-7.49-14.94-.88-22.79a46.28,46.28,0,0,1,17.21-12.76c21.46-9.16,42.46-19.42,64.52-27.17a32.89,32.89,0,0,1,4.56-.93C962.49,458.53,962.49,459,962.48,459.44Z"/><path class="cls-1" d="M897.52,248.22c-2.89,7.43-8.38,13.25-12.57,19.87a258.54,258.54,0,0,0-26.88,57.25A38.46,38.46,0,0,1,844,344.92c4.45-7.33,10-14,12.49-22.33,7.64-26,21.11-49.09,36.39-71.22,1.29-1.86,2.43-3.8,4.44-5C897.39,247,897.45,247.61,897.52,248.22Z"/><path class="cls-1" d="M841.79,317c3.5-11.59,8.7-22.51,13.79-33.42,8.41-18.07,17-36.07,26.95-53.36l1.59.16c-.2,2.8-1.68,5.1-2.87,7.52-12,24.41-24.93,48.44-35,73.8C845.42,313.82,845,316.76,841.79,317Z"/><path class="cls-1" d="M885.18,529.81c14.46,9.53,31.43,12.21,47.49,17.37v1.51c-13.24-2.06-26.26-5-38.3-11.06C890.82,535.84,886.16,534.84,885.18,529.81Z"/><path class="cls-2" d="M242.43,133.88A177.09,177.09,0,0,1,272.2,112.1c.17.19.35.38.53.56-8.13,9.76-17.94,17.2-29.94,21.59Z"/><path class="cls-1" d="M554.28,40.43c-4.78,11.7-11.49,21.26-17.19,23.5,6.23-7.2,10.16-15.88,15.72-23.51Z"/><path class="cls-1" d="M347,71.64c-1.64,4.62-6.8,5.29-9.65,8.57-.58.68-1.91.84-2.11-.14s.56-2,.9-3l-.05,0c1.27-.5,1.48-1.54,1.39-2.74C340.83,74.12,343.38,71,347,71.64Z"/><path class="cls-1" d="M908.61,703.28c-1.86-2.74-5.17-4.37-6-7.9l.56-.47c3.11,1,4.87,3.39,6.39,6.06C909.25,701.74,908.93,702.51,908.61,703.28Z"/><path class="cls-2" d="M238.23,137.8c.47-2.31,2.54-2.89,4.2-3.92l.36.36c-.29,2.46-1.93,3.53-4.15,4Z"/><path class="cls-2" d="M287.19,102.71a4.34,4.34,0,0,1,4.09-2.69l.16.16a2.57,2.57,0,0,1-.11,1.29l0,0L290,102.85l.09-.08-2.65.17Z"/><path class="cls-2" d="M232.87,141.94a2.81,2.81,0,0,1,2.69-1.4l.27.3-2.58,1.52Z"/><path class="cls-2" d="M855.36,777.91a2.41,2.41,0,0,1-2.63,1.45l-.1-.14a2.35,2.35,0,0,1,2.74-1.3Z"/><path class="cls-2" d="M272.2,112.1a3,3,0,0,1,2.73-1.33l.23.25-2.42,1.65Q272.46,112.39,272.2,112.1Z"/><path class="cls-2" d="M276.35,109.49a2.61,2.61,0,0,1,2.73-1.34l.13.14a2.68,2.68,0,0,1-2.69,1.4Z"/><path class="cls-2" d="M337.46,74.33c.09,1.2-.12,2.24-1.39,2.74A2.39,2.39,0,0,1,337.46,74.33Z"/><path class="cls-2" d="M280.44,106.81a2.64,2.64,0,0,1,2.7-1.4l.14.19a2.63,2.63,0,0,1-2.69,1.38Z"/><path class="cls-2" d="M283.14,105.41a2.45,2.45,0,0,1,2.77-1.27l0,0a2.77,2.77,0,0,1-2.67,1.42Z"/><path class="cls-2" d="M235.56,140.54l1.29-1.41.4.41-1.42,1.3Z"/><path class="cls-2" d="M236.85,139.13l1.38-1.33.41.45c-.47.42-.93.86-1.39,1.29Z"/><path class="cls-2" d="M228.68,145.93l1.43-1.35.4.42-1.29,1.31Z"/><path class="cls-2" d="M274.93,110.77l1.42-1.27.17.18L275.16,111Z"/><path class="cls-2" d="M230.11,144.58l1.36-1.35.43.45L230.51,145Z"/><path class="cls-2" d="M279.08,108.15l1.37-1.34.14.17-1.38,1.31Z"/><path class="cls-2" d="M231.47,143.23l1.41-1.29.37.42-1.35,1.32Z"/><path class="cls-2" d="M285.91,104.14l1.29-1.42.19.22L286,104.18Z"/><path class="cls-3" d="M95.66,602.31c-2.46-3.86-1.88-6.81-.17-10.11,15.4-29.61,41.09-37.74,70.18-34.53,27.83,3.06,50.66-5.06,68.66-26.36,7.42-8.76,14-18.26,21.4-27,9.32-10.95,21.46-18,35.19-21.69,25.15-6.71,50.65-9.9,76.85-7.32,12.73,1.26,25.57,1.82,38.35,3,18.89,1.73,36.49-4.21,54-10.21,11.09-3.79,22.28-7.18,34.19-7.32,16.05-.19,30,6.27,26,29.71A65.81,65.81,0,0,1,514,510.31c-7.52,14.16-23,20.94-39.62,18.46-22.93-3.43-44.89-2-67,5.23-22.9,7.47-46.23,13.61-69,21.48-21.89,7.56-40.11,21.11-58.27,35-27.4,20.9-54.05,42.9-83.22,61.3-22.43,14.14-47.38,19.18-73.89,15-2.34-.38-5.2-.73-4.64-3.58.63-3.21,3.64-1.54,5.65-1.24,25.68,3.86,49.91-.32,71.91-14.23,25.94-16.4,49.3-36.37,73.86-54.68,16.07-12,31.68-24.64,49.75-33.68,20.29-10.15,42.16-15.81,63.65-22.53,11.6-3.63,23.4-6.69,34.91-10.56,16.75-5.64,33.69-5,50.75-2.44a56.41,56.41,0,0,0,18.19.26c20.31-3.55,34.93-27.5,29.22-47.5-2-7.11-7.8-9.44-14.36-10.45-13.81-2.11-26.89,1.39-39.52,6.18a182.29,182.29,0,0,1-44.34,11.19c-5.84.65-11.64-.2-17.48-1-15.17-2.11-30.49-2.49-45.79-3A190.88,190.88,0,0,0,283.81,490c-16.28,5.74-26.23,18.36-35.94,31.56-7.47,10.15-15.54,19.73-25.79,27.48-18.14,13.7-38.85,14.38-60.05,13.07-28.84-1.78-50.1,6.71-62.79,33.09C98.17,597.37,97,599.55,95.66,602.31Z"/><path class="cls-1" d="M167.64,214c11.36,25.74,23.24,50.4,31.54,76.55,2.93,9.23,6.36,18.32,10,27.29a78.7,78.7,0,0,0,14.34,23.59c20.29,22.3,41,44.57,70.93,53.46,29.77,8.82,57.41,2.63,82.34-16,8.44-6.3,14.82-14.55,21.63-22.28,12.2-13.84,27.36-22.52,44.29-28.83,23.27-8.69,42-22.78,52.59-45.89,8.45-18.48,10.27-37.93,8.11-58.11-2-18.75-4.47-37.65,1.07-56.36,4.48-15.13,13.41-26.82,26.26-35.8,19.75-13.82,38.91-28.57,59.28-41.4,14.5-9.14,25.46-8.1,32.1,8.6,3.91,9.84,7.44,19.83,11,29.81s10.41,16.62,20.59,19.84c10.53,3.32,21.22,6.24,31.46,10.31,32.14,12.79,47.21,45.15,37.13,78.4-4,13.11-8.42,26-8.23,40.16.18,12.76,3.54,24.3,11.23,34,12.87,16.33,28.3,30,48.38,36.76,21.89,7.33,44,9.72,65.56-1.92A5,5,0,0,1,841,346c.94,2-.58,2.68-1.64,3.22-9.76,5-20.15,8.7-31,8.11-16.67-.9-33.34-3.32-48-12.08-20.25-12.07-38.18-26.53-46.58-49.83-5.93-16.47-2.3-32.36,2.4-48.28,2.67-9,6.37-17.81,6.42-27.5.16-30.34-17.84-53.64-47.18-61.28-8.27-2.15-16.45-4.74-24.53-7.55-13.32-4.65-19-15.76-23.17-28.11q-4.33-12.79-9.41-25.34c-3.53-8.72-9.28-11.09-18.42-8.6-6.77,1.85-11.92,6.27-17.41,10.17-18.21,12.89-36.59,25.55-54.5,38.84-15.21,11.3-22.35,27.23-23.77,45.89-1.45,19,2.78,37.73,2.77,56.66,0,41.3-20.3,72.17-58.46,88.23-18.83,7.94-37.12,16.52-50.38,32.91-6.82,8.43-13.9,16.71-22.91,22.86-36.3,24.77-77.27,24.13-113.22-2.62a234.8,234.8,0,0,1-43.52-42.38c-9.69-12.18-14.36-27-19.4-41.49-8.59-24.72-17.87-49.13-29.39-72.67C168.12,222,165.71,218.73,167.64,214Z"/><path class="cls-3" d="M855.37,777.92a2.35,2.35,0,0,0-2.74,1.3,4.09,4.09,0,0,1-2.08-3.32c-4.3-25.85-22-41.77-42.18-55.21-15.27-10.16-31.76-18.32-51-17.3-11.57.62-22.47,4.49-33.45,7.76-20.23,6-39.65,1.66-59-4.18-6-1.82-12.06-3.73-18.21-5-20.64-4.19-38.49,3.19-55.53,13.82-17.59,11-34.25,23.41-52.79,32.9-16.6,8.51-34.35,11.89-52.74,12.82-9.22.47-18.43,1.19-27.66,1.34-20.79.35-40.53-5.36-60.11-11.35-25-7.66-47.55-3-69.42,10.86-24.52,15.6-46.31,33.59-61.13,59-2.38,4.09-4.41,8.38-6.69,12.53-.64,1.18-.31,3.76-2.78,2.81-2.09-.81-2.12-2.92-1.39-4.65a83.5,83.5,0,0,1,4.43-9.13c19.64-34.76,49.54-58,85-74.55,16.68-7.78,34.18-6.42,51.5-1.35,19.24,5.63,38.65,10.62,58.79,11.41a131.66,131.66,0,0,0,22.89-1.05c10.25-1.41,20.62-.83,30.86-3.11,17.3-3.85,32.36-12,47.08-21.44,15.94-10.18,31.44-21.13,48.56-29.34s34.63-8.64,52.63-3.23a342.88,342.88,0,0,0,35.35,8.75c13.5,2.56,26.24-.2,38.38-4.72,32-11.91,59.07-1.9,84.79,16.75A118.66,118.66,0,0,1,847,752.6C852,760.3,855.08,768.65,855.37,777.92Z"/><path class="cls-3" d="M570.74,910.63c-.36-16.62-3.11-32.43-16.49-44.11-7.65-6.67-17-10-26.62-12.71-12.43-3.51-24.7-7.41-34.2-16.82-10.56-10.46-8.9-20,4.39-26.73,11.3-5.68,23.73-6.8,35.85-9.09,18.31-3.46,35.58-9.34,51.81-18.77,12-7,24.57-13.26,39.06-14.12,9.66-.57,17.62,3.41,25.23,8.32,27.35,17.65,47.29,42.11,63.53,69.88q6.48,11.09,12.45,22.48c1,1.81,4.09,4.45.5,6.16-2.77,1.31-3.54-2.06-4.47-3.93A313.62,313.62,0,0,0,704.06,840c-15.45-23.83-33.74-45-57.81-60.75-12.11-7.94-24.06-8.28-37.24-3.11-13.72,5.39-25.87,13.79-39.42,19.42-17.19,7.14-35.38,10.24-53.54,13.52A56.45,56.45,0,0,0,498.84,815c-8.46,4.64-9.35,10.72-2.83,18,9.13,10.2,21.7,13.34,34.07,16.78,14.73,4.09,28.13,10.24,36.42,23.8,8.16,13.35,9.93,28.31,9.17,43.62-.1,1.89-.2,5.44-3.15,5.14-3.24-.34-1.53-3.61-1.74-5.62A58.88,58.88,0,0,1,570.74,910.63Z"/><path class="cls-1" d="M642.19,299.65c-1.13-.71-2.53-1.18-3.34-2.15-13.17-15.79-30-15.1-47.66-10.67-29.51,7.42-50.16,26.62-66.78,50.85-17.1,24.9-38.73,44.25-66.12,57.32-14.65,7-28.64,15.32-43.14,22.64-17.45,8.82-35.7,14.4-55.62,14.9-13,.32-25.95,2.34-39,2.52-26.34.36-51.28-6.07-75.79-14.78-12.1-4.3-24-9.66-36.91-10.56-26.51-1.85-44.57,6.13-50.44,36.85-4.2,22-15.16,36.91-37.43,43a91.88,91.88,0,0,0-39,22.17c-1.78-2.12-.49-3.23.68-4.23,10.91-9.4,23.21-16.79,37-20.38,21.36-5.53,31.59-19.77,35.87-40.25,3.07-14.65,8.43-28.49,23-35.55,13.08-6.32,27.12-6.56,40.9-2.6,17.09,4.92,33.85,11.05,51,15.89,18.68,5.29,37.76,9.11,57.31,7.45,27-2.28,55.12-.59,79.88-13.82,29.16-15.57,60.43-27.61,86.29-49,13.34-11,23.16-25.11,33.28-39,17.73-24.28,40.23-42.09,70.45-47.77,16.59-3.11,32.58-1.67,44.18,13.15a22.66,22.66,0,0,1,1.9,3.5Z"/><path class="cls-1" d="M870.53,755.92c-3.25-1.08-4.11-4.34-5.71-6.76-23.33-35.34-55.82-57.59-96.72-67.89-15.08-3.8-29.94-1.77-44.66,1.88-20.38,5-40.2,2.8-59.8-3.77-13.35-4.47-26.75-8-41-4.56-10.06,2.4-18.8,7.64-27.69,12.46C574.5,698.34,555,711,533.38,719.9,513,728.31,491.92,734,469.71,733c-19.58-.87-37.91-7.31-55.93-14.58a226.36,226.36,0,0,1-29.69-14.71c-10.65-6.21-17.17-5.86-26.59,1.87-18.28,15-36.45,30.16-54.68,45.23-1.14,1-2,2.57-4,2.08-.93-2.3,1.14-3.19,2.32-4.17q27.27-22.69,54.66-45.25c8-6.63,16.33-8.19,26.25-3.7,17,7.71,33.48,16.66,51.27,22.83,34.78,12.07,68.22,7.65,101.12-6.54,22-9.49,42.68-21.62,63.08-34s40.86-14.24,62.79-6.82c13.31,4.5,26.8,8,40.94,7.66a116.56,116.56,0,0,0,25.3-3.8c30.68-7.69,58.42,1.2,84.83,15.95,24.73,13.81,44.16,33.28,58.74,57.57C870.64,753.51,871.69,754.33,870.53,755.92Z"/><path class="cls-1" d="M483.74,863.48c-16.28-8.58-31.52-18.68-42.35-33.84-11.72-16.41-6.51-31.37,12.62-38.3,18.07-6.54,36.92-10,55.76-13.22,23.22-4,44.59-11.9,64.07-25.52,12.15-8.49,24.24-17.38,38-23.32,18.92-8.16,37-3.49,55,3.84,11.24,4.59,22.12,10,34.15,12.67,14.36,3.13,28,2.15,41.38-4.12,21.24-10,41.22-7.18,54.85,7.38,9.47,10.12,9.48,19.22-.64,28.67-8.6,8-17.72,15.54-27.07,22.77,2.86-7.26,9.48-10.86,15-15.39a143,143,0,0,0,14.2-13.52c4.51-4.86,3.29-13.12-2.43-19.56-12.08-13.59-30.32-17.86-47.44-9.45-23.88,11.74-46.91,9.86-70.12-1.41-11-5.33-22.24-9.81-34.31-12.13-14.48-2.79-27.77.4-40.07,7.9-13.86,8.44-27.49,17.27-41.15,26-19.51,12.51-41.85,16-63.95,20.37-12.58,2.46-25.21,4.76-37.5,8.49-7,2.11-13.75,4.94-18.77,10.33-7.48,8-5.64,19.72,4.35,30.77,9.32,10.3,20.54,18.22,32.23,25.54,1.9,1.18,4.18,1.92,4.6,4.56Z"/><path class="cls-1" d="M902.63,695.38c-4-4.83-8.18-9.56-12-14.51-13.2-16.88-31.45-24.09-51.81-27.55-35.18-6-66.83-21-97.8-38-22.56-12.31-43.48-27.46-66.77-38.47-9-4.25-18.13-8-28.14-9.15-19.14-2.19-32.1,7.67-43,21.81s-22.35,27.85-36.73,38.56c-18.85,14-41,9.94-56.83-6.84,4.42,0,6.56,3.33,9.39,4.94,19.62,11.13,37.22,8.95,53.65-6.68,12.45-11.86,23.38-25,34-38.46,11.71-14.81,29.49-20.17,47.72-15,21.13,6,39.4,17.66,58,28.8,32.32,19.4,65.06,37.9,101.33,49.21a256.13,256.13,0,0,0,32.82,7.68c25.39,4.37,43.22,19,56.14,40.51a9.15,9.15,0,0,1,.64,2.62C903,695.06,902.81,695.22,902.63,695.38Z"/><path class="cls-1" d="M961.13,425.44c-6,8-15.19,11.52-23.41,16.26C912,456.51,883.78,464,855.05,470c-15.51,3.23-30,9.65-44.75,15.07-11.43,4.2-22.66,5.1-34.25,1a15.59,15.59,0,0,0-15.88,2.69c-2.57,2.1-2.76,3.94.55,5.5,5.48,2.59,10.69,5.7,17.09,5.88,9.87.29,17.93,5,23.79,12.49,11.37,14.59,24.67,26.61,41,35.58,16,8.82,33.38,13.1,51,17,17.75,3.93,35.64,7.6,51.33,17.59-9.13-.81-17-5.66-25.55-8.27-17.89-5.44-36.6-7.36-54.35-13.24-23.15-7.68-43.22-19.87-58.84-39.06-8.51-10.46-18.28-19.33-33-20.07-4.75-.24-9-2.71-13.17-5-6.05-3.4-6.24-7.2-.56-11.21,4-2.84,8.88-4.88,13.4-3.18,18.05,6.76,34.38,1.06,50.84-5.64,17.77-7.25,36.39-11.44,55.14-15.44,27.39-5.83,52.39-17.67,75.77-33C956.6,427.24,958.47,425.53,961.13,425.44Z"/><path class="cls-1" d="M649.12,439.16c-4.89-4.22-7.76-9.87-10.75-15.4q-11.24-20.83-22.23-41.8c-3.33-6.31-8.1-11.41-13.43-15.95-9.66-8.25-20.58-7.49-31,2A83.64,83.64,0,0,0,554,390.84c-9.81,18.67-24.1,32.58-44.1,39.8C480,441.43,450.48,453.09,419.66,461a104.42,104.42,0,0,1-29.36,3.6c-30.71-1-61.23,1.83-91.7,4.56-16.43,1.48-33.3,1.73-49,8l-.4-.38c4.48-4.91,10.79-5.68,16.66-6.38,26.09-3.11,52.29-5.19,78.5-7.3,14.44-1.16,28.82-.67,43.22-1,16.05-.41,31.72-2.56,47.05-7.7,23.91-8,47.77-16.16,71.49-24.76,21.68-7.86,36.88-22.67,47.35-42.87A70.52,70.52,0,0,1,565.88,370c17.09-17.47,34-15.84,48.35,4.27,6.07,8.52,10.08,18.1,15.22,27.09,7,12.27,13.42,24.9,20.08,37.37Z"/><path class="cls-1" d="M302.75,587.35A150.36,150.36,0,0,1,334,569a270.55,270.55,0,0,1,103.15-24c14.79-.52,29.3,4.1,44,5.83,11.75,1.39,23.28,4.84,35.29,3.68,10.44-1,16.84-7.32,20.42-16.43,4.85-12.35,8.56-25.16,13.61-37.42,7.3-17.72,18.81-32,37.5-38.58,23.56-8.35,47.26-.41,63.34,20.86,1.94,2.57,5.06,4.48,5.82,8.82-3.59-.79-4.89-3.39-6.57-5.55-10.81-13.89-23.85-23.81-42.42-24.2-23.58-.49-39.48,11.6-50.92,30.91-7.9,13.32-11.23,28.45-16.42,42.84-3.85,10.66-9.95,19.34-21.73,22.14-6.75,1.6-13.48-.45-20.11-1.36-19.79-2.72-39.47-6.31-59.28-8.8-13.09-1.64-25.93,1.88-38.79,4-23.19,3.85-45.77,9.63-67,20.07a262.63,262.63,0,0,0-23.66,13C308.4,586,306.86,587.83,302.75,587.35Z"/><path class="cls-1" d="M834.91,692.65a351.5,351.5,0,0,0-53.64-23.8,132,132,0,0,0-46.37-7.66c-18.93.39-37.88.23-56.44-4.13-10.29-2.41-20.38-5.66-30.54-8.53-15.07-4.27-27.78-.4-40.32,7.5-15.62,9.84-30.24,21.28-47,29.29a83.27,83.27,0,0,1-35.88,8.37c-16.88,0-33.84,1.57-50.66-1.23-6.84-1.13-13.48-2.91-19.32-7.06,7.4.74,14.07,4.71,21.59,4.92,27.6.76,55.53,4.69,81.91-7.43,15.83-7.28,29.66-18,44.39-27.11,6.93-4.3,13.88-8.36,21.78-10.66,12.68-3.71,24.74.16,36.36,3.94,19.13,6.22,38.48,9.32,58.5,8.36,39.88-1.92,75.74,11.06,110.06,29.67,2.28,1.24,5,2.26,5.91,5.19Z"/><path class="cls-1" d="M497.63,612.41c-3.6-2.85-7.19-5.72-10.8-8.55-20.46-16-43.9-24.67-69.65-23.52-33.71,1.49-66.92,6.43-95.2,27.57-16.6,12.4-30.19,27.75-42.82,44-15.05,19.31-30.61,38.14-53.36,48.72-17,7.88-34.51,14.46-51.73,21.76-5.85,2.48-11.52,5.4-17.53,7.62,2.91-5.05,8.12-6.62,12.86-8.73,15.24-6.78,30.87-12.62,46.27-19,23.81-9.9,41.53-26.66,56.84-46.59s31.41-39,52.44-53.24c20.12-13.64,42.71-19.79,66.52-22.43,10.51-1.17,21-2.91,31.6-2.53,28.72,1,53.22,12.18,74.14,31.61a12.33,12.33,0,0,1,1.46,2.13Z"/><path class="cls-1" d="M433,635.06c-9.37-9.14-20.91-13.21-33.3-15.12-42-6.48-77.85,15.6-82.85,56.48a195.17,195.17,0,0,1-4.76,23.1c-5.29,21.25-20,35-38,45.43-23.67,13.74-43.63,31.07-57.67,54.8-.17.29-.75.34-1.19.53-2-1.41-.57-2.71.16-4,13.44-23.09,33.26-39.47,55.79-53,14.95-9,28.38-19.37,35.22-36.16,4.46-10.92,6.17-22.56,7.89-34.1,5.06-34.07,33.48-54.67,63.94-56.48,15.69-.94,31.08.13,45.18,8.34A22.6,22.6,0,0,1,433,635.06Z"/><path class="cls-1" d="M155.19,580.09a72.66,72.66,0,0,1,38.45,10.8c9,5.53,10.58,12.13,5,21.07-9.86,15.81-23,27.57-42.13,29.63-20.36,2.2-35.73-5.12-38.45-26.16-2.22-17.24,13.92-34.86,31.7-35.33C151.58,580.05,153.38,580.09,155.19,580.09Zm3.69,3.79h-9.2c-19.68.09-29.35,16-28.73,31.62.75,18.72,17.18,25.24,34.43,23.52,18.48-1.84,31.12-13,40.8-28.08,5.1-8,4-13.05-4.39-17.73C181.05,587.19,170,582.19,158.88,583.88Z"/><path class="cls-1" d="M686.21,349.25c6.28,1.79,10.45,6.82,15.57,10.34,23.28,16,48.11,26.85,76.94,28.25,14.74.72,29.5,3.05,44.23,4.5,17.64,1.73,35.69,2.22,52.31-10.37-3.07,6-4.24,7-9.83,9.14-13.41,5.19-27.38,5.34-41.37,4.08-14.54-1.31-29-4.22-43.54-4.74-31.95-1.16-59.41-13.45-84.7-31.83-3.64-2.64-7.46-5.13-10.1-8.92Z"/><path class="cls-1" d="M474.62,886.34c-50.94-44.1-105.92-44-163.7-16.4,6.52-9.61,51.85-23.43,77.4-22.49,33.35,1.23,61.43,16.19,87.4,35.58C475.35,884.13,475,885.24,474.62,886.34Z"/><path class="cls-1" d="M691.58,892.41c-3.12-3.46-6.11-7.06-9.4-10.34-8.79-8.74-17-18.06-26.91-25.65-12.14-9.3-23-10.2-33.36-2.49-4.88,3.63-7.7,8.8-9.19,14.57-3.71,14.36-3,29-2.52,43.65,0,1.35,1.7,3.42-1,3.62-1.7.13-1.76-1.76-1.76-3.08,0-15.5-1.71-31.17,3.17-46.28,6.14-19,21.52-25.27,39.41-16.28a62,62,0,0,1,15.25,11.1c8.42,8.16,16.67,16.52,24.9,24.88C691.43,887.43,693.63,888.35,691.58,892.41Z"/><path class="cls-1" d="M348.78,886.59c26.6-14.93,54.62-13.46,82.59-4.09,19.28,6.46,35.82,17.21,43,38.45-2.46.25-2.83-1-3.27-1.93-9.8-21.81-28.73-32.29-50.29-37.27-19.56-4.51-39.83-4.64-59.41,1.85-4.14,1.37-8,3.63-12,5.48Z"/><path class="cls-1" d="M366.06,516.42c-4.47,6.34-11.72,8.07-18.27,10.9-19,8.21-38.06,16.3-57.82,22.59a30.38,30.38,0,0,1-7.21,1.52c-8.78.55-11.44-2.78-8-10.81,4.14-9.78,9.27-19,17.85-25.86l.46.48c-.1,2.43-1.51,4.14-3.14,5.76-5.55,5.5-8.89,12.41-11.84,19.46-.95,2.28-3,5.32-.55,7.5,2,1.8,5.23,1.22,7.77.42,6.21-2,12.41-4,18.45-6.39,20.8-8.32,41.84-16.08,61.95-26Z"/><path class="cls-1" d="M199.25,435.46c-10.83,8.57-14.11,19.35-16.19,30.73-.73,4-1.64,7.92-2.66,11.82-4.1,15.8-14.84,24.86-30.17,28.67-10.88,2.7-22,4.6-32.94,6.91-7.17,1.5-13.61,5.15-20.57,7.3,9.68-8,21.29-10.84,33.27-12.75,5.76-.92,11.51-2,17.2-3.25,20.25-4.52,30.07-18.05,33.09-37.85,1.68-11,4.5-21.67,13.12-29.67C194.38,436.46,195.25,435.35,199.25,435.46Z"/><path class="cls-1" d="M241.25,638.78c-9.93,20.41-87,52.35-111.59,46.81,20-6.43,40.67-6.15,59.24-14.24S223.82,651.58,241.25,638.78Z"/><path class="cls-1" d="M207.41,530c-8.29,8.36-19.3,10.35-30.12,11.89-13.76,2-27.7,2.61-41.52,4.1-18.61,2-32.88,11.31-43.45,26.58-.84,1.22-1.21,3-4.14,2.67,3.09-7.67,8.51-13.05,14.43-18,13.06-11,28.81-14.12,45.2-15,12.79-.69,25.53-1.49,38.13-4.08,7.6-1.56,13.94-6,21.17-8.39Z"/><path class="cls-1" d="M309,444c-20.87.55-41.12-3.49-61.33-8.06a154.72,154.72,0,0,0-35.47-4c-4.38,0-8,2.53-12.41,2.11a21.34,21.34,0,0,1,13-4.61c17.33-.78,34,3.37,50.66,7.06A252.3,252.3,0,0,0,309,441.87Z"/><path class="cls-3" d="M286,104.18l1.44-1.24,2.65-.17c-7.22,9.22-16.3,16.42-25.36,23.69a151.65,151.65,0,0,1-30.18,18.88c-1.55.73-3.09,3.11-5.28,1l1.29-1.31,1.39-1.32,1.35-1.32,2.58-1.52,1.42-1.3c.46-.43.92-.87,1.39-1.29,2.22-.48,3.86-1.55,4.15-4,12-4.38,21.81-11.82,29.94-21.58l2.43-1.64,1.36-1.34a2.66,2.66,0,0,0,2.69-1.39l1.38-1.31a2.63,2.63,0,0,0,2.69-1.38A2.77,2.77,0,0,0,286,104.18Z"/><path class="cls-1" d="M268,143.39c-25.53,21.44-55.45,35.94-84.71,53.39C185.14,192.73,253.66,149.41,268,143.39Z"/><path class="cls-1" d="M914.87,291.17c-14.4,18.2-18.09,40.34-22.84,62.08a70.45,70.45,0,0,1-7.67,20.81c-1.21,2.07-2,4.57-5.62,5.08,1.44-5.29,5.27-8.95,6.94-13.73,4.26-12.17,5.76-25,9.09-37.3,3.76-13.95,8.49-27.53,18.87-38.26Z"/><path class="cls-1" d="M542,335.86c10.33-15.2,25.35-22.91,42.73-27,13.1-3.1,24.89.63,36.35,6.42,2.12,1.06,4.32,2.13,5,6.17-8.08-4.9-15.4-8.65-24-10.16-16.68-2.95-30.3,3.51-43.77,11.74-6,3.67-9.5,10.26-16,13.18Z"/><path class="cls-1" d="M338.74,440.8c18-.57,36-1,53.73-4.44,11.08-2.16,21.14-7.28,32.39-11.24-9.32,11.05-48.88,19-86.08,17.82C338.77,442.23,338.75,441.51,338.74,440.8Z"/><path class="cls-1" d="M292.57,514.76c9-10.11,21.44-13,33.71-16.76,13.89-4.25,26.43.58,39.28,4.08.73.2,1.23,1.23,1.84,1.87l-.29.33c-3.51-.76-7.07-1.34-10.53-2.31-21.69-6.11-41.19-1.1-59.26,11.47a21.22,21.22,0,0,1-4.29,1.8Z"/><path class="cls-1" d="M363.23,803.65c-4,6.92-18.57,9.65-24.26,4.54-3.94-3.54-3.93-9.17.52-12.12,6.07-4,12-9.05,20.31-5.52,6.25,2.65,7.69,7.7,3.39,13.14,0-9-3.36-12.35-11.24-10.78a25.36,25.36,0,0,0-10.78,5.2c-3.77,3-2.86,7.9,1.77,9.36a17.22,17.22,0,0,0,8.5.65C355.74,807.33,358.92,804.06,363.23,803.65Z"/><path class="cls-1" d="M760.45,326.47c4.32,2.28,8.49,4.95,13,6.77,18.15,7.33,36.31,9.53,54.27-.81.89-.52,2.16-.37,3.25-.54-3.94,5.52-10.07,8.05-16.09,8.88-18.21,2.5-35.85.61-51.6-10.17C761.77,329.56,760.21,328.67,760.45,326.47Z"/><path class="cls-1" d="M674.93,368.66c-1.17-.63-2.57-1-3.48-1.93q-21.18-21-42.23-42c-.76-.75-1.63-1.55-1.14-2.8,1.78-1,2.62.45,3.48,1.31q21.12,21,42.14,42.15a11.85,11.85,0,0,1,1.58,2.9S674.93,368.66,674.93,368.66Z"/><path class="cls-1" d="M427.41,423.93l60.95-29.16c-18.38,13.5-39.77,21-59.87,31Z"/><path class="cls-1" d="M443,913.74c-6-.9-9.79-6-15.48-7.76-13-4.16-26.06-6.39-39.65-3.51a27.13,27.13,0,0,1-5.08,0c1.79-3.39,4.89-3.51,7.2-3.67,16.84-1.18,33.2.57,48.05,9.49,2.05,1.23,3.59,3.3,5.37,5Z"/><path class="cls-1" d="M768.38,803c-12.66,16.36-8.37,35.74-9.63,55.13C751.37,845.3,757.81,809.15,768.38,803Z"/><path class="cls-1" d="M505.41,381.93c1.64-5.25,6.72-7.67,9.7-11.86,6.52-9.13,13.4-18,20.14-27,1.26-1.67,2-4.08,6-3.79-7.37,10-14.07,19.7-21.36,28.89-4.12,5.18-7.58,11.26-14.2,14Z"/><path class="cls-1" d="M256,784.53c12.25-11.51,26.3-20.68,39.47-31,1.85,1.94.42,2.9-.51,3.61q-17.58,13.53-35.3,26.91c-.82.62-2.11.61-3.19.89Z"/><path class="cls-1" d="M520.56,885.78c15,8.1,18.28,26.19,6.71,38.12C534.54,909.4,533.07,896.6,520.56,885.78Z"/><path class="cls-1" d="M447,677.81c-4.22-1.87-4.29-6.14-5-9.64-2.11-10.33-2.7-21-7.63-30.69,9.89,11.61,7.21,27.15,13,40Z"/><path class="cls-1" d="M490,867c10.1,4.75,20.45,9.17,28.76,17A116.68,116.68,0,0,1,490,867Z"/><path class="cls-1" d="M685.72,349.7c-9.59-6.23-16.54-15.07-23.39-24,8.35,7.46,17.3,14.3,23.88,23.56Z"/><path class="cls-1" d="M233.52,493.79c-4,10.32-8.18,20.42-17.21,27.42C223,512.59,226.55,502.08,233.52,493.79Z"/><path class="cls-1" d="M497.05,923.69c-.63-10.45-3.3-20.09-11.55-29.06C495,898.32,500.51,913.18,497.05,923.69Z"/><path class="cls-1" d="M863.16,719.9c-7.92-4.88-12-13.26-18.07-19.79,7.92,4.83,13.66,11.72,18.57,19.38Z"/><path class="cls-1" d="M248.13,794.32,233.26,817l-1.5-1c4.39-8,8-16.41,15.87-22.09Z"/><path class="cls-3" d="M338.74,440.8c0,.71,0,1.43,0,2.14-9.91.41-19.86-.23-29.74,1.1l0-2.17Z"/><path class="cls-1" d="M243.34,639c2.1-5.83,7.8-7.49,12-11C253.21,633.76,247.69,635.73,243.34,639Z"/><path class="cls-1" d="M882.51,742.65c-6.54-1.75-7.7-8.51-11.64-12.68,5.47,2.76,9,7.31,11.59,12.73Z"/><path class="cls-1" d="M650.81,310.05c4.48,3.45,7.05,8.35,9.82,13.13a21.62,21.62,0,0,1-10.24-12.69Z"/><path class="cls-1" d="M298.31,116.51c-2.1,4.66-5.87,7.66-10.3,10a20,20,0,0,1,9.77-10.46Z"/><path class="cls-1" d="M297.78,116.07c.83-5.13,5-7.44,9-9.95-1.57,4.42-5.09,7.35-8.45,10.39Z"/><path class="cls-1" d="M247.63,793.89c.94-4.74,4.12-7.5,8.32-9.36l.47.44c-1.56,4.19-5.24,6.48-8.29,9.35Z"/><path class="cls-1" d="M649.53,438.73a14.39,14.39,0,0,1,8.11,8.15l-.33.39a13.38,13.38,0,0,1-8.19-8.11Z"/><path class="cls-1" d="M504.32,383.52c-2.41,3.09-4.93,6.05-9.9,8.31,2.37-5.24,5.49-7.49,9.66-8.56Z"/><path class="cls-1" d="M273.56,612.37c1.14-3.88,4-5.94,8.77-8.34-2.43,4.76-4.73,7.41-8.49,8.62Z"/><path class="cls-1" d="M863.66,719.49c2.43,2.16,5.21,4,6.63,8.56-4.43-2-6.62-4.32-7.12-8.15Z"/><path class="cls-1" d="M276.45,136.68a9.09,9.09,0,0,1,5.63-6.48C281.61,133.8,281.61,133.8,276.45,136.68Z"/><path class="cls-1" d="M501.15,613.7c4,1.41,5.84,3.14,7.4,6.94C504.47,619.48,502.69,617.7,501.15,613.7Z"/><path class="cls-1" d="M265.72,619.42c-.67,3.33-3,5-6.83,6.9,1.11-4.39,3.46-6.12,6.62-7.12Z"/><path class="cls-1" d="M326.9,86.89c-1.1,3.1-3.2,5-7.3,6.42,1.6-4.06,3.76-6,6.84-7Z"/><path class="cls-1" d="M310.05,102.42c.06-3.48,2.26-4.84,5.59-6.84C315,100,312.32,101.07,310.05,102.42Z"/><path class="cls-1" d="M836.36,325.15a15.75,15.75,0,0,1,5.46-8.18C841.57,320.75,841,324.31,836.36,325.15Z"/><path class="cls-1" d="M835.23,692.28c3.42.17,5.55,2.2,7.56,5.36-4.31.4-5.78-2.8-7.88-5Z"/><path class="cls-1" d="M368.71,505.35c3.76,3.8,2.06,6.86-1.3,9.7l-.42-.36c.4-3.06,2.18-5.91,1.51-9.15Z"/><path class="cls-1" d="M326.44,86.35c1.66-2,3.14-4.22,6.9-5.09-1.08,3.86-3.31,5.21-6.44,5.63Z"/><path class="cls-1" d="M447.41,677.48l5.79,5c-4.58.79-5.91-1.45-6.16-4.71Z"/><path class="cls-1" d="M484.17,890.43c-4.36-.23-5.89-1.83-7-4.75C480.71,885.3,481.69,887.91,484.17,890.43Z"/><path class="cls-1" d="M269.87,142.41c.37-3.73,2.22-4.57,4.44-5.53C274.92,140.56,272.48,140.84,269.87,142.41Z"/><path class="cls-1" d="M291.25,595.88c-.74,3.68-2,5.08-5,5.24C286.43,598.26,288.34,597.43,291.25,595.88Z"/><path class="cls-1" d="M650.39,310.49c-2.85-.7-3.93-2.72-4-5.45l.39-.4c1.94,1.37,3.61,2.94,4.08,5.41Z"/><path class="cls-1" d="M646.34,305c-2.92-.61-3.87-2.75-4.15-5.4l.49-.42c1.91,1.39,3.64,2.92,4.05,5.42Z"/><path class="cls-1" d="M94.44,522.72a2.54,2.54,0,0,1-2.2,2.46c-.77.14-1.4-.37-1-1.14A4.9,4.9,0,0,1,93,522.23C93.29,522.05,94,522.55,94.44,522.72Z"/><path class="cls-1" d="M238.63,487.93c-.36,1.54-.88,3-2.61,3.47-.81.22-1.28-.33-1.12-1.1a3.41,3.41,0,0,1,3.26-2.76Z"/><path class="cls-1" d="M207.11,529.66a4.71,4.71,0,0,1,4.09-4.07l.43.42a4.57,4.57,0,0,1-4.22,3.94Z"/><path class="cls-1" d="M677.87,369.73a4.58,4.58,0,0,1,4.18,4l-.36.34c-2.23-.43-3.75-1.6-4.14-4Z"/><path class="cls-1" d="M296.36,593.86c-.49,1.07-1.18,2-2.48,1.83-.28,0-.78-1.21-.62-1.42a5,5,0,0,1,2-1.57C296,592.46,296.54,593,296.36,593.86Z"/><path class="cls-1" d="M299,591.77c-.16-.43-.62-1-.47-1.4a2.3,2.3,0,0,1,2.38-1.69,1.55,1.55,0,0,1,.73,1.31A2.65,2.65,0,0,1,299,591.77Z"/><path class="cls-1" d="M657.64,446.88c1.24.26,2.78-.08,3.32,1.56a1.13,1.13,0,0,1-.57.91c-1.58.18-2.33-1-3.08-2.08Z"/><path class="cls-1" d="M484.13,863c1.21.33,2.78,0,3.29,1.62.08.23-.34.86-.58.89-1.56.18-2.32-1-3.1-2Z"/><path class="cls-1" d="M249.57,477.19c-.36,1.36-1,2.47-2.62,2.37-.29,0-.83-.53-.79-.69.39-1.53,1.74-1.76,3-2.06Z"/><path class="cls-1" d="M492.94,393c-.3.25-.6.7-.92.71-.8,0-1.11-.52-.73-1.2a1.3,1.3,0,0,1,1.09-.46C492.6,392.05,492.75,392.63,492.94,393Z"/><path class="cls-1" d="M444.7,914.67l1.78,1.88-.84.62c-.45-.7-.89-1.4-1.33-2.11Z"/><path class="cls-1" d="M238.16,487.54c.51-.87,1-1.73,1.54-2.59l.35.35-1.42,2.63Z"/><path class="cls-1" d="M212.54,524.26c.49-.68,1.36-1.61,1.86-.77.62,1-.74,1-1.43,1.19Z"/><path class="cls-3" d="M914.79,289.61c.24-.54.49-1.08.73-1.63.24.21.71.54.68.59-.3.51-.68,1-1,1.46Z"/><path class="cls-1" d="M84.1,531.35,83.49,533l-.71-.54c.35-.46.7-.91,1-1.37Z"/><path class="cls-1" d="M284.39,602.77l-.54.92c-.15-.13-.44-.31-.42-.37a6.5,6.5,0,0,1,.52-.93Z"/><path class="cls-1" d="M835,327.87a2.46,2.46,0,0,1,1.39-2.76A2.28,2.28,0,0,1,835,327.87Z"/><path class="cls-3" d="M291.33,101.47a2.57,2.57,0,0,0,.11-1.29l1.53.68Z"/><path class="cls-1" d="M677.55,370.1l-2.62-1.45s.34-.4.35-.4l2.59,1.48Z"/><path class="cls-1" d="M273.84,612.65,272.47,614l-.27-.27,1.36-1.35Z"/><path class="cls-1" d="M270.9,615.14l1.31-1.41.26.27-1.39,1.31Z"/><path class="cls-1" d="M271.08,615.31l-.78.53c.2-.23.41-.46.61-.7Z"/><path class="cls-1" d="M266.88,617.89l.8-.55-.65.7Z"/><path class="cls-1" d="M265.51,619.2l1.37-1.31.15.15c-.44.46-.88.91-1.31,1.38Z"/><path class="cls-1" d="M832.3,330.57l1.39-1.39Z"/><path class="cls-3" d="M914.87,291.17l-1.23-1.32a3.06,3.06,0,0,1,1.15-.23l.38.41A3.69,3.69,0,0,1,914.87,291.17Z"/><path class="cls-1" d="M504.08,383.27l1.34-1.34.25.25-1.35,1.33Z"/><path class="cls-1" d="M367.41,515.05l-1.35,1.37-.39-.46,1.32-1.27Z"/><path class="cls-1" d="M542.36,336.18l-.84.55c.18-.29.35-.58.52-.87Z"/><path class="cls-1" d="M830.94,331.93l1.4-1.4Z"/><path class="cls-1" d="M833.65,329.22l1.4-1.4Z"/><path class="cls-3" d="M290,102.85l1.42-1.42C290.9,101.9,290.43,102.38,290,102.85Z"/><path class="cls-1" d="M211.2,525.59l1.35-1.33.42.42L211.62,526Z"/><polygon class="cls-1" points="317.5 95.25 317.85 95.13 317.8 95.46 317.5 95.25"/><path class="cls-1" d="M241.42,484l-1.37,1.35-.35-.35,1.35-1.37Z"/><path class="cls-1" d="M367.4,504c.44.47.87.94,1.31,1.4l-.21.19-1.39-1.26Z"/><path class="cls-1" d="M242.77,482.59,241.41,484l-.36-.37,1.36-1.35Z"/><path class="cls-1" d="M443.37,913.33l1.33,1.35-.39.38L443,913.74Z"/><path class="cls-1" d="M83.82,531.08l.84-.52c-.19.26-.38.52-.56.79Z"/><path class="cls-1" d="M242.41,482.23l.89-.51c-.18.29-.36.58-.53.87Z"/><path class="cls-1" d="M429.91,256.28c-2.83,8.19-9.54,13.09-16.19,17.42-26.31,17.15-49.05,38.78-73.9,57.74-6.48,4.94-13.35,9.2-21.8,10-12.69,1.19-22.38-4.45-29.91-13.89-11.85-14.85-17.59-32.28-19.69-50.93-1.28-11.38-2.25-22.72-.47-34.27,2.7-17.61,12.24-30.76,25.67-41.39,3.95-3.12,6.56-8.31,12.34-9l.47.44c-5.49,7-13.12,11.64-19.21,18-12.94,13.5-17.81,29.28-16.69,47.94,1,16.3,2.26,32.32,8.71,47.48,4.42,10.41,9.54,20.48,19.25,27.15,11.16,7.67,22.87,7.88,34.09.32,13.65-9.18,26.06-20,38.46-30.76,13.67-11.82,28.38-22.14,43.08-32.53,5.77-4.08,9.95-9.79,15.36-14.21Z"/><path class="cls-1" d="M392.22,308c-2.28,6-6.49,7.41-9.32,10.07-12,11.28-22.94,23.58-35.31,34.53-29.4,26-56.43,13.79-75-9.87-17.3-22-24.23-48.5-30-75.29-2.6-12.15-4.11-24.34-1.8-36.79,2.34-12.62,10.14-21.94,18.26-31a122.48,122.48,0,0,1,16.54-15c-.7,4-3.8,6-6.23,8.37-9.12,9.08-18,18.23-23.53,30.19-6.42,13.84-3.65,27.48-.72,41.45,5.67,27.06,12.84,53.44,29.58,76.18a62.7,62.7,0,0,0,24.31,20c14.62,6.81,27.8,3.49,40.51-5.69,14.94-10.81,26.73-24.86,40-37.41A71.8,71.8,0,0,1,392.22,308Z"/><path class="cls-1" d="M393.77,308.15c4.16-6,10.39-9.43,16.37-13.12a351.15,351.15,0,0,0,31.1-21.53c12.82-9.95,18.35-23.79,19.51-39.36,2.17-28.93,3.45-57.92,5.76-86.84,1.07-13.39,2.58-27,10.42-38.67,2.25-3.36,4.82-6.42,8.45-8.33,1.43,1.37.63,2.33-.19,3-10.75,9-13.49,21.73-14.71,34.54-2,21-2.53,42.21-4.5,63.24-1.28,13.64-.93,27.39-3.61,40.95s-8.82,25.05-19.57,33.77C427.57,288.18,410.18,297.35,393.77,308.15Z"/><path class="cls-1" d="M354.82,177.08c7.48-13.61,15.12-27.34,29.37-35,17.21-9.24,33.33.21,40,14.28,7.33,15.53,6.29,32.1,4.85,48.41-1.19,13.45-4.66,26.55-12.45,38.06a24.63,24.63,0,0,1-5.7,6.57,5.08,5.08,0,0,1-.5-.54,22.55,22.55,0,0,1,1.71-4.3c13.61-20.77,16.59-43.64,13.86-67.76-.5-4.47-.58-9-2-13.29-7.45-22.25-25.75-29.79-46.19-13.53-6,4.8-10.21,11.32-14.51,17.65-2.38,3.52-4.36,7.38-8,9.89Z"/><path class="cls-1" d="M410.86,249.4c-2.77,6.31-8.41,9.93-13.61,13.66-20.06,14.36-38.78,30.58-59.87,43.5-6.73,4.12-13.95,7.38-22.22,4.9-2.76-.83-5.8-1.56-6.26-5.24l.13-.13c11.31,6.64,21.29,2.5,30.61-4.23,19.72-14.24,39.19-28.82,58.91-43.06,4.21-3,6.74-8,11.81-9.93A6.17,6.17,0,0,0,410.86,249.4Z"/><path class="cls-1" d="M350.81,110.71c6.28-9,16.3-12.52,25.83-15.91,14.14-5,28.71-9,43.26-12.75,13.82-3.58,23-10.89,24.3-25.92a20.53,20.53,0,0,1,1-3.85c0-.13.36-.16.55-.24,3.24,12.72-5.67,26.57-19,30.48C413,86.58,399.16,90.3,385.26,93.93a79.89,79.89,0,0,0-27.77,13.48,59.63,59.63,0,0,1-6.38,3.66Z"/><path class="cls-1" d="M311.85,226.3c-5.78,9.62-11.62,19.18-13.75,30.49-3.07,16.33-1.84,31.75,8.61,45.49a9.76,9.76,0,0,1,1,2.47l-.1.11c-6.91-2.21-8.19-8.93-10-14.25-8-23.12-2.3-44.15,11.48-63.51.45-.64,1.55-.81,2.34-1.2Z"/><path class="cls-1" d="M448.5,186.83c.24,20.83-1.13,41.39-11.17,60.28-1.84,3.47-3.13,7.6-7.43,9.17,0,0-.42-.45-.42-.45,6.8-11.39,12.54-23.27,14.4-36.54,1.14-8.17,1.37-16.46,2.07-24.7.23-2.61-.77-5.42,1.18-7.77Z"/><path class="cls-1" d="M426.12,117.07c-16.86-7.28-33.26-4.48-50.27,2.4C385,109.15,411.76,107.93,426.12,117.07Z"/><path class="cls-1" d="M324.13,139.67c.05,2.47-1.37,4.17-3.05,5.7-7.69,7-13.79,15.73-22.86,21.26l-.24-.25c3.33-6.85,9.87-10.81,14.75-16.27,3.43-3.83,7.33-7.25,11-10.85Z"/><path class="cls-1" d="M330.91,165.43c-.39,5.58-5.29,8.28-8.32,11.91-4.68,5.63-9.38,11.58-16.17,15.1L306,192c7.46-9.65,16.28-18.07,24.59-27Z"/><path class="cls-1" d="M447.23,162.46c-2.46-9.43-3-19.3-6.16-28.61,4.73,9,7.92,18.3,7.42,28.63Z"/><path class="cls-1" d="M341.53,150.34c4.9-5.91,8.38-13,14.73-17.72l1.37,1.13q-7.2,9.06-14.39,18.11Z"/><path class="cls-1" d="M488.6,99.27c5.63-6,13.4-8.27,20.33-12C503.06,92.82,496.11,96.53,488.6,99.27Z"/><path class="cls-1" d="M329.2,205.73a34.79,34.79,0,0,1,13.42-13.67l.38.32A33.21,33.21,0,0,1,329.45,206Z"/><path class="cls-1" d="M348.53,112.56c-2.5,5.16-6.91,8.41-11.68,11.32,2.65-5,6-9.24,11.33-11.73Z"/><path class="cls-3" d="M447.23,162.46l1.26,0q0,12.18,0,24.35h-1.37Q447.18,174.64,447.23,162.46Z"/><path class="cls-1" d="M311.37,225.9c.94-4.73,3.91-7.68,8.28-9.38l.28.24c-1.39,4.28-5,6.67-8.08,9.54Z"/><path class="cls-1" d="M349.87,183c-.26,4.61-3.92,6.72-6.87,9.35l-.38-.32c.38-4.55,4-6.74,6.92-9.39Z"/><path class="cls-1" d="M330.55,165c1.07-3.69,4.09-5.78,6.73-8.17l.43.45c-.57,4.12-3,6.71-6.81,8.1Z"/><path class="cls-1" d="M329.45,132.71a9.47,9.47,0,0,1,5.42-6.7C334.33,129.74,334.33,129.74,329.45,132.71Z"/><path class="cls-1" d="M284.82,177.65c-1,3.16-3.15,5-7.26,6.53,1.68-4.06,3.79-6,6.89-7Z"/><path class="cls-1" d="M294.28,169.42a10,10,0,0,1-6.88,6.73l-.34-.4A10.06,10.06,0,0,1,294,169.1Z"/><path class="cls-1" d="M524.38,76.9c.66-3.14,2.76-4.6,7-5.8-2.13,3.56-3.85,5.44-6.75,6.06Z"/><path class="cls-1" d="M367.18,124.67c1.25-4.14,3.63-4.59,7-5.6C372.46,122.22,370.54,123.32,367.18,124.67Z"/><path class="cls-1" d="M323.74,139.26c.68-2.41,1.86-4.35,5.08-5-.21,3.31-2.11,4.65-4.69,5.46Z"/><path class="cls-1" d="M355.23,177.52c-.78,2.82-2.35,4.87-5.36,5.51l-.33-.36a7.16,7.16,0,0,1,5.28-5.59Z"/><path class="cls-1" d="M361.62,128.34c.41-1.82,1.18-3.28,3.85-3.33.09,2.54-1.51,3.27-3.47,3.72Z"/><path class="cls-1" d="M337.28,156.87c.48-1.72,1-3.4,3.67-3.51.23,2.5-1.26,3.4-3.24,3.95Z"/><path class="cls-1" d="M514.94,83.69c.32-2.45,2.12-2.68,4.06-2.7l.21.21a4.77,4.77,0,0,1-4.08,2.72Z"/><path class="cls-1" d="M515.13,83.92c-.7,1.14-1.44,2.26-3,2.12-.22,0-.62-.69-.54-.9.6-1.59,2.1-1.27,3.35-1.44Z"/><path class="cls-1" d="M519,81c.18-1.09.5-2,1.88-2a.61.61,0,0,1,.44.41c0,1.41-1.07,1.59-2.11,1.79Z"/><path class="cls-1" d="M319.65,216.52l1.23-2.19.85.59-1.8,1.84Z"/><path class="cls-1" d="M325.46,210.09c-.22.55-.45,1.09-.67,1.64a6.44,6.44,0,0,1-.68-.54c.31-.49.67-.95,1-1.42Z"/><path class="cls-1" d="M284.45,177.21l2.61-1.46.34.4-2.58,1.5Z"/><path class="cls-1" d="M348.18,112.15l2.63-1.43.3.35-2.58,1.48S348.18,112.15,348.18,112.15Z"/><path class="cls-1" d="M298.22,166.63l-.82.53.58-.77Z"/><path class="cls-1" d="M326.47,208.43l1.4-1.34.23.23-1.3,1.44Z"/><path class="cls-1" d="M327.87,207.09l1.33-1.35.25.25-1.35,1.33Z"/><path class="cls-1" d="M325.14,209.77l1.33-1.34.33.33-1.35,1.33Z"/><path class="cls-1" d="M360.68,130.08c-.31.4-.55,1.1-1.13.29,0-.05.44-.48.69-.73Z"/><path class="cls-1" d="M308.9,306.22l-1.33-1.36.1-.11,1.36,1.34Z"/><path class="cls-1" d="M362,128.73l-1.32,1.34-.44-.43,1.38-1.29Z"/><path class="cls-1" d="M433.7,121.8a2,2,0,0,1,.48.26c.07.07.05.24.06.37l-.51-.66Z"/><path class="cls-1" d="M433.73,121.77l-.66-.52c.13,0,.3,0,.38.07a2,2,0,0,1,.25.48Z"/><path class="cls-1" d="M429.65,119.06l.65.61c-.14,0-.33,0-.41-.08a1.62,1.62,0,0,1-.25-.51Z"/><path class="cls-1" d="M429.64,119.08l-.64-.64c.15,0,.35,0,.43.09a1.79,1.79,0,0,1,.22.53Z"/><path class="cls-1" d="M524.65,77.16l-.83.52.56-.78Z"/><path class="cls-1" d="M294,169.1l.86-.51-.54.83Z"/><path class="cls-1" d="M767.11,306.28c-9-8.31-12.68-24.09-5.59-38.75,3.65-7.57,8.68-14.22,13.3-21.15,13-19.55,18.4-40.43,10.36-63.46-2.29-6.58-4.36-13.19-5-20.24-.63-6.66,2.59-11,9.22-11.13a37.34,37.34,0,0,1,15.87,2.8c15.79,7,30.09,16.32,41.29,29.68,10.74,12.81,12.86,27.59,8.11,43.25-7.79,25.67-17.71,50.6-27.59,75.53-1.16,2.94-2.54,5.83-5.47,7.53l-.26-.26a6.81,6.81,0,0,1,.26-2c11.69-25.89,21.33-52.56,30-79.58,4.52-14,4.42-28.17-5.16-39.85-14.27-17.39-31.78-30.47-55-33.82-5.31-.77-8.07,1.37-8.14,7-.1,7.42,2.67,14.1,4.83,21a70.43,70.43,0,0,1,2.73,31.31c-2.31,16.72-11.14,30.16-20.5,43.54-8.28,11.84-13.61,24.5-7.18,39.25,1.34,3.07,4.25,5.41,4.19,9.1Z"/><path class="cls-1" d="M814.8,315.76c-.14.42-.14,1-.43,1.24-10.16,7.72-38.59,6-47.26-10.72l.31-.31a7.16,7.16,0,0,1,2.43,1c12.95,13.3,28.25,14.13,44.8,8.56Z"/><path class="cls-1" d="M821.59,310.34c-.91,3.5-3.08,5.42-6.79,5.42l-.15-.18c1.79-2.36,3.48-4.84,6.68-5.5Z"/><path class="cls-1" d="M877,521.68a32,32,0,0,1,8.17,8.17Q877.53,529.36,877,521.68Z"/><path class="cls-2" d="M158.88,583.88c11.1-1.69,22.17,3.31,32.91,9.33,8.35,4.68,9.49,9.78,4.39,17.73C186.5,626,173.86,637.18,155.38,639c-17.25,1.72-33.68-4.8-34.43-23.52-.62-15.65,9-31.53,28.73-31.62Z"/><path class="cls-2" d="M367.11,504.28l1.39,1.26c.67,3.24-1.11,6.09-1.51,9.15L365.67,516c-20.11,9.95-41.15,17.71-61.95,26-6,2.41-12.24,4.44-18.45,6.39-2.54.8-5.73,1.38-7.77-.42-2.45-2.18-.4-5.22.55-7.5,2.95-7.05,6.29-14,11.84-19.46,1.63-1.62,3-3.33,3.14-5.76a21.22,21.22,0,0,0,4.29-1.8c18.07-12.57,37.57-17.58,59.26-11.47C360,502.94,363.6,503.52,367.11,504.28Z"/><path class="cls-2" d="M363.23,803.65c-4.31.41-7.49,3.68-11.79,4.47a17.22,17.22,0,0,1-8.5-.65c-4.63-1.46-5.54-6.35-1.77-9.36a25.36,25.36,0,0,1,10.78-5.2c7.88-1.57,11.27,1.8,11.24,10.78Z"/><path class="cls-2" d="M821.33,310.08c-3.2.66-4.89,3.14-6.68,5.5-16.55,5.57-31.85,4.74-44.8-8.56a7.16,7.16,0,0,0-2.43-1c.07-3.69-2.84-6-4.18-9.1-6.43-14.75-1.1-27.41,7.18-39.25,9.36-13.38,18.19-26.82,20.5-43.54a70.43,70.43,0,0,0-2.73-31.31c-2.16-6.86-4.93-13.54-4.83-21,.07-5.61,2.83-7.75,8.14-7,23.18,3.35,40.69,16.43,55,33.82,9.58,11.68,9.68,25.82,5.16,39.85-8.7,27-18.34,53.69-30,79.58A6.81,6.81,0,0,0,821.33,310.08Z"/></svg>