<svg xmlns="http://www.w3.org/2000/svg" width="67" height="118" viewBox="0 0 67 118" fill="none">
  <path d="M17.7865 26.4857C17.3469 26.128 16.947 25.5739 16.1471 24.4656C15.3076 23.2865 14.7532 22.3118 14.5631 22.0092C13.7315 20.669 12.6267 18.5938 12.7653 18.2047C14.4149 19.1465 16.0118 20.1764 17.5489 21.29C18.2656 21.9345 19.6516 23.1764 20.3763 25.0315C20.7045 25.8847 20.8839 26.7871 20.9069 27.7001C19.7717 27.5976 18.6893 27.1763 17.7865 26.4857ZM12.1951 19.8397V12.0697H14.5433C14.9155 11.6767 15.2046 11.1893 15.5412 10.7413C15.8778 10.2932 16.2183 10.0731 16.4441 10.0731C16.6698 10.0731 17.236 10.4465 18.0795 11.1893C19.0536 12.0107 19.5447 12.5138 19.5447 12.7024C19.5447 13.2605 19.022 12.8439 18.4557 12.8479H12.1951M12.1951 19.3759V48.7385C11.8533 49.1429 11.4416 49.4836 10.9794 49.7447C10.7989 49.8385 10.6091 49.9135 10.4131 49.9687C10.2309 50.028 10.0421 50.065 9.85081 50.0787C9.39938 50.0787 9.17367 49.6857 9.17367 48.9626C9.17367 45.8184 9.24891 42.5838 9.06279 39.2274V21.8166C9.39939 21.7498 9.30831 21.7341 9.28455 21.7969C9.06279 22.976 1.14297 34.0749 0.798462 33.7448C2.96663 30.5275 4.94209 27.1862 6.71457 23.7385C8.29853 20.6297 9.84686 15.9684 9.84686 12.8636H6.71457C4.47326 12.8636 3.77236 13.119 3.43576 13.3352L2.4537 13.1898L2.31511 13.009C2.2306 12.8999 2.17996 12.7688 2.16939 12.6316C2.15882 12.4945 2.18877 12.3572 2.25559 12.2367C2.32241 12.1161 2.42318 12.0176 2.54558 11.953C2.66798 11.8884 2.80669 11.8607 2.94474 11.8732C4.28463 11.9988 5.6301 12.0565 6.97592 12.0461L9.84686 12.0854V4.29965C9.84686 1.89043 9.21723 0.896088 8.95192 0L12.7811 0.672066M20.1387 39.872C19.5961 39.306 19.0932 38.7676 18.6379 38.2645C18.5947 38.2154 18.5645 38.1564 18.5501 38.0929C18.5356 38.0293 18.5373 37.9632 18.5549 37.9004C18.5726 37.8377 18.6057 37.7803 18.6513 37.7334C18.6969 37.6865 18.7535 37.6516 18.816 37.6318C20.2099 37.2125 21.8441 36.6335 23.7184 35.8946C23.7942 35.8665 23.8595 35.816 23.9055 35.75C23.9515 35.6839 23.9761 35.6055 23.9758 35.5252V9.22027C23.9758 8.18663 22.372 7.40845 23.1561 7.40845H24.7203C24.8153 7.40845 26.9774 7.26303 27.0725 7.27875C32.9212 6.13506 34.5963 5.11713 34.5963 4.111C34.5891 4.0404 34.6026 3.96926 34.6352 3.90607C34.6677 3.84288 34.7178 3.79031 34.7796 3.75467C34.8415 3.71902 34.9123 3.70179 34.9837 3.70504C35.0551 3.70829 35.1241 3.73189 35.1824 3.773C36.2753 4.55904 36.8033 4.95206 36.7663 4.95206C37.1623 5.14071 37.388 5.38439 37.388 5.67916C37.388 5.79182 37.2375 5.8665 36.9366 5.90318L35.2734 5.69095C35.2226 5.67921 35.1698 5.67921 35.119 5.69095C31.8481 6.55559 28.9217 7.65605 26.2171 8.51283C26.1934 8.51283 26.1736 8.11981 27.0685 8.15912V34.747C26.1736 34.7902 26.2132 34.8217 26.2567 34.802C28.1258 34.016 30.1058 33.1094 32.1966 32.0823C32.2565 32.0538 32.3082 32.0107 32.347 31.9572C32.3857 31.9036 32.4103 31.8412 32.4183 31.7757C32.7035 29.7006 32.9014 27.3425 33.0123 24.7014C33.0123 17.8235 32.8909 13.4872 32.648 11.6924C32.6398 11.6316 32.6461 11.5698 32.6662 11.5118C32.6864 11.4539 32.72 11.4014 32.7642 11.3587C32.8085 11.3159 32.8622 11.284 32.9211 11.2655C32.98 11.247 33.0424 11.2425 33.1034 11.2522C34.3363 11.4566 35.5242 11.6884 36.6673 11.9478C37.4593 12.0618 37.8553 12.3055 37.8553 12.6749C37.8553 12.8243 37.5702 13.0129 37.0079 13.2369C35.8199 13.63 35.2061 13.9994 35.2061 14.416V24.7053C35.016 29.9299 34.5276 33.6596 33.7409 35.8946C32.2758 40.0318 30.2655 43.2192 27.71 45.4568C25.041 47.7324 23.6828 48.2708 20.0397 49.3517L18.0161 49.8193C21.9998 48.0311 24.7916 46.1603 26.526 44.3406C28.6259 42.0572 30.2706 39.3993 31.3729 36.5077C31.6522 35.6651 31.8809 34.8068 32.058 33.9374C32.0718 33.8647 32.0648 33.7896 32.0375 33.7207C32.0103 33.6518 31.964 33.592 31.904 33.548C31.844 33.5041 31.7728 33.4779 31.6984 33.4723C31.6241 33.4668 31.5497 33.4823 31.4838 33.5168C31.1749 33.6269 32.2758 32.774 22.376 38.4768M49.5093 37.6278V7.48312C49.5093 7.46748 49.503 7.45249 49.4919 7.44144C49.4808 7.43038 49.4657 7.42417 49.4499 7.42417H42.2904C42.2587 7.42417 42.231 6.59096 42.627 7.20801L41.938 50.1259C41.542 49.5442 41.938 45.4647 41.938 45.4686L42.4567 49.3713C42.4567 49.8193 43.4704 49.9412 42.7181 50.1259C42.231 50.2399 40.4807 50.4914 40.259 50.4914C39.8075 50.4914 39.5818 50.118 39.5818 49.3713L39.8075 46.1328V9.43644C39.822 7.62545 39.6038 5.82003 39.1581 4.06384C39.1551 4.05325 39.1551 4.04203 39.1582 4.03146C39.1613 4.02089 39.1673 4.01139 39.1755 4.00402C39.1838 3.99666 39.1939 3.99174 39.2048 3.98981C39.2158 3.98787 39.227 3.98901 39.2373 3.99309C40.4035 4.41105 41.4728 5.05801 42.3815 5.89532C42.3815 5.89532 45.0663 8.17877 42.4211 6.6224H49.0222L49.7627 5.83636L50.5547 5.05032C51.0418 4.5669 50.6022 4.44114 50.8596 4.38218C51.3388 4.27214 51.6873 4.77521 52.6653 5.50229C53.242 5.97046 53.6091 6.64559 53.687 7.38094C53.2215 7.95768 52.69 8.47867 52.103 8.93337C51.4655 9.32639 52.103 7.75431 52.103 8.14733L51.9169 38.6576C51.9169 40.0384 51.2213 41.1205 49.8301 41.9039M50.0083 42.9611C49.4776 42.7646 48.9153 42.3677 47.7986 41.5738C46.6107 40.7366 45.783 39.982 45.5058 39.7541C44.2822 38.7479 42.5636 37.1366 42.5676 36.7239C44.4393 37.0906 46.2899 37.5564 48.1115 38.1191C48.9985 38.5121 50.7131 39.2314 52.004 40.7602C52.5895 41.4646 53.0514 42.2618 53.3702 43.1183C52.2648 43.3947 51.103 43.3538 50.0201 43.0004L50.0083 42.9611Z" fill="#800303"/>
  <path d="M59.3774 114.585C58.5023 113.846 57.7935 112.773 56.3916 110.628C55.4123 109.106 54.5186 107.531 53.7148 105.911C52.3248 103.353 50.5983 99.4422 51.0735 98.8015C51.0735 98.8015 57.1718 102.484 60.8861 105.432C62.288 106.744 64.9886 109.276 65.9311 112.703C66.3462 114.269 66.4016 115.907 66.0934 117.498C66.0934 117.498 62.1216 116.896 59.3774 114.585Z" fill="#800303"/>
  <path d="M6.13241 105.282C5.41962 106.143 5.06323 106.811 5.06323 107.299C5.06323 107.786 5.5503 108.116 6.41356 108.191C6.86499 108.191 7.37318 107.875 7.93813 107.244C8.77364 106.245 9.33677 105.05 9.57357 103.773C10.0752 102.018 10.3392 99.1356 10.3656 95.1268C10.3656 95.0522 10.2586 95.0246 10.2388 95.0993C9.84284 96.4199 8.77367 100.228 8.33808 101.242C7.81524 102.693 7.07137 104.056 6.13241 105.282Z" fill="#800303"/>
  <path d="M23.8846 103.718C24.2707 103.245 24.4718 102.649 24.4509 102.04C24.4509 101.297 23.9519 99.8902 23.156 98.3063L19.5921 93.3739C19.5823 93.3631 19.569 93.356 19.5545 93.3538C19.54 93.3515 19.5252 93.3544 19.5126 93.3618C19.5 93.3692 19.4904 93.3808 19.4854 93.3944C19.4804 93.4081 19.4803 93.4231 19.4852 93.4368C20.986 96.8561 21.9126 100.173 22.0195 103.392C22.0195 103.95 22.3205 104.229 22.9184 104.229C23.1106 104.237 23.3014 104.193 23.4712 104.104C23.641 104.014 23.7837 103.881 23.8846 103.718Z" fill="#800303"/>
  <path d="M15.2086 101.254C15.1644 102.717 14.9369 104.17 14.5315 105.577C14.5133 105.699 14.5242 105.823 14.5632 105.94C14.6023 106.057 14.6683 106.163 14.7561 106.249C14.844 106.336 14.9511 106.401 15.0689 106.439C15.1867 106.478 15.3118 106.488 15.4343 106.469C15.7313 106.469 16.1828 106.076 16.7847 105.29C17.3891 104.405 17.6865 103.348 17.6321 102.28C17.1218 99.4694 16.2804 96.7283 15.1255 94.1128C15.1201 94.0979 15.1096 94.0854 15.0957 94.0775C15.0819 94.0696 15.0658 94.0668 15.0501 94.0696C15.0344 94.0725 15.0202 94.0807 15.0101 94.093C15 94.1052 14.9946 94.1206 14.9948 94.1364L15.2086 101.254Z" fill="#800303"/>
  <path d="M8.27867 91.3106C10.5002 89.2826 20.8039 88.2018 21.5879 88.98C22.1106 89.4987 22.1225 89.9232 22.3799 90.5324C22.5621 90.9804 23.5679 92.2066 23.7144 92.1045C23.8794 91.9989 24.0154 91.8544 24.1104 91.6839C24.7163 90.5049 24.5856 90.7289 24.6767 90.0608C24.7163 89.7463 24.3361 88.4612 23.659 87.1524C22.8913 85.7585 21.9609 84.4591 20.887 83.2811C20.6969 83.065 20.491 82.8449 20.293 82.6248C20.0436 82.5894 21.1801 85.5096 21.7622 87.9384C21.9087 88.5515 21.8216 88.1428 10.8882 88.807C10.8738 88.8083 10.8593 88.8045 10.8472 88.7964C10.8352 88.7882 10.8264 88.7763 10.8222 88.7624C10.818 88.7486 10.8187 88.7338 10.8243 88.7204C10.8298 88.7071 10.8398 88.696 10.8526 88.6891C12.7494 87.7734 14.472 85.3877 16.9073 82.7545C18.8675 80.6361 20.8039 77.5981 22.7125 73.2355V73.2159C22.8789 72.9643 23.9401 72.8425 23.9401 72.6578C23.9401 72.363 22.5581 70.6691 21.477 69.9695C21.4688 69.9642 21.4593 69.961 21.4495 69.9599C21.4397 69.9589 21.4298 69.9601 21.4206 69.9636C21.4114 69.967 21.4031 69.9725 21.3964 69.9797C21.3897 69.9869 21.3848 69.9955 21.382 70.0049C20.4751 72.4437 19.3981 74.8167 18.1586 77.1068C18.1539 77.1174 18.1462 77.1265 18.1363 77.1328C18.1265 77.1391 18.1149 77.1423 18.1032 77.1421L11.5377 77.3151C11.5259 77.3157 11.5142 77.313 11.5039 77.3073C11.4936 77.3016 11.485 77.2932 11.4793 77.283C11.4735 77.2728 11.4707 77.2612 11.4713 77.2495C11.4718 77.2378 11.4756 77.2265 11.4822 77.2168C14.365 72.8936 15.1847 68.873 16.8875 64.8996C17.0697 64.6559 19.1209 63.3707 19.9881 62.5965C19.9226 62.6368 19.8493 62.6631 19.773 62.674C19.6967 62.6848 19.6189 62.6798 19.5446 62.6593C19.4375 62.6417 19.3326 62.6127 19.2318 62.5729L15.7273 61.2445C15.7179 61.2407 15.7078 61.2392 15.6977 61.2401C15.6876 61.241 15.6779 61.2443 15.6694 61.2497C15.6609 61.2551 15.6538 61.2624 15.6487 61.2711C15.6436 61.2797 15.6407 61.2895 15.6401 61.2995C14.9036 66.5306 13.8146 68.3188 12.9672 70.339C11.9906 72.7346 10.7418 75.0118 9.24488 77.1264C9.23814 77.1347 9.22971 77.1414 9.22015 77.1461C9.21059 77.1509 9.20013 77.1535 9.18945 77.1539C8.22044 77.1804 7.25111 77.1146 6.29475 76.9574C6.28337 76.9543 6.27129 76.9546 6.26006 76.9582C6.24884 76.9619 6.23898 76.9689 6.23175 76.9782C6.22452 76.9874 6.22024 76.9987 6.21947 77.0104C6.21871 77.0221 6.22148 77.0338 6.22744 77.0439C6.45309 77.7491 6.87608 78.3761 7.44709 78.8518C7.4592 78.8604 7.47375 78.8651 7.48867 78.8651C7.50358 78.8651 7.51813 78.8604 7.53024 78.8518C7.93158 78.4286 8.4725 78.1623 9.05481 78.1011C10.3576 77.9557 12.9236 78.1011 17.6676 77.826C17.6796 77.8253 17.6915 77.8278 17.7022 77.8332C17.7129 77.8386 17.7219 77.8467 17.7283 77.8567C17.7348 77.8667 17.7384 77.8782 17.7389 77.8901C17.7394 77.902 17.7366 77.9138 17.731 77.9243C17.0684 79.106 16.3359 80.2478 15.5372 81.3435C13.9017 83.6427 10.6348 86.8851 8.28659 88.9642C8.27378 88.9687 8.2598 88.9687 8.24699 88.9642C3.57826 89.2158 5.14242 89.7503 5.14242 89.7503C5.93044 90.5324 8.12027 91.4678 8.27867 91.3106Z" fill="#800303"/>
  <path d="M40.2115 81.0881C40.2168 81.0805 40.2239 81.0744 40.2322 81.0703C40.2405 81.0662 40.2497 81.0642 40.259 81.0645H54.2058C54.9186 81.0645 55.275 80.7855 55.275 80.2274C55.275 80.0387 54.747 79.4793 53.691 78.5492C52.8278 77.7631 52.2615 77.3701 52.0001 77.3701C51.7388 77.3701 51.3784 77.6138 50.931 78.0972C50.4227 78.7939 50.0285 79.5659 49.7628 80.3846C49.7571 80.3968 49.7482 80.4072 49.7371 80.4148C49.7259 80.4225 49.7129 80.4269 49.6994 80.4278H43.6843C43.674 80.4283 43.6638 80.4264 43.6544 80.4221C43.6451 80.4178 43.637 80.4113 43.6307 80.4031C43.6245 80.395 43.6203 80.3855 43.6186 80.3754C43.6169 80.3653 43.6177 80.355 43.621 80.3453L47.1374 68.6647C47.1414 68.6508 47.1497 68.6384 47.1611 68.6293L48.8599 67.3245C48.8695 67.3178 48.8773 67.309 48.8828 67.2987C48.8883 67.2885 48.8913 67.2772 48.8916 67.2656C48.852 67.0035 48.4019 66.4795 47.5413 65.6935C46.7889 65.0253 46.282 64.6873 46.0167 64.6873C45.9058 64.6873 45.6207 64.8917 45.2247 65.3044C44.9951 65.4459 45.3158 65.4144 45.0584 67.1791C45.0557 67.1951 45.0475 67.2097 45.0353 67.2204C45.023 67.2311 45.0074 67.2374 44.9911 67.238H34.3785C34.3687 67.2384 34.3589 67.2364 34.35 67.2323C34.341 67.2282 34.3332 67.2221 34.327 67.2145C34.3209 67.2068 34.3166 67.1979 34.3146 67.1883C34.3125 67.1788 34.3127 67.1689 34.3152 67.1594L35.02 64.5458C35.0244 64.5299 35.0342 64.516 35.0478 64.5065C35.4486 64.191 35.9271 63.9874 36.4337 63.917C37.4118 63.7677 37.8989 63.524 37.8989 63.1899C37.8989 62.8559 37.4277 62.5572 36.4892 62.2938C35.5161 61.9576 34.5229 61.682 33.5153 61.4685C33.498 61.465 33.4799 61.4684 33.4651 61.4779C33.4503 61.4875 33.4399 61.5025 33.4361 61.5196C32.9081 64.6166 31.2396 69.3328 28.4307 75.6683C28.4232 75.7992 28.4503 75.9297 28.5094 76.0469C28.5684 76.1641 28.6574 76.264 28.7673 76.3365C29.026 76.5819 29.3679 76.7221 29.7256 76.7295C29.8986 76.7184 30.0677 76.673 30.2227 76.5961C30.3778 76.5191 30.5157 76.4122 30.6285 76.2814L31.7254 73.5107C31.7307 73.499 31.739 73.4889 31.7494 73.4813C31.7598 73.4738 31.772 73.469 31.7848 73.4674H43.1735C43.1835 73.4677 43.1933 73.4702 43.2022 73.4748C43.2111 73.4793 43.2189 73.4858 43.225 73.4937C43.231 73.5016 43.2353 73.5108 43.2373 73.5205C43.2394 73.5302 43.2392 73.5403 43.2368 73.55L41.1856 80.4121C41.1814 80.4256 41.173 80.4374 41.1617 80.4459C41.1503 80.4544 41.1365 80.4591 41.1223 80.4593H28.8267C24.3124 80.4593 23.9481 79.8029 23.3106 79.2802C23.3002 79.2693 23.2862 79.2625 23.2711 79.2609C23.2561 79.2594 23.241 79.2632 23.2286 79.2718C23.2161 79.2803 23.2072 79.293 23.2033 79.3075C23.1995 79.322 23.201 79.3375 23.2076 79.351L23.9521 81.4693C23.9544 81.4786 23.9591 81.4871 23.9657 81.494C23.9723 81.5009 23.9806 81.506 23.9898 81.5087C23.9989 81.5115 24.0087 81.5119 24.018 81.5098C24.0274 81.5077 24.0361 81.5032 24.0432 81.4968C24.6253 81.1038 26.3597 81.2414 28.8267 81.1038H37.491C37.5032 81.1034 37.5153 81.1063 37.526 81.1122C37.5367 81.1181 37.5455 81.1267 37.5516 81.1372C37.5577 81.1477 37.5609 81.1596 37.5606 81.1718C37.5604 81.1839 37.5569 81.1957 37.5504 81.206C36.2595 83.1357 34.3825 84.4838 32.7154 85.6904C30.6919 87.1563 28.9693 88.8345 26.2647 89.7935L25.5559 90.1079C28.6368 89.1176 31.5879 87.7665 34.3469 86.0834C34.5422 85.9819 34.7312 85.869 34.9131 85.7454C35.5784 86.555 36.208 87.3961 36.802 88.2765C36.8107 88.2885 36.8154 88.3029 36.8154 88.3177C36.8154 88.3325 36.8107 88.347 36.802 88.359C33.0955 92.7058 29.2386 96.4434 24.7045 98.3417L24.6649 98.3889C29.6009 96.6099 34.1093 93.8298 37.9029 90.2258C37.9083 90.2177 37.9156 90.2111 37.9243 90.2065C37.9329 90.2019 37.9425 90.1995 37.9523 90.1995C37.9622 90.1995 37.9718 90.2019 37.9804 90.2065C37.9891 90.2111 37.9964 90.2177 38.0018 90.2258C38.5545 91.2645 39.0105 92.3512 39.3641 93.4722C39.3716 93.4925 39.3716 93.5148 39.3641 93.5351C37.004 96.7605 34.7943 99.1369 32.7352 100.664C29.8048 102.979 26.2845 104.54 23.1522 106.87L22.479 107.322C26.2911 106.196 29.9307 104.559 33.2975 102.457C35.3012 101.204 37.4857 99.226 39.8511 96.522C39.8595 96.5132 39.8702 96.5067 39.882 96.5034C39.8938 96.5001 39.9063 96.5001 39.9181 96.5034C39.9299 96.5066 39.9406 96.513 39.9491 96.5218C39.9575 96.5306 39.9633 96.5416 39.966 96.5535C40.1935 98.3049 40.3007 100.07 40.2867 101.836C40.0966 103.882 39.6452 105.335 38.9324 106.194C38.5206 106.642 37.6573 106.866 36.3427 106.866C34.4301 106.825 32.5248 106.618 30.6483 106.249L30.4226 106.866C33.4664 107.574 35.2141 108.412 35.6655 109.382C35.816 109.904 36.0417 110.168 36.3427 110.168C37.392 110.168 38.5444 109.327 40.1719 108.097C42.037 106.689 42.2627 104.606 42.5478 101.832C42.9445 98.4677 42.3459 95.0619 40.8253 92.0298C40.8161 92.0203 40.8109 92.0076 40.8109 91.9944C40.8109 91.9812 40.8161 91.9686 40.8253 91.9591C42.0647 90.9058 44.2743 88.2411 43.4982 90.5481C44.1428 91.2403 44.6769 92.0263 45.0822 92.8787C45.0822 92.0927 44.3456 91.8726 44.2506 90.045C44.2506 90.045 44.2506 90.0254 44.2506 90.0136C44.3892 88.0249 46.6543 87.4393 49.0025 85.8908L54.4711 84.3423H52.8872C52.1783 84.3423 49.5292 84.9829 49.05 85.1008C49.0404 85.1027 49.0305 85.1023 49.0211 85.0997C49.0117 85.0972 49.003 85.0924 48.9957 85.086C48.9884 85.0795 48.9827 85.0714 48.9791 85.0624C48.9754 85.0534 48.974 85.0437 48.9748 85.034V82.786C48.1828 85.1166 46.0246 86.8694 44.112 88.359C42.9588 89.4071 41.713 90.3502 40.3897 91.177C40.3826 91.1817 40.3745 91.1849 40.3661 91.1863C40.3576 91.1877 40.3489 91.1873 40.3406 91.1851C40.3324 91.1828 40.3247 91.1788 40.3181 91.1734C40.3115 91.1679 40.3062 91.1611 40.3026 91.1534C39.1308 88.9457 37.5789 86.9585 35.717 85.2816C35.7088 85.2763 35.7021 85.269 35.6975 85.2604C35.6928 85.2518 35.6904 85.2422 35.6904 85.2325C35.6904 85.2228 35.6928 85.2132 35.6975 85.2046C35.7021 85.1961 35.7088 85.1888 35.717 85.1834C37.3822 84.0107 38.8922 82.6348 40.2115 81.0881ZM32.0976 73.0115C32.087 73.011 32.0767 73.0079 32.0676 73.0027C32.0584 72.9974 32.0506 72.9901 32.0448 72.9813C32.039 72.9725 32.0354 72.9625 32.0342 72.952C32.0331 72.9415 32.0345 72.931 32.0382 72.9211L34.1251 67.8118C34.131 67.8001 34.14 67.7902 34.1512 67.7833C34.1624 67.7764 34.1753 67.7726 34.1885 67.7725H44.8802C44.8905 67.772 44.9008 67.774 44.9101 67.7783C44.9194 67.7826 44.9276 67.7891 44.9338 67.7972C44.9401 67.8054 44.9442 67.8149 44.9459 67.825C44.9476 67.835 44.9468 67.8454 44.9436 67.8551L43.4032 72.984C43.3996 72.9978 43.3913 73.01 43.3798 73.0186C43.3683 73.0272 43.3542 73.0316 43.3398 73.0312L32.0976 73.0115Z" fill="#800303"/>
</svg>