<svg id="圖層_2" data-name="圖層 2" xmlns="http://www.w3.org/2000/svg" viewBox="0 0 650 380"><defs><style>.cls-1{fill:#800303;}</style></defs><path class="cls-1" d="M316.1,89q50.23,0,100.47,0c16.67,0,19.64,2.06,22.52,18,1.18,6.54,3.93,8.6,10.5,9.18,14.1,1.25,18.09,5.77,18.14,19.59q.19,60.94,0,121.9c0,18.22-3.88,22.22-22.76,22.28-51.07.17-102.14.08-153.21.07-16.74,0-33.5.26-50.23-.17-16.13-.41-19.6-3.48-21.18-19.26-.69-6.87-3.66-8.65-10.23-9.17-14-1.12-18-5.6-18.06-19.58q-.19-62.16,0-124.33c0-14.71,4.15-18.44,19.76-18.48C246.61,89,281.36,89,316.1,89ZM203.71,200.67l3.41,1.66c14.94-14.7,29.81-29.48,44.85-44.1,27.62-26.85,23.28-27,50.8-.35,23.68,23,23.7,22.94,47.3.13,14.39-13.9,16.9-13.89,31.49.16,14.12,13.61,28.24,27.2,44.79,43.13,0-31.51-.28-59.8.16-88.08.15-10.2-4.08-13.51-14.19-13.36-26.8.41-53.61.13-80.41.13q-57.17,0-114.34,0c-6.23,0-13.71-.8-13.77,8.27C203.58,139.09,203.71,169.88,203.71,200.67Zm110.68,39.74c32.62,0,65.25-.33,97.86.19,11.24.18,14.84-4.12,14.26-14.43a20.87,20.87,0,0,0-7-14.92c-10.76-10.22-21.32-20.64-31.92-31-24.24-23.74-24.11-23.64-46.2,3-4,4.82-4.24,8.15.31,12.39,7.55,7,14.91,14.24,22.16,21.54,3.09,3.11,7.94,6.82,3.63,11.28-5.22,5.41-8.74-.59-12.35-3.48-1.92-1.55-3.58-3.41-5.35-5.13Q317,188,284.26,156c-3.7-3.62-6.74-7.17-12.19-1.69-21.18,21.33-42.64,42.4-64,63.54-5.4,5.33-5.77,12-3.38,18.13,2.44,6.34,9.23,4.34,14.39,4.36C250.83,240.49,282.61,240.42,314.39,240.41Zm30.68,29.12q49,0,98,0c6.62,0,13.08-.07,13.08-9q0-61.58,0-123.16c0-5.49-2.59-8.28-8.38-8.23s-8.12,3.29-8.19,8.54c0,3.25-.12,6.5-.12,9.76,0,26,.08,52,0,78-.1,20.81-5.57,26.11-26.64,26.13q-82.92,0-165.84.06c-6,0-13.34-1.6-13.5,8.1s6.45,9.8,13.62,9.79Q296.08,269.47,345.07,269.53Z"/><path class="cls-1" d="M341,123.9c.11,8.77-8.19,17.2-17.31,17.58a17.47,17.47,0,1,1-.23-34.91C332.63,106.78,340.85,114.91,341,123.9Z"/></svg>