<svg width="400" height="437" viewBox="0 0 400 437" fill="none" xmlns="http://www.w3.org/2000/svg">
<g>
<path d="M-288.114 200.143C-218.067 139.167 -38.0891 157.084 63.955 218.483C136.597 262.187 226.166 372.581 341.541 385.135C559.574 408.858 682.854 277.246 692.954 259.149" stroke="#9B2D2D" stroke-miterlimit="10"/>
<path d="M-306.189 209.313C-252.021 174.292 -143.3 174.383 -44.4217 188.118C3.76869 194.828 51.5916 204.245 89.1905 222.179C163.269 257.511 248.53 358.806 358.525 369.415C562.19 389.055 680.062 269.148 698.781 252.08" stroke="#9B2D2D" stroke-miterlimit="10"/>
<path d="M-324.265 218.483C-262.98 189.426 -142.305 194.96 -33.9122 202.878C18.8784 206.761 72.4204 210.305 114.426 225.878C189.368 253.659 270.885 345.051 375.505 353.695C564.788 369.327 677.266 261.047 704.585 245.016" stroke="#9B2D2D" stroke-miterlimit="10"/>
<path d="M-342.341 227.653C-273.955 204.556 -141.314 215.52 -23.4124 217.633C33.9751 218.698 93.0491 216.609 139.661 229.594C215.095 250.581 293.22 331.344 392.488 337.99C567.374 349.7 674.474 252.969 710.403 237.967" stroke="#9B2D2D" stroke-miterlimit="10"/>
<path d="M-360.417 236.822C-284.928 219.679 -140.32 236.089 -12.893 232.393C49.0914 230.631 113.583 223.223 164.897 233.27C240.613 248.105 315.568 317.637 409.461 322.25C569.91 330.136 671.669 244.848 716.21 230.878" stroke="#9B2D2D" stroke-miterlimit="10"/>
<path d="M-378.493 245.992C-295.9 234.829 -139.329 256.653 -2.38351 247.149C64.1978 242.564 134.044 230.156 190.132 236.966C266.032 246.184 337.889 303.994 426.451 306.53C572.482 310.708 668.886 236.759 722.038 223.809" stroke="#9B2D2D" stroke-miterlimit="10"/>
<path d="M-396.572 255.162C-306.875 249.955 -138.345 277.222 8.1261 261.908C79.3076 254.5 155.326 228.051 215.364 240.666C290.401 256.43 360.264 286.954 443.434 290.809C574.92 296.897 666.091 228.653 727.852 216.744" stroke="#9B2D2D" stroke-miterlimit="10"/>
<path d="M-414.648 264.332C-317.854 265.09 -137.344 297.79 18.6356 276.668C94.414 266.433 175.308 236.292 240.6 244.374C316.513 253.759 382.51 276.939 460.414 275.097C577.535 272.33 663.298 220.564 733.669 209.688" stroke="#9B2D2D" stroke-miterlimit="10"/>
<path d="M-432.724 273.502C-328.82 280.22 -136.35 318.359 29.1452 291.443C109.534 278.386 195.52 253.061 265.835 248.077C342.447 242.651 404.809 263.587 477.398 259.384C580.049 253.444 660.486 212.474 739.487 202.627" stroke="#9B2D2D" stroke-miterlimit="10"/>
<path d="M-450.8 282.672C-339.795 295.354 -135.359 338.927 39.6547 306.195C124.637 290.311 216.152 261.326 291.07 251.765C368.119 241.926 427.117 250.378 494.381 243.644C582.572 234.797 657.711 204.353 745.305 195.538" stroke="#9B2D2D" stroke-miterlimit="10"/>
<path d="M-468.876 291.842C-350.754 310.489 -134.365 359.496 50.1644 320.946C139.74 302.244 236.889 269.882 316.306 255.461C393.892 241.371 449.462 237.52 511.361 227.932C585.145 216.501 654.915 196.264 751.119 188.481" stroke="#9B2D2D" stroke-miterlimit="10"/>
<path d="M-486.952 301.012C-361.74 325.619 -133.374 380.06 60.6739 335.698C154.843 314.168 257.74 278.685 341.541 259.149C502.318 221.672 552.7 194.561 756.936 181.404" stroke="#9B2D2D" stroke-miterlimit="10"/>
<path d="M-448.398 248.982C-260.929 335.498 -91.1684 368.941 3.4176 372.975C108.72 377.469 334.716 284.267 446.866 226.456C496.491 200.884 539.415 192.942 573.027 188.381C637.666 179.61 786.66 196.874 829.286 214.695" stroke="#9B2D2D" stroke-miterlimit="10"/>
<path d="M-446.699 255.796C-261.789 337.101 -79.0773 372.776 14.8131 369.531C87.9206 366.991 195.845 329.064 299.946 288.313C359.145 265.217 413.474 242.863 453.983 224.523C467.387 218.451 480.298 213.539 492.701 209.444C525.614 198.604 554.774 194.274 579.304 192.169C607.23 189.777 647.92 192.129 688.472 196.252C745.892 202.2 808.211 210.17 832.984 218.686" stroke="#9B2D2D" stroke-miterlimit="10"/>
<path d="M-444.999 262.61C-262.645 338.716 -66.8419 375.87 26.2217 366.09C105.226 357.785 204.13 319.399 307.591 280.152C367.013 257.75 420.499 238.469 461.133 222.609C474.468 217.406 487.317 213.216 499.71 209.66C527.886 201.592 556.659 196.997 585.594 195.945C614.619 194.824 654.594 198.66 693.416 203.392C748.73 210.349 812.08 216.059 836.701 222.669" stroke="#9B2D2D" stroke-miterlimit="10"/>
<path d="M-443.296 269.423C-263.488 340.327 -54.5507 378.306 37.6007 362.645C122.583 348.205 212.382 309.739 315.187 271.995C374.832 250.282 427.465 234.044 468.233 220.687C481.499 216.342 494.289 212.877 506.669 209.863C538.565 202.108 567.292 198.7 591.848 199.728C621.962 200.988 661.238 205.099 698.318 210.541C751.542 218.355 815.905 221.951 840.393 226.656" stroke="#9B2D2D" stroke-miterlimit="10"/>
<path d="M-441.596 276.237C-264.365 341.941 -42.2693 380.232 48.9962 359.221C139.947 338.269 220.653 300.095 322.816 263.854C382.684 242.831 434.454 229.622 475.367 218.802C488.557 215.309 501.288 212.566 513.658 210.106C545.045 203.867 573.549 202.3 598.131 203.544C629.375 205.138 667.909 211.649 703.253 217.725C754.377 226.496 819.764 227.88 844.081 230.679" stroke="#9B2D2D" stroke-miterlimit="10"/>
<path d="M-439.897 283.071C-265.221 343.556 -30.0339 381.751 60.3916 355.76C157.274 327.911 228.922 290.41 330.431 255.688C390.526 235.355 441.42 225.149 482.487 216.856C495.611 214.205 508.273 212.187 520.634 210.286C551.513 205.541 579.809 205.023 604.402 207.303C636.764 210.302 674.566 218.148 708.175 224.846C757.199 234.618 823.609 233.745 847.775 234.638" stroke="#9B2D2D" stroke-miterlimit="10"/>
<path d="M-438.197 289.868C-266.081 345.171 -17.8804 382.955 71.7839 352.315C174.514 317.23 237.194 280.75 338.057 247.515C398.371 227.876 448.392 220.648 489.617 214.918C502.649 213.108 515.266 211.813 527.619 210.481C557.983 207.208 586.073 207.79 610.682 211.071C644.15 215.536 681.227 224.67 713.106 231.982C760.027 242.747 827.465 239.625 851.479 238.617" stroke="#9B2D2D" stroke-miterlimit="10"/>
<path d="M-436.497 296.682C-266.94 346.781 -5.80574 383.911 83.1794 348.875C191.641 306.163 245.462 271.086 345.672 239.358C406.213 220.408 455.355 216.13 496.737 212.997C509.694 212.016 522.248 211.438 534.598 210.684C564.457 208.866 592.327 210.601 616.955 214.855C651.532 220.835 687.888 231.201 718.032 239.131C762.849 250.908 831.31 245.51 855.184 242.603" stroke="#9B2D2D" stroke-miterlimit="10"/>
<path d="M-434.781 303.496C-267.77 348.396 6.17706 384.689 94.5912 345.43C208.641 294.796 253.75 261.426 353.314 231.197C414.075 212.941 462.34 211.589 503.883 211.075C516.759 210.915 529.256 211.075 541.617 210.892C570.947 210.493 598.614 213.439 623.265 218.634C658.938 226.157 694.581 237.771 722.993 246.279C765.707 259.081 835.208 251.411 858.908 246.59" stroke="#9B2D2D" stroke-miterlimit="10"/>
<path d="M-433.095 310.309C-268.656 350.011 18.0188 385.323 105.97 341.985C225.454 283.106 262.003 251.761 360.917 223.04C421.904 205.473 469.297 207.02 510.99 209.149C523.787 209.803 536.229 210.66 548.563 211.095C575.762 212.053 602.843 215.841 629.509 222.418C666.258 231.528 701.203 244.346 727.888 253.428C768.493 267.27 839.015 257.303 862.573 250.577" stroke="#9B2D2D" stroke-miterlimit="10"/>
<path d="M-431.395 317.123C-269.516 351.621 29.7818 385.857 117.363 338.544C242.112 271.166 270.265 242.101 368.539 214.878C429.749 198.006 476.276 202.427 518.117 207.228C530.841 208.687 543.221 210.258 555.545 211.302C583.858 213.694 611.059 219.176 635.786 226.197C673.611 236.942 707.837 250.956 732.813 260.572C771.278 275.563 842.863 263.196 866.274 254.564" stroke="#9B2D2D" stroke-miterlimit="10"/>
<path d="M-429.696 323.936C-270.376 353.24 41.4331 386.332 128.758 335.1C258.6 258.95 278.543 232.437 376.157 206.721C456.113 185.658 509.373 204.329 562.527 211.506C633.981 221.154 699.68 250.976 737.741 267.721C774.1 283.716 846.715 269.088 869.972 258.551" stroke="#9B2D2D" stroke-miterlimit="10"/>
</g>
</svg>
