<svg width="400" height="448" viewBox="0 0 400 448" fill="none" xmlns="http://www.w3.org/2000/svg">
<g>
<path d="M188.337 -197.106C252.289 -182.36 294.297 -76.7999 282.217 2.9109C273.62 59.6531 223.434 151.519 249.614 219.603C299.091 348.264 428.667 364.8 444.406 363.32" stroke="#E4BDB3" stroke-miterlimit="10"/>
<path d="M176.433 -203.456C217.389 -187.35 250.283 -127.743 270.636 -68.2411C280.544 -39.2353 288.444 -9.38171 287.278 18.1706C284.982 72.4551 239.864 158.434 265.776 222.815C313.757 342.021 433.493 360.132 451.125 363.773" stroke="#E4BDB3" stroke-miterlimit="10"/>
<path d="M164.53 -209.806C203.464 -187.489 236.17 -119.223 263.481 -56.7617C276.764 -26.3311 290.512 4.37993 292.336 33.4319C295.592 85.2625 256.277 165.351 281.937 226.026C328.365 335.799 438.321 355.46 457.834 364.215" stroke="#E4BDB3" stroke-miterlimit="10"/>
<path d="M152.626 -216.157C189.537 -187.638 222.066 -110.71 256.327 -45.2894C272.978 -13.4325 292.35 18.1261 297.383 48.6994C305.547 98.1664 272.65 172.277 298.087 229.245C342.9 329.608 443.134 350.799 464.536 364.671" stroke="#E4BDB3" stroke-miterlimit="10"/>
<path d="M140.722 -222.507C175.617 -187.788 207.958 -102.193 249.176 -33.8047C269.201 -0.524698 293.941 31.9407 302.458 63.9514C315.018 111.189 289.028 179.209 314.26 232.444C357.375 323.415 447.973 346.114 471.262 365.105" stroke="#E4BDB3" stroke-miterlimit="10"/>
<path d="M128.818 -228.857C161.677 -187.928 193.851 -93.6797 242.025 -22.3271C265.42 12.3776 295.286 45.8393 307.519 79.2111C324.07 124.372 305.353 186.151 330.424 235.66C371.765 317.294 452.796 341.454 477.981 365.558" stroke="#E4BDB3" stroke-miterlimit="10"/>
<path d="M116.913 -235.209C147.753 -188.079 179.74 -85.168 234.87 -10.8478C261.638 25.2834 303.212 56.6843 312.576 94.4706C324.279 141.696 324.073 191.806 346.585 238.872C382.18 313.277 457.627 336.781 484.693 366.006" stroke="#E4BDB3" stroke-miterlimit="10"/>
<path d="M105.01 -241.559C133.822 -188.229 165.633 -76.6474 227.716 0.631414C257.858 38.1858 303.497 70.8273 317.628 109.735C334.066 154.968 337.833 200.114 362.74 242.086C400.183 305.188 462.448 332.115 491.4 366.458" stroke="#E4BDB3" stroke-miterlimit="10"/>
<path d="M93.1057 -247.909C119.898 -188.373 151.525 -68.1304 220.551 12.1169C254.068 51.1031 297.876 88.4016 322.683 124.998C349.709 164.872 353.947 207.157 378.896 245.302C414.176 299.245 467.263 327.439 498.111 366.909" stroke="#E4BDB3" stroke-miterlimit="10"/>
<path d="M81.2019 -254.259C105.968 -188.52 137.416 -59.6152 213.402 23.593C250.292 64.0006 298.34 102.91 327.75 140.254C358 178.658 369.964 214.261 395.072 248.506C428.005 293.4 472.111 322.77 504.84 367.349" stroke="#E4BDB3" stroke-miterlimit="10"/>
<path d="M69.2981 -260.609C92.0429 -188.659 123.308 -51.0981 206.254 35.0692C246.511 76.9013 298.633 117.589 332.81 155.514C366.201 192.565 385.745 221.52 411.227 251.72C441.602 287.718 476.931 318.103 511.547 367.8" stroke="#E4BDB3" stroke-miterlimit="10"/>
<path d="M57.3943 -266.959C78.1128 -188.814 109.201 -42.5844 199.105 46.5454C242.735 89.7988 298.787 132.426 337.877 170.771C412.871 244.339 447.137 261.437 518.268 368.244" stroke="#E4BDB3" stroke-miterlimit="10"/>
<path d="M105.532 -266.001C101.752 -129.748 129.785 -23.7686 155.632 29.6217C184.406 89.0615 318.211 176.767 392.709 215.81C425.668 233.089 444.244 253.53 457.629 270.179C483.369 302.197 516.442 390.527 516.878 420.79" stroke="#E4BDB3" stroke-miterlimit="10"/>
<path d="M101.274 -262.429C100.368 -129.597 130.764 -15.657 161.5 34.5305C185.442 73.6039 244.729 118.038 304.836 159.284C338.962 182.768 371.093 203.872 396.221 218.96C404.539 223.951 411.894 229.121 418.522 234.33C436.094 248.163 447.967 262.462 456.878 275.087C467.02 289.461 477.707 312.668 487.112 336.485C500.351 370.253 513.66 407.489 515.203 424.363" stroke="#E4BDB3" stroke-miterlimit="10"/>
<path d="M97.0155 -258.856C98.9776 -129.441 132.306 -7.75366 167.369 39.4479C197.137 79.5176 254.011 118.832 312.871 160.309C346.579 184.185 376.301 206.019 399.73 222.136C407.417 227.426 414.248 232.842 420.496 238.254C434.689 250.565 446.631 264.55 456.14 279.997C465.724 295.466 475.155 318.856 483.608 341.962C495.502 374.967 510.707 411.891 513.54 427.944" stroke="#E4BDB3" stroke-miterlimit="10"/>
<path d="M92.7583 -255.282C97.5935 -129.279 134.325 -0.0747296 173.232 44.3477C209.11 85.3148 263.281 119.609 320.888 161.309C354.181 185.575 381.513 208.12 403.228 225.282C410.294 230.866 416.599 236.531 422.463 242.146C437.565 256.617 448.662 271.036 455.385 284.89C463.631 301.879 472.658 324.992 480.086 347.419C490.746 379.611 507.738 416.271 511.866 431.512" stroke="#E4BDB3" stroke-miterlimit="10"/>
<path d="M88.5 -251.71C96.1967 -129.133 136.699 7.40099 179.086 49.2642C221.335 90.978 272.545 120.403 328.904 162.334C361.781 186.989 386.729 210.236 406.712 228.459C413.157 234.333 418.938 240.245 424.411 246.07C438.298 260.849 448.036 275.86 454.617 289.812C462.971 307.549 470.091 331.186 476.549 352.908C485.902 384.319 504.755 420.683 510.165 435.092" stroke="#E4BDB3" stroke-miterlimit="10"/>
<path d="M84.2279 -248.13C94.8058 -128.976 139.344 14.6939 184.964 54.1668C233.844 96.4577 281.836 121.18 336.933 163.342C369.396 188.388 391.974 212.319 410.233 231.606C416.069 237.77 421.321 243.926 426.4 249.961C439.085 265.042 448.026 280.346 453.884 294.704C461.594 313.599 467.556 337.353 473.052 358.364C481.068 389.013 501.812 425.063 508.512 438.651" stroke="#E4BDB3" stroke-miterlimit="10"/>
<path d="M79.9809 -244.564C93.4141 -128.821 142.185 21.8198 190.831 59.0737C246.553 101.764 291.111 121.968 344.971 164.352C377.014 189.788 397.241 214.394 413.752 234.762C418.971 241.201 423.703 247.612 428.381 253.865C439.879 269.233 447.987 284.85 453.148 299.606C460.165 319.674 465.006 343.53 469.548 363.832C476.23 393.714 498.861 429.455 506.847 442.222" stroke="#E4BDB3" stroke-miterlimit="10"/>
<path d="M75.7226 -240.992C92.025 -128.668 145.175 28.8067 196.696 63.984C259.499 106.859 300.388 122.753 352.994 165.363C384.622 191.19 402.517 216.459 417.257 237.918C421.872 244.638 426.083 251.292 430.354 257.767C440.68 273.423 447.913 289.366 452.399 304.51C458.691 325.773 462.45 349.711 466.033 369.302C471.368 398.423 495.904 433.843 505.177 445.798" stroke="#E4BDB3" stroke-miterlimit="10"/>
<path d="M71.4694 -237.411C90.6422 -128.497 148.263 35.6738 202.569 68.9018C272.615 111.768 309.668 123.55 361.028 166.387C392.237 192.604 407.816 218.526 420.77 241.089C424.784 248.082 428.461 254.992 432.337 261.693C441.507 277.61 447.83 293.911 451.664 309.432C457.207 331.894 459.876 355.926 462.529 374.791C466.509 403.157 492.952 438.266 503.513 449.384" stroke="#E4BDB3" stroke-miterlimit="10"/>
<path d="M67.2073 -233.846C89.2424 -128.357 151.408 42.4079 208.432 73.8016C285.901 116.449 318.941 124.326 369.048 167.391C399.842 193.999 413.125 220.567 424.273 244.237C427.694 251.502 430.866 258.652 434.3 265.578C441.874 280.853 447.43 297.16 450.906 314.32C455.664 337.987 457.278 362.102 459.005 380.244C461.616 407.858 489.977 442.635 501.831 452.937" stroke="#E4BDB3" stroke-miterlimit="10"/>
<path d="M62.9491 -230.273C87.8534 -128.203 154.6 49.0603 214.296 78.7101C299.317 120.948 328.213 125.108 377.076 168.404C407.452 195.403 418.459 222.61 427.78 247.397C430.615 254.935 433.267 262.327 436.272 269.484C443.179 285.925 447.584 302.954 450.161 319.224C454.1 344.114 454.658 368.299 455.492 385.712C456.651 412.598 487.016 447.028 500.16 456.51" stroke="#E4BDB3" stroke-miterlimit="10"/>
<path d="M58.6909 -226.701C86.4588 -128.047 157.8 55.6283 220.163 83.6188C312.873 125.248 337.493 125.899 385.1 169.417C424.094 205.063 427.16 241.482 438.246 273.389C453.147 316.28 452.171 363.838 451.978 391.183C451.794 417.305 484.055 451.423 498.488 460.082" stroke="#E4BDB3" stroke-miterlimit="10"/>
</g>
</svg>
