<svg width="400" height="357" viewBox="0 0 400 357" fill="none" xmlns="http://www.w3.org/2000/svg">
<g clip-path="url(#clip0_160_3562)">
<path d="M-273.855 185.052C-207.332 128.674 -36.4072 145.24 60.5037 202.009C129.491 242.418 214.555 344.488 324.126 356.096C531.192 378.029 648.27 256.341 657.861 239.609" stroke="#E4BDB3" stroke-miterlimit="10"/>
<path d="M-291.021 193.53C-239.577 161.15 -136.325 161.235 -42.4214 173.934C3.3449 180.138 48.7622 188.845 84.4697 205.426C154.822 238.094 235.794 331.751 340.255 341.561C533.675 359.719 645.618 248.854 663.396 233.073" stroke="#E4BDB3" stroke-miterlimit="10"/>
<path d="M-308.188 202.009C-249.985 175.143 -135.381 180.26 -32.4405 187.581C17.6946 191.171 68.5432 194.448 108.436 208.847C179.607 234.533 257.024 319.034 356.381 327.026C536.143 341.48 642.963 241.364 668.908 226.541" stroke="#E4BDB3" stroke-miterlimit="10"/>
<path d="M-325.354 210.487C-260.409 189.133 -134.44 199.27 -22.4689 201.224C32.0318 202.208 88.1342 200.276 132.402 212.282C204.041 231.687 278.235 306.36 372.51 312.505C538.599 323.332 640.311 233.895 674.433 220.024" stroke="#E4BDB3" stroke-miterlimit="10"/>
<path d="M-342.521 218.966C-270.829 203.115 -133.496 218.287 -12.4786 214.87C46.3877 213.241 107.635 206.392 156.368 215.681C228.275 229.398 299.459 293.687 388.63 297.952C541.007 305.243 637.647 226.386 679.948 213.469" stroke="#E4BDB3" stroke-miterlimit="10"/>
<path d="M-359.688 227.444C-281.249 217.123 -132.555 237.301 -2.49778 228.513C60.7343 224.274 127.067 212.802 180.334 219.098C252.415 227.621 320.658 281.072 404.765 283.417C543.45 287.28 635.005 218.907 685.483 206.934" stroke="#E4BDB3" stroke-miterlimit="10"/>
<path d="M-376.858 235.923C-291.672 231.108 -131.62 256.319 7.48317 242.16C75.084 235.311 147.278 210.856 204.296 222.519C275.559 237.095 341.907 265.317 420.894 268.882C545.766 274.511 632.35 211.412 691.004 200.401" stroke="#E4BDB3" stroke-miterlimit="10"/>
<path d="M-394.024 244.401C-302.099 245.101 -130.669 275.336 17.464 255.806C89.4305 246.344 166.255 218.475 228.262 225.948C300.357 234.625 363.034 256.057 437.02 254.354C548.249 251.796 629.698 203.933 696.529 193.877" stroke="#E4BDB3" stroke-miterlimit="10"/>
<path d="M-411.191 252.88C-312.513 259.091 -129.725 294.354 27.4449 269.468C103.789 257.395 185.45 233.98 252.228 229.372C324.986 224.355 384.211 243.712 453.149 239.826C550.636 234.334 627.027 196.454 702.054 187.348" stroke="#E4BDB3" stroke-miterlimit="10"/>
<path d="M-428.357 261.358C-322.936 273.084 -128.784 313.372 37.4258 283.107C118.133 268.421 205.044 241.622 276.194 232.782C349.367 223.684 405.398 231.499 469.278 225.273C553.032 217.093 624.391 188.945 707.579 180.794" stroke="#E4BDB3" stroke-miterlimit="10"/>
<path d="M-445.524 269.836C-333.344 287.077 -127.84 332.389 47.4067 296.746C132.476 279.454 224.738 249.532 300.16 236.199C373.844 223.172 426.618 219.611 485.404 210.745C555.475 200.177 621.736 181.465 713.101 174.269" stroke="#E4BDB3" stroke-miterlimit="10"/>
<path d="M-462.691 278.315C-343.777 301.067 -126.899 351.403 57.3876 310.386C146.82 290.48 244.541 257.672 324.126 239.609C476.816 204.958 524.663 179.891 718.625 167.726" stroke="#E4BDB3" stroke-miterlimit="10"/>
<path d="M-426.076 230.209C-248.038 310.201 -86.8165 341.122 3.01148 344.852C103.017 349.007 317.645 262.833 424.153 209.381C471.281 185.737 512.046 178.394 543.968 174.177C605.355 166.067 746.854 182.029 787.336 198.507" stroke="#E4BDB3" stroke-miterlimit="10"/>
<path d="M-424.462 236.509C-248.854 311.683 -75.3337 344.668 13.8337 341.667C83.2637 339.319 185.759 304.252 284.623 266.574C340.844 245.219 392.441 224.55 430.912 207.593C443.642 201.979 455.903 197.438 467.682 193.652C498.94 183.629 526.633 179.626 549.929 177.679C576.45 175.467 615.093 177.642 653.605 181.454C708.137 186.954 767.321 194.323 790.848 202.197" stroke="#E4BDB3" stroke-miterlimit="10"/>
<path d="M-422.848 242.809C-249.667 313.176 -63.7137 347.529 24.6685 338.486C99.6981 330.808 193.627 295.316 291.884 259.028C348.317 238.315 399.112 220.488 437.702 205.824C450.366 201.013 462.569 197.139 474.338 193.851C501.097 186.392 528.423 182.143 555.902 181.17C583.467 180.134 621.431 183.68 658.301 188.056C710.832 194.489 770.995 199.767 794.378 205.879" stroke="#E4BDB3" stroke-miterlimit="10"/>
<path d="M-421.231 249.108C-250.468 314.665 -52.0407 349.781 35.4751 335.301C116.182 321.95 201.464 286.384 299.098 251.486C355.742 231.411 405.728 216.396 444.445 204.047C457.044 200.029 469.19 196.826 480.948 194.039C511.239 186.869 538.521 183.717 561.842 184.668C590.441 185.833 627.741 189.634 662.956 194.666C713.503 201.891 774.628 205.216 797.884 209.566" stroke="#E4BDB3" stroke-miterlimit="10"/>
<path d="M-419.617 255.408C-251.3 316.158 -40.3771 351.562 46.2974 332.135C132.673 312.763 209.32 277.467 306.343 243.959C363.199 224.521 412.365 212.308 451.22 202.304C463.747 199.074 475.837 196.538 487.585 194.264C517.394 188.495 544.463 187.046 567.809 188.196C597.481 189.671 634.076 195.69 667.643 201.308C716.195 209.418 778.293 210.697 801.386 213.285" stroke="#E4BDB3" stroke-miterlimit="10"/>
<path d="M-418.003 261.727C-252.114 317.651 -28.7572 352.966 57.1196 328.935C149.129 303.186 217.172 268.513 313.575 236.409C370.647 217.609 418.981 208.172 457.982 200.505C470.446 198.053 482.471 196.188 494.21 194.43C523.535 190.043 550.409 189.564 573.764 191.672C604.498 194.444 640.399 201.699 672.317 207.892C718.875 216.927 781.945 216.12 804.895 216.946" stroke="#E4BDB3" stroke-miterlimit="10"/>
<path d="M-416.388 268.012C-252.93 319.144 -17.2152 354.079 67.9387 325.75C165.501 293.311 225.028 259.581 320.817 228.852C378.097 210.694 425.602 204.01 464.753 198.713C477.13 197.04 489.112 195.842 500.844 194.61C529.68 191.584 556.357 192.122 579.728 195.156C611.512 199.285 646.724 207.73 677 214.49C721.561 224.443 785.606 221.557 808.413 220.624" stroke="#E4BDB3" stroke-miterlimit="10"/>
<path d="M-414.774 274.312C-253.746 320.634 -5.74788 354.964 78.7609 322.569C181.767 283.078 232.881 250.646 328.05 221.31C385.545 203.789 432.215 199.834 471.515 196.936C483.821 196.03 495.743 195.495 507.472 194.798C535.828 193.117 562.297 194.721 585.686 198.654C618.524 204.184 653.05 213.768 681.678 221.1C724.241 231.989 789.258 226.998 811.931 224.311" stroke="#E4BDB3" stroke-miterlimit="10"/>
<path d="M-413.145 280.611C-254.535 322.126 5.63217 355.683 89.5988 319.384C197.912 272.568 240.752 241.714 335.307 213.764C393.011 196.885 438.849 195.635 478.302 195.16C490.53 195.012 502.399 195.16 514.137 194.99C541.992 194.621 568.267 197.346 591.678 202.149C625.557 209.105 659.407 219.843 686.389 227.71C726.955 239.546 792.96 232.454 815.468 227.997" stroke="#E4BDB3" stroke-miterlimit="10"/>
<path d="M-411.543 286.911C-255.376 323.619 16.8782 356.269 100.405 316.199C213.879 261.76 248.589 232.778 342.527 206.222C400.446 189.98 445.455 191.411 485.051 193.379C497.204 193.984 509.021 194.776 520.734 195.178C546.565 196.064 572.283 199.567 597.608 205.647C632.509 214.07 665.695 225.922 691.039 234.319C729.6 247.118 796.575 237.902 818.949 231.683" stroke="#E4BDB3" stroke-miterlimit="10"/>
<path d="M-409.929 293.211C-256.192 325.109 28.0495 356.763 111.225 313.018C229.699 250.719 256.435 223.846 349.766 198.676C407.897 183.076 452.083 187.164 491.82 191.602C503.904 192.951 515.661 194.404 527.365 195.37C554.254 197.581 580.086 202.65 603.569 209.142C639.492 219.076 671.996 232.034 695.716 240.925C732.246 254.785 800.23 243.35 822.463 235.37" stroke="#E4BDB3" stroke-miterlimit="10"/>
<path d="M-408.315 299.511C-257.009 326.605 39.1147 357.202 122.047 309.833C245.357 239.425 264.297 214.911 357.001 191.134C432.934 171.66 483.515 188.922 533.996 195.558C601.856 204.479 664.249 232.052 700.396 247.534C734.926 262.324 803.888 248.799 825.975 239.056" stroke="#E4BDB3" stroke-miterlimit="10"/>
</g>
<defs>
<clipPath id="clip0_160_3562">
<rect width="1095" height="416.919" fill="white" transform="translate(-420)"/>
</clipPath>
</defs>
</svg>
