<svg width="400" height="859" viewBox="0 0 400 859" fill="none" xmlns="http://www.w3.org/2000/svg">
<g clip-path="url(#clip0_145_2635)">
<path d="M-152.693 183.802C-67.087 200.398 26.9724 344.073 43.3529 455.186C55.0156 534.282 28.6502 664.508 88.1763 757.23C200.67 932.451 368.854 947.599 387.906 944.607" stroke="#E4BDB3" stroke-miterlimit="10"/>
<path d="M-170.05 175.72C-112.598 195.576 -48.0396 276.157 0.829307 357.342C24.6352 396.919 46.2706 437.79 55.6877 476.016C74.2422 551.331 51.8767 673.102 109.607 760.712C216.504 922.928 373.033 940.845 396.468 944.833" stroke="#E4BDB3" stroke-miterlimit="10"/>
<path d="M-187.406 167.638C-130.025 196.217 -62.2864 288.8 -3.56698 373.667C25.0117 415.015 54.2813 456.724 68.0197 496.849C92.5323 568.433 75.083 681.699 131.036 764.191C232.274 913.437 377.213 934.086 405.012 945.043" stroke="#E4BDB3" stroke-miterlimit="10"/>
<path d="M-204.763 159.557C-147.46 196.843 -76.5237 301.433 -7.96625 389.983C25.3774 433.105 61.9977 475.651 80.3402 517.69C110.044 585.708 98.2431 690.31 152.456 767.683C247.965 903.994 381.378 927.343 413.553 945.273" stroke="#E4BDB3" stroke-miterlimit="10"/>
<path d="M-222.12 151.475C-164.886 197.467 -90.7648 314.072 -12.3567 406.316C25.7578 451.207 69.4332 494.688 92.6895 538.509C126.997 603.176 121.411 698.931 173.895 771.146C263.58 894.551 385.567 920.566 422.117 945.473" stroke="#E4BDB3" stroke-miterlimit="10"/>
<path d="M-239.477 143.393C-182.333 198.108 -105.005 326.706 -16.7501 422.639C26.1322 469.301 76.5959 513.855 105.024 559.339C143.492 620.891 144.517 707.569 195.33 774.632C279.119 885.213 389.747 913.823 430.678 945.698" stroke="#E4BDB3" stroke-miterlimit="10"/>
<path d="M-256.836 135.308C-199.765 198.732 -119.252 339.338 -21.1464 438.965C26.5058 487.401 90.7638 528.4 117.354 580.169C150.589 644.87 170.104 714.28 216.761 778.114C290.527 879.027 393.93 907.063 439.229 945.916" stroke="#E4BDB3" stroke-miterlimit="10"/>
<path d="M-274.193 127.226C-217.204 199.358 -133.489 351.982 -25.5427 455.29C26.8803 505.495 96.6987 547.969 129.681 601.006C168.036 662.665 190.55 724.962 238.184 781.598C309.797 866.746 398.103 900.313 447.775 946.141" stroke="#E4BDB3" stroke-miterlimit="10"/>
<path d="M-291.549 119.144C-234.633 199.992 -147.73 364.622 -29.9505 471.625C27.2482 523.611 96.6205 572.644 142.01 621.841C191.461 675.446 213.432 733.751 259.61 785.085C324.91 857.679 402.265 893.549 456.325 946.364" stroke="#E4BDB3" stroke-miterlimit="10"/>
<path d="M-308.906 111.063C-252.07 200.621 -161.973 377.258 -34.3411 487.946C27.6264 541.698 102.924 592.708 154.35 642.667C207.244 694.041 236.218 742.631 281.055 788.555C339.856 848.757 406.472 886.793 464.894 946.571" stroke="#E4BDB3" stroke-miterlimit="10"/>
<path d="M-326.263 102.981C-269.498 201.262 -176.215 389.898 -38.7316 504.267C27.999 559.791 109.081 613.019 166.685 663.497C222.963 712.81 258.771 751.741 302.478 792.039C354.578 840.075 410.643 880.041 473.439 946.794" stroke="#E4BDB3" stroke-miterlimit="10"/>
<path d="M-343.62 94.8987C-286.938 201.881 -190.455 402.532 -43.1222 520.588C28.3773 577.878 115.127 633.558 179.026 684.322C301.617 781.719 351.114 803.347 482 947.007" stroke="#E4BDB3" stroke-miterlimit="10"/>
<path d="M-283.185 93.3457C-234.14 282.267 -157.349 427.358 -104.037 499.751C-44.6847 580.347 156.857 693.803 265.206 743.416C313.143 765.373 344.385 792.57 367.653 814.827C412.399 857.628 488.513 977.975 500.999 1019.86" stroke="#E4BDB3" stroke-miterlimit="10"/>
<path d="M-287.088 98.5476C-235.807 282.558 -152.928 438.533 -94.7791 506.198C-49.4924 558.878 42.0077 616.867 133.271 670.391C185.114 700.873 233.527 728.177 270.831 747.568C283.177 753.982 294.393 760.703 304.718 767.52C332.099 785.625 352.554 804.717 368.653 821.668C386.977 840.968 409.467 872.467 430.598 904.889C460.439 950.861 491.735 1001.63 500.319 1024.91" stroke="#E4BDB3" stroke-miterlimit="10"/>
<path d="M-290.991 103.749C-237.48 282.858 -147.886 449.386 -85.5166 512.657C-32.568 566.368 53.9012 617.411 143.7 671.33C195.175 702.379 240.871 730.838 276.461 751.756C288.139 758.622 298.798 765.714 308.729 772.835C331.294 789.036 351.711 807.689 369.669 828.512C387.729 849.362 408.724 881.19 428.388 912.683C456.25 957.679 489.788 1007.91 499.657 1029.97" stroke="#E4BDB3" stroke-miterlimit="10"/>
<path d="M-294.892 108.954C-239.143 283.165 -142.337 459.9 -76.2689 519.092C-15.3421 573.68 65.7724 617.932 154.098 672.236C205.208 703.849 248.203 733.436 282.067 755.903C293.086 763.214 303.187 770.683 312.719 778.108C337.27 797.245 356.803 816.55 370.658 835.333C387.649 858.368 408.031 889.837 426.147 920.451C452.148 964.395 487.813 1014.15 498.976 1035.01" stroke="#E4BDB3" stroke-miterlimit="10"/>
<path d="M-298.795 114.156C-240.828 283.451 -136.425 470.111 -67.0258 525.551C2.14354 580.792 77.6438 618.478 164.503 673.175C215.249 705.353 255.546 736.054 287.667 760.096C298.026 767.844 307.571 775.687 316.698 783.425C339.854 803.063 357.926 823.268 371.641 842.195C389.062 866.26 407.272 898.569 423.9 928.264C447.963 971.206 485.831 1020.44 498.267 1040.07" stroke="#E4BDB3" stroke-miterlimit="10"/>
<path d="M-302.713 119.369C-242.501 283.751 -130.248 480.052 -57.7569 531.988C19.9124 587.632 89.5419 618.998 174.918 674.091C225.3 706.835 262.912 738.625 293.302 764.243C303.015 772.43 311.996 780.641 320.715 788.696C342.491 808.822 359.684 829.481 372.657 849.015C389.731 874.72 406.543 907.26 421.69 936.03C443.784 977.996 483.888 1026.68 497.608 1045.1" stroke="#E4BDB3" stroke-miterlimit="10"/>
<path d="M-306.604 124.562C-244.177 284.049 -123.892 489.751 -48.5013 538.433C37.8615 594.22 101.425 619.535 185.344 675.009C235.357 708.317 270.302 741.184 298.938 768.403C307.989 777.009 316.423 785.603 324.726 793.983C345.135 814.579 361.412 835.721 373.673 855.847C390.347 883.22 405.799 915.968 419.475 943.812C439.603 984.795 481.939 1032.94 496.941 1050.14" stroke="#E4BDB3" stroke-miterlimit="10"/>
<path d="M-310.507 129.764C-245.849 284.344 -117.405 499.248 -39.2466 544.882C56.0232 600.501 113.309 620.066 195.753 675.929C245.403 709.804 277.698 743.727 304.556 772.565C312.965 781.594 320.843 790.558 328.728 799.27C347.787 820.333 363.102 841.98 374.674 862.683C390.914 891.755 405.049 924.681 417.248 951.597C435.395 991.608 479.981 1039.19 496.268 1055.19" stroke="#E4BDB3" stroke-miterlimit="10"/>
<path d="M-314.401 134.978C-247.507 284.663 -110.843 508.574 -29.9794 551.341C74.3245 606.514 125.201 620.615 206.18 676.867C255.461 711.306 285.125 746.274 310.189 776.746C317.957 786.19 325.271 795.539 332.75 804.588C350.472 826.082 364.792 848.279 375.699 869.544C391.478 900.32 404.289 933.441 415.042 959.409C431.2 998.455 478.043 1045.49 495.606 1060.26" stroke="#E4BDB3" stroke-miterlimit="10"/>
<path d="M-318.312 140.17C-249.198 284.942 -104.261 517.711 -20.7317 557.776C92.7475 612.203 137.075 621.134 216.581 677.777C265.499 712.783 292.555 748.782 315.802 780.896C322.937 790.752 329.714 800.464 336.732 809.851C352.208 830.551 365.574 852.802 376.682 876.359C391.956 908.85 403.484 942.15 412.797 967.172C426.951 1005.26 476.057 1051.72 494.91 1065.28" stroke="#E4BDB3" stroke-miterlimit="10"/>
<path d="M-322.215 145.372C-250.871 285.237 -97.6547 526.733 -11.479 564.223C111.26 617.631 148.952 621.664 226.997 678.7C275.548 714.273 300.015 751.293 321.424 785.062C327.935 795.331 334.161 805.41 340.733 815.142C355.838 837.498 368.053 860.817 377.688 883.195C392.423 917.429 402.661 950.889 410.573 974.954C422.626 1012.12 474.095 1057.98 494.235 1070.33" stroke="#E4BDB3" stroke-miterlimit="10"/>
<path d="M-326.118 150.574C-252.549 285.537 -91.0713 535.638 -2.22156 570.67C129.869 622.774 160.842 622.202 237.408 679.622C300.122 726.655 318.316 776.908 344.737 820.432C380.252 878.94 397.798 944.859 408.347 982.741C418.424 1018.93 472.135 1064.25 493.558 1075.38" stroke="#E4BDB3" stroke-miterlimit="10"/>
</g>
<defs>
<clipPath id="clip0_145_2635">
<rect width="1095" height="416.919" fill="white" transform="translate(-99.8388 -46) rotate(51.2527)"/>
</clipPath>
</defs>
</svg>
