<svg width="400" height="248" viewBox="0 0 400 248" fill="none" xmlns="http://www.w3.org/2000/svg">
<g>
<path d="M-360.855 16.0518C-294.332 -40.3263 -123.407 -23.7601 -26.4963 33.0087C42.4912 73.4179 127.555 175.488 237.126 187.096C444.192 209.029 561.27 87.341 570.861 70.6089" stroke="#E4BDB3" stroke-miterlimit="10"/>
<path d="M-378.021 24.5303C-326.577 -7.85012 -223.325 -7.76534 -129.421 4.93393C-83.6551 11.138 -38.2378 19.845 -2.53035 36.4259C67.822 69.0938 148.794 162.751 253.255 172.561C446.675 190.719 558.618 79.8541 576.396 64.0731" stroke="#E4BDB3" stroke-miterlimit="10"/>
<path d="M-395.188 33.0087C-336.985 6.14304 -222.381 11.2596 -119.44 18.5806C-69.3054 22.171 -18.4568 25.4481 21.4356 39.8468C92.6075 65.5329 170.024 150.034 269.381 158.026C449.143 172.48 555.963 72.3636 581.908 57.541" stroke="#E4BDB3" stroke-miterlimit="10"/>
<path d="M-412.354 41.4872C-347.409 20.1325 -221.44 30.2698 -109.469 32.2236C-54.9682 33.2078 1.13421 31.2762 45.4016 43.2824C117.041 62.6871 191.235 137.36 285.51 143.505C451.599 154.332 553.311 64.8952 587.433 51.0236" stroke="#E4BDB3" stroke-miterlimit="10"/>
<path d="M-429.521 49.9657C-357.829 34.1146 -220.496 49.2874 -99.4786 45.8702C-40.6123 44.2409 20.6348 37.3917 69.3676 46.6812C141.275 60.3979 212.459 124.687 301.63 128.952C454.007 136.243 550.647 57.3862 592.948 44.4694" stroke="#E4BDB3" stroke-miterlimit="10"/>
<path d="M-446.688 58.4441C-368.249 48.1225 -219.555 68.3013 -89.4978 59.5132C-26.2657 55.2739 40.0669 43.8022 93.3336 50.0984C165.415 58.6211 233.658 112.072 317.765 114.417C456.45 118.28 548.005 49.9067 598.483 37.9336" stroke="#E4BDB3" stroke-miterlimit="10"/>
<path d="M-463.857 66.9226C-378.672 62.1083 -218.62 87.3188 -79.5168 73.1598C-11.916 66.3107 60.278 41.8558 117.297 53.5192C188.559 68.0948 254.907 96.3171 333.894 99.8817C458.766 105.511 545.35 42.4124 604.004 31.4015" stroke="#E4BDB3" stroke-miterlimit="10"/>
<path d="M-481.024 75.4011C-389.099 76.1015 -217.669 106.336 -69.536 86.8065C2.43047 77.3437 79.255 49.4754 141.262 56.9475C213.357 65.625 276.034 87.0571 350.02 85.3541C461.249 82.7958 542.698 34.933 609.529 24.8768" stroke="#E4BDB3" stroke-miterlimit="10"/>
<path d="M-498.191 83.8795C-399.513 90.0909 -216.725 125.354 -59.5551 100.468C16.7895 88.3952 98.4502 64.9799 165.228 60.3721C237.986 55.355 297.211 74.7117 366.149 70.8264C463.636 65.3338 540.027 27.4535 615.054 18.3484" stroke="#E4BDB3" stroke-miterlimit="10"/>
<path d="M-515.357 92.358C-409.936 104.084 -215.784 144.372 -49.5742 114.107C31.133 99.4209 118.044 72.6216 189.194 63.7819C262.367 54.6841 318.398 62.499 382.278 56.2729C466.032 48.093 537.391 19.9445 620.579 11.7941" stroke="#E4BDB3" stroke-miterlimit="10"/>
<path d="M-532.524 100.836C-420.344 118.077 -214.84 163.389 -39.5933 127.746C45.4764 110.454 137.738 80.5324 213.16 67.1991C286.844 54.1717 339.618 50.6108 398.404 41.7452C468.475 31.1766 534.736 12.465 626.101 5.26938" stroke="#E4BDB3" stroke-miterlimit="10"/>
<path d="M-549.691 109.315C-430.777 132.067 -213.899 182.403 -29.6124 141.386C59.8199 121.48 157.541 88.6717 237.126 70.6089C389.816 35.9578 437.663 10.891 631.625 -1.27377" stroke="#E4BDB3" stroke-miterlimit="10"/>
<path d="M-513.076 61.2088C-335.038 141.201 -173.817 172.122 -83.9885 175.852C16.0167 180.007 230.645 93.8325 337.153 40.3813C384.281 16.7374 425.046 9.39434 456.968 5.17723C518.355 -2.93261 659.854 13.029 700.336 29.5067" stroke="#E4BDB3" stroke-miterlimit="10"/>
<path d="M-511.462 67.5087C-335.854 142.683 -162.334 175.668 -73.1663 172.668C-3.7363 170.319 98.7587 135.252 197.623 97.5741C253.844 76.2194 305.441 55.5504 343.912 38.5935C356.642 32.9792 368.903 28.4377 380.682 24.6519C411.94 14.6289 439.633 10.6256 462.929 8.6792C489.45 6.46742 528.093 8.64233 566.605 12.454C621.137 17.9539 680.321 25.3228 703.848 33.1967" stroke="#E4BDB3" stroke-miterlimit="10"/>
<path d="M-509.848 73.8086C-336.667 144.176 -150.714 178.529 -62.3315 169.486C12.6981 161.808 106.627 126.316 204.884 90.0283C261.317 69.315 312.112 51.4881 350.702 36.824C363.366 32.0134 375.569 28.1391 387.338 24.8509C414.097 17.3916 441.423 13.1432 468.902 12.1701C496.467 11.1343 534.431 14.6805 571.301 19.0561C623.832 25.4887 683.995 30.7674 707.378 36.8793" stroke="#E4BDB3" stroke-miterlimit="10"/>
<path d="M-508.231 80.1085C-337.468 145.665 -139.041 180.781 -51.5249 166.301C29.1823 152.95 114.464 117.384 212.098 82.4861C268.742 62.4106 318.728 47.3963 357.445 35.0473C370.044 31.0292 382.19 27.8258 393.948 25.039C424.239 17.8691 451.521 14.7173 474.842 15.6684C503.441 16.8333 540.741 20.6339 575.956 25.6656C626.503 32.8908 687.628 36.2158 710.884 40.5656" stroke="#E4BDB3" stroke-miterlimit="10"/>
<path d="M-506.617 86.4083C-338.3 147.158 -127.377 182.562 -40.7026 163.135C45.6728 143.763 122.32 108.467 219.343 74.9587C276.199 55.5209 325.365 43.3082 364.22 33.3036C376.747 30.0744 388.837 27.5383 400.585 25.2638C430.394 19.4948 457.463 18.0461 480.809 19.1962C510.481 20.6707 547.076 26.6904 580.643 32.3083C629.195 40.4181 691.293 41.6973 714.386 44.2851" stroke="#E4BDB3" stroke-miterlimit="10"/>
<path d="M-505.003 92.7266C-339.114 148.651 -115.757 183.966 -29.8804 159.935C62.1288 134.186 130.172 99.5131 226.575 67.4092C283.647 48.6091 331.981 39.1722 370.982 31.5047C383.446 29.0533 395.471 27.1881 407.21 25.4297C436.535 21.043 463.409 20.5638 486.764 22.6724C517.498 25.4445 553.399 32.6991 585.317 38.8921C631.875 47.9272 694.945 47.1199 717.895 47.9456" stroke="#E4BDB3" stroke-miterlimit="10"/>
<path d="M-503.388 99.0117C-339.93 150.144 -104.215 185.079 -19.0613 156.75C78.5009 124.311 138.028 90.5812 233.817 59.8523C291.097 41.6936 338.602 35.0104 377.753 29.7132C390.13 28.0396 402.112 26.8416 413.844 25.6103C442.68 22.5839 469.357 23.1221 492.728 26.1559C524.512 30.2845 559.724 38.7298 590 45.4905C634.561 55.4435 698.606 52.5571 721.413 51.6245" stroke="#E4BDB3" stroke-miterlimit="10"/>
<path d="M-501.774 105.312C-340.746 151.634 -92.7479 185.964 -8.23905 153.569C94.767 114.078 145.881 81.6456 241.05 52.3101C298.545 34.7892 345.215 30.8338 384.515 27.9364C396.821 27.0296 408.743 26.4951 420.472 25.7983C448.828 24.1174 475.297 25.7209 498.686 29.6542C531.524 35.1836 566.05 44.768 594.678 52.1C637.241 62.9893 702.258 57.9981 724.931 55.3108" stroke="#E4BDB3" stroke-miterlimit="10"/>
<path d="M-500.145 111.611C-341.535 153.126 -81.3678 186.683 2.59879 150.384C110.912 103.568 153.752 72.7138 248.307 44.7643C306.011 27.8848 351.849 26.6351 391.302 26.1596C403.53 26.0121 415.399 26.1596 427.137 25.99C454.992 25.6214 481.267 28.3456 504.678 33.1488C538.557 40.1048 572.407 50.843 599.389 58.7095C639.955 70.5462 705.96 63.4538 728.468 58.9971" stroke="#E4BDB3" stroke-miterlimit="10"/>
<path d="M-498.543 117.911C-342.376 154.619 -70.1218 187.269 13.4055 147.199C126.879 92.7598 161.589 63.7782 255.527 37.2222C313.446 20.9804 358.455 22.4106 398.051 24.3791C410.204 24.9837 422.021 25.7762 433.734 26.178C459.565 27.0642 485.283 30.5667 510.608 36.6471C545.509 45.0703 578.695 56.9217 604.039 65.3191C642.6 78.1179 709.575 68.9021 731.949 62.6834" stroke="#E4BDB3" stroke-miterlimit="10"/>
<path d="M-496.929 124.211C-343.192 156.109 -58.9505 187.763 24.2246 144.018C142.699 81.7194 169.435 54.8463 262.766 29.6763C320.897 14.0759 365.083 18.164 404.82 22.6023C416.904 23.9515 428.661 25.4039 440.365 26.3697C467.254 28.5815 493.086 33.6501 516.569 40.1417C552.492 50.0762 584.996 63.0336 608.716 71.9249C645.246 85.7854 713.23 74.3505 735.463 66.3697" stroke="#E4BDB3" stroke-miterlimit="10"/>
<path d="M-495.315 130.511C-344.009 157.605 -47.8853 188.202 35.0468 140.833C158.357 70.4246 177.297 45.9108 270.001 22.1342C345.934 2.6595 396.515 19.9224 446.996 26.5577C514.856 35.4785 577.249 63.052 613.396 78.5344C647.926 93.3238 716.888 79.7988 738.975 70.056" stroke="#E4BDB3" stroke-miterlimit="10"/>
</g>
</svg>
